<?xml version="1.0" encoding="utf-8" standalone="no"?>
<!DOCTYPE svg PUBLIC "-//W3C//DTD SVG 1.1//EN"
  "http://www.w3.org/Graphics/SVG/1.1/DTD/svg11.dtd">
<!-- Created with matplotlib (https://matplotlib.org/) -->
<svg height="288pt" version="1.1" viewBox="0 0 432 288" width="432pt" xmlns="http://www.w3.org/2000/svg" xmlns:xlink="http://www.w3.org/1999/xlink">
 <metadata>
  <rdf:RDF xmlns:cc="http://creativecommons.org/ns#" xmlns:dc="http://purl.org/dc/elements/1.1/" xmlns:rdf="http://www.w3.org/1999/02/22-rdf-syntax-ns#">
   <cc:Work>
    <dc:type rdf:resource="http://purl.org/dc/dcmitype/StillImage"/>
    <dc:date>2021-06-30T11:08:22.370382</dc:date>
    <dc:format>image/svg+xml</dc:format>
    <dc:creator>
     <cc:Agent>
      <dc:title>Matplotlib v3.3.4, https://matplotlib.org/</dc:title>
     </cc:Agent>
    </dc:creator>
   </cc:Work>
  </rdf:RDF>
 </metadata>
 <defs>
  <style type="text/css">*{stroke-linecap:butt;stroke-linejoin:round;}</style>
 </defs>
 <g id="figure_1">
  <g id="patch_1">
   <path d="M 0 288 
L 432 288 
L 432 0 
L 0 0 
z
" style="fill:none;"/>
  </g>
  <g id="axes_1">
   <g id="patch_2">
    <path d="M 55.645234 221.939962 
L 411.557105 221.939962 
L 411.557105 16.7 
L 55.645234 16.7 
z
" style="fill:#ffffff;"/>
   </g>
   <g id="matplotlib.axis_1">
    <g id="xtick_1">
     <g id="line2d_1">
      <defs>
       <path d="M 0 0 
L 0 3.5 
" id="mee6fc8308b" style="stroke:#000000;stroke-width:0.8;"/>
      </defs>
      <g>
       <use style="stroke:#000000;stroke-width:0.8;" x="65.346741" xlink:href="#mee6fc8308b" y="221.939962"/>
      </g>
     </g>
     <g id="text_1">
      <!-- 2018-01-01 -->
      <g transform="translate(46.750937 275.406821)rotate(-45)scale(0.1 -0.1)">
       <defs>
        <path d="M 19.1875 8.296875 
L 53.609375 8.296875 
L 53.609375 0 
L 7.328125 0 
L 7.328125 8.296875 
Q 12.9375 14.109375 22.625 23.890625 
Q 32.328125 33.6875 34.8125 36.53125 
Q 39.546875 41.84375 41.421875 45.53125 
Q 43.3125 49.21875 43.3125 52.78125 
Q 43.3125 58.59375 39.234375 62.25 
Q 35.15625 65.921875 28.609375 65.921875 
Q 23.96875 65.921875 18.8125 64.3125 
Q 13.671875 62.703125 7.8125 59.421875 
L 7.8125 69.390625 
Q 13.765625 71.78125 18.9375 73 
Q 24.125 74.21875 28.421875 74.21875 
Q 39.75 74.21875 46.484375 68.546875 
Q 53.21875 62.890625 53.21875 53.421875 
Q 53.21875 48.921875 51.53125 44.890625 
Q 49.859375 40.875 45.40625 35.40625 
Q 44.1875 33.984375 37.640625 27.21875 
Q 31.109375 20.453125 19.1875 8.296875 
z
" id="DejaVuSans-50"/>
        <path d="M 31.78125 66.40625 
Q 24.171875 66.40625 20.328125 58.90625 
Q 16.5 51.421875 16.5 36.375 
Q 16.5 21.390625 20.328125 13.890625 
Q 24.171875 6.390625 31.78125 6.390625 
Q 39.453125 6.390625 43.28125 13.890625 
Q 47.125 21.390625 47.125 36.375 
Q 47.125 51.421875 43.28125 58.90625 
Q 39.453125 66.40625 31.78125 66.40625 
z
M 31.78125 74.21875 
Q 44.046875 74.21875 50.515625 64.515625 
Q 56.984375 54.828125 56.984375 36.375 
Q 56.984375 17.96875 50.515625 8.265625 
Q 44.046875 -1.421875 31.78125 -1.421875 
Q 19.53125 -1.421875 13.0625 8.265625 
Q 6.59375 17.96875 6.59375 36.375 
Q 6.59375 54.828125 13.0625 64.515625 
Q 19.53125 74.21875 31.78125 74.21875 
z
" id="DejaVuSans-48"/>
        <path d="M 12.40625 8.296875 
L 28.515625 8.296875 
L 28.515625 63.921875 
L 10.984375 60.40625 
L 10.984375 69.390625 
L 28.421875 72.90625 
L 38.28125 72.90625 
L 38.28125 8.296875 
L 54.390625 8.296875 
L 54.390625 0 
L 12.40625 0 
z
" id="DejaVuSans-49"/>
        <path d="M 31.78125 34.625 
Q 24.75 34.625 20.71875 30.859375 
Q 16.703125 27.09375 16.703125 20.515625 
Q 16.703125 13.921875 20.71875 10.15625 
Q 24.75 6.390625 31.78125 6.390625 
Q 38.8125 6.390625 42.859375 10.171875 
Q 46.921875 13.96875 46.921875 20.515625 
Q 46.921875 27.09375 42.890625 30.859375 
Q 38.875 34.625 31.78125 34.625 
z
M 21.921875 38.8125 
Q 15.578125 40.375 12.03125 44.71875 
Q 8.5 49.078125 8.5 55.328125 
Q 8.5 64.0625 14.71875 69.140625 
Q 20.953125 74.21875 31.78125 74.21875 
Q 42.671875 74.21875 48.875 69.140625 
Q 55.078125 64.0625 55.078125 55.328125 
Q 55.078125 49.078125 51.53125 44.71875 
Q 48 40.375 41.703125 38.8125 
Q 48.828125 37.15625 52.796875 32.3125 
Q 56.78125 27.484375 56.78125 20.515625 
Q 56.78125 9.90625 50.3125 4.234375 
Q 43.84375 -1.421875 31.78125 -1.421875 
Q 19.734375 -1.421875 13.25 4.234375 
Q 6.78125 9.90625 6.78125 20.515625 
Q 6.78125 27.484375 10.78125 32.3125 
Q 14.796875 37.15625 21.921875 38.8125 
z
M 18.3125 54.390625 
Q 18.3125 48.734375 21.84375 45.5625 
Q 25.390625 42.390625 31.78125 42.390625 
Q 38.140625 42.390625 41.71875 45.5625 
Q 45.3125 48.734375 45.3125 54.390625 
Q 45.3125 60.0625 41.71875 63.234375 
Q 38.140625 66.40625 31.78125 66.40625 
Q 25.390625 66.40625 21.84375 63.234375 
Q 18.3125 60.0625 18.3125 54.390625 
z
" id="DejaVuSans-56"/>
        <path d="M 4.890625 31.390625 
L 31.203125 31.390625 
L 31.203125 23.390625 
L 4.890625 23.390625 
z
" id="DejaVuSans-45"/>
       </defs>
       <use xlink:href="#DejaVuSans-50"/>
       <use x="63.623047" xlink:href="#DejaVuSans-48"/>
       <use x="127.246094" xlink:href="#DejaVuSans-49"/>
       <use x="190.869141" xlink:href="#DejaVuSans-56"/>
       <use x="254.492188" xlink:href="#DejaVuSans-45"/>
       <use x="290.576172" xlink:href="#DejaVuSans-48"/>
       <use x="354.199219" xlink:href="#DejaVuSans-49"/>
       <use x="417.822266" xlink:href="#DejaVuSans-45"/>
       <use x="453.90625" xlink:href="#DejaVuSans-48"/>
       <use x="517.529297" xlink:href="#DejaVuSans-49"/>
      </g>
     </g>
    </g>
    <g id="xtick_2">
     <g id="line2d_2">
      <g>
       <use style="stroke:#000000;stroke-width:0.8;" x="112.235196" xlink:href="#mee6fc8308b" y="221.939962"/>
      </g>
     </g>
     <g id="text_2">
      <!-- 2018-07-01 -->
      <g transform="translate(93.639392 275.406821)rotate(-45)scale(0.1 -0.1)">
       <defs>
        <path d="M 8.203125 72.90625 
L 55.078125 72.90625 
L 55.078125 68.703125 
L 28.609375 0 
L 18.3125 0 
L 43.21875 64.59375 
L 8.203125 64.59375 
z
" id="DejaVuSans-55"/>
       </defs>
       <use xlink:href="#DejaVuSans-50"/>
       <use x="63.623047" xlink:href="#DejaVuSans-48"/>
       <use x="127.246094" xlink:href="#DejaVuSans-49"/>
       <use x="190.869141" xlink:href="#DejaVuSans-56"/>
       <use x="254.492188" xlink:href="#DejaVuSans-45"/>
       <use x="290.576172" xlink:href="#DejaVuSans-48"/>
       <use x="354.199219" xlink:href="#DejaVuSans-55"/>
       <use x="417.822266" xlink:href="#DejaVuSans-45"/>
       <use x="453.90625" xlink:href="#DejaVuSans-48"/>
       <use x="517.529297" xlink:href="#DejaVuSans-49"/>
      </g>
     </g>
    </g>
    <g id="xtick_3">
     <g id="line2d_3">
      <g>
       <use style="stroke:#000000;stroke-width:0.8;" x="159.900808" xlink:href="#mee6fc8308b" y="221.939962"/>
      </g>
     </g>
     <g id="text_3">
      <!-- 2019-01-01 -->
      <g transform="translate(141.305004 275.406821)rotate(-45)scale(0.1 -0.1)">
       <defs>
        <path d="M 10.984375 1.515625 
L 10.984375 10.5 
Q 14.703125 8.734375 18.5 7.8125 
Q 22.3125 6.890625 25.984375 6.890625 
Q 35.75 6.890625 40.890625 13.453125 
Q 46.046875 20.015625 46.78125 33.40625 
Q 43.953125 29.203125 39.59375 26.953125 
Q 35.25 24.703125 29.984375 24.703125 
Q 19.046875 24.703125 12.671875 31.3125 
Q 6.296875 37.9375 6.296875 49.421875 
Q 6.296875 60.640625 12.9375 67.421875 
Q 19.578125 74.21875 30.609375 74.21875 
Q 43.265625 74.21875 49.921875 64.515625 
Q 56.59375 54.828125 56.59375 36.375 
Q 56.59375 19.140625 48.40625 8.859375 
Q 40.234375 -1.421875 26.421875 -1.421875 
Q 22.703125 -1.421875 18.890625 -0.6875 
Q 15.09375 0.046875 10.984375 1.515625 
z
M 30.609375 32.421875 
Q 37.25 32.421875 41.125 36.953125 
Q 45.015625 41.5 45.015625 49.421875 
Q 45.015625 57.28125 41.125 61.84375 
Q 37.25 66.40625 30.609375 66.40625 
Q 23.96875 66.40625 20.09375 61.84375 
Q 16.21875 57.28125 16.21875 49.421875 
Q 16.21875 41.5 20.09375 36.953125 
Q 23.96875 32.421875 30.609375 32.421875 
z
" id="DejaVuSans-57"/>
       </defs>
       <use xlink:href="#DejaVuSans-50"/>
       <use x="63.623047" xlink:href="#DejaVuSans-48"/>
       <use x="127.246094" xlink:href="#DejaVuSans-49"/>
       <use x="190.869141" xlink:href="#DejaVuSans-57"/>
       <use x="254.492188" xlink:href="#DejaVuSans-45"/>
       <use x="290.576172" xlink:href="#DejaVuSans-48"/>
       <use x="354.199219" xlink:href="#DejaVuSans-49"/>
       <use x="417.822266" xlink:href="#DejaVuSans-45"/>
       <use x="453.90625" xlink:href="#DejaVuSans-48"/>
       <use x="517.529297" xlink:href="#DejaVuSans-49"/>
      </g>
     </g>
    </g>
    <g id="xtick_4">
     <g id="line2d_4">
      <g>
       <use style="stroke:#000000;stroke-width:0.8;" x="206.789263" xlink:href="#mee6fc8308b" y="221.939962"/>
      </g>
     </g>
     <g id="text_4">
      <!-- 2019-07-01 -->
      <g transform="translate(188.19346 275.406821)rotate(-45)scale(0.1 -0.1)">
       <use xlink:href="#DejaVuSans-50"/>
       <use x="63.623047" xlink:href="#DejaVuSans-48"/>
       <use x="127.246094" xlink:href="#DejaVuSans-49"/>
       <use x="190.869141" xlink:href="#DejaVuSans-57"/>
       <use x="254.492188" xlink:href="#DejaVuSans-45"/>
       <use x="290.576172" xlink:href="#DejaVuSans-48"/>
       <use x="354.199219" xlink:href="#DejaVuSans-55"/>
       <use x="417.822266" xlink:href="#DejaVuSans-45"/>
       <use x="453.90625" xlink:href="#DejaVuSans-48"/>
       <use x="517.529297" xlink:href="#DejaVuSans-49"/>
      </g>
     </g>
    </g>
    <g id="xtick_5">
     <g id="line2d_5">
      <g>
       <use style="stroke:#000000;stroke-width:0.8;" x="254.454875" xlink:href="#mee6fc8308b" y="221.939962"/>
      </g>
     </g>
     <g id="text_5">
      <!-- 2020-01-01 -->
      <g transform="translate(235.859072 275.406821)rotate(-45)scale(0.1 -0.1)">
       <use xlink:href="#DejaVuSans-50"/>
       <use x="63.623047" xlink:href="#DejaVuSans-48"/>
       <use x="127.246094" xlink:href="#DejaVuSans-50"/>
       <use x="190.869141" xlink:href="#DejaVuSans-48"/>
       <use x="254.492188" xlink:href="#DejaVuSans-45"/>
       <use x="290.576172" xlink:href="#DejaVuSans-48"/>
       <use x="354.199219" xlink:href="#DejaVuSans-49"/>
       <use x="417.822266" xlink:href="#DejaVuSans-45"/>
       <use x="453.90625" xlink:href="#DejaVuSans-48"/>
       <use x="517.529297" xlink:href="#DejaVuSans-49"/>
      </g>
     </g>
    </g>
    <g id="xtick_6">
     <g id="line2d_6">
      <g>
       <use style="stroke:#000000;stroke-width:0.8;" x="301.602383" xlink:href="#mee6fc8308b" y="221.939962"/>
      </g>
     </g>
     <g id="text_6">
      <!-- 2020-07-01 -->
      <g transform="translate(283.006579 275.406821)rotate(-45)scale(0.1 -0.1)">
       <use xlink:href="#DejaVuSans-50"/>
       <use x="63.623047" xlink:href="#DejaVuSans-48"/>
       <use x="127.246094" xlink:href="#DejaVuSans-50"/>
       <use x="190.869141" xlink:href="#DejaVuSans-48"/>
       <use x="254.492188" xlink:href="#DejaVuSans-45"/>
       <use x="290.576172" xlink:href="#DejaVuSans-48"/>
       <use x="354.199219" xlink:href="#DejaVuSans-55"/>
       <use x="417.822266" xlink:href="#DejaVuSans-45"/>
       <use x="453.90625" xlink:href="#DejaVuSans-48"/>
       <use x="517.529297" xlink:href="#DejaVuSans-49"/>
      </g>
     </g>
    </g>
    <g id="xtick_7">
     <g id="line2d_7">
      <g>
       <use style="stroke:#000000;stroke-width:0.8;" x="349.267995" xlink:href="#mee6fc8308b" y="221.939962"/>
      </g>
     </g>
     <g id="text_7">
      <!-- 2021-01-01 -->
      <g transform="translate(330.672191 275.406821)rotate(-45)scale(0.1 -0.1)">
       <use xlink:href="#DejaVuSans-50"/>
       <use x="63.623047" xlink:href="#DejaVuSans-48"/>
       <use x="127.246094" xlink:href="#DejaVuSans-50"/>
       <use x="190.869141" xlink:href="#DejaVuSans-49"/>
       <use x="254.492188" xlink:href="#DejaVuSans-45"/>
       <use x="290.576172" xlink:href="#DejaVuSans-48"/>
       <use x="354.199219" xlink:href="#DejaVuSans-49"/>
       <use x="417.822266" xlink:href="#DejaVuSans-45"/>
       <use x="453.90625" xlink:href="#DejaVuSans-48"/>
       <use x="517.529297" xlink:href="#DejaVuSans-49"/>
      </g>
     </g>
    </g>
    <g id="xtick_8">
     <g id="line2d_8">
      <g>
       <use style="stroke:#000000;stroke-width:0.8;" x="396.15645" xlink:href="#mee6fc8308b" y="221.939962"/>
      </g>
     </g>
     <g id="text_8">
      <!-- 2021-07-01 -->
      <g transform="translate(377.560646 275.406821)rotate(-45)scale(0.1 -0.1)">
       <use xlink:href="#DejaVuSans-50"/>
       <use x="63.623047" xlink:href="#DejaVuSans-48"/>
       <use x="127.246094" xlink:href="#DejaVuSans-50"/>
       <use x="190.869141" xlink:href="#DejaVuSans-49"/>
       <use x="254.492188" xlink:href="#DejaVuSans-45"/>
       <use x="290.576172" xlink:href="#DejaVuSans-48"/>
       <use x="354.199219" xlink:href="#DejaVuSans-55"/>
       <use x="417.822266" xlink:href="#DejaVuSans-45"/>
       <use x="453.90625" xlink:href="#DejaVuSans-48"/>
       <use x="517.529297" xlink:href="#DejaVuSans-49"/>
      </g>
     </g>
    </g>
   </g>
   <g id="matplotlib.axis_2">
    <g id="ytick_1">
     <g id="line2d_9">
      <defs>
       <path d="M 0 0 
L -3.5 0 
" id="m974a5e6ed2" style="stroke:#000000;stroke-width:0.8;"/>
      </defs>
      <g>
       <use style="stroke:#000000;stroke-width:0.8;" x="55.645234" xlink:href="#m974a5e6ed2" y="212.983435"/>
      </g>
     </g>
     <g id="text_9">
      <!-- $\mathdefault{10^{0}}$ -->
      <g transform="translate(31.045234 216.782654)scale(0.1 -0.1)">
       <use transform="translate(0 0.765625)" xlink:href="#DejaVuSans-49"/>
       <use transform="translate(63.623047 0.765625)" xlink:href="#DejaVuSans-48"/>
       <use transform="translate(128.203125 39.046875)scale(0.7)" xlink:href="#DejaVuSans-48"/>
      </g>
     </g>
    </g>
    <g id="ytick_2">
     <g id="line2d_10">
      <g>
       <use style="stroke:#000000;stroke-width:0.8;" x="55.645234" xlink:href="#m974a5e6ed2" y="163.912577"/>
      </g>
     </g>
     <g id="text_10">
      <!-- $\mathdefault{10^{1}}$ -->
      <g transform="translate(31.045234 167.711795)scale(0.1 -0.1)">
       <use transform="translate(0 0.684375)" xlink:href="#DejaVuSans-49"/>
       <use transform="translate(63.623047 0.684375)" xlink:href="#DejaVuSans-48"/>
       <use transform="translate(128.203125 38.965625)scale(0.7)" xlink:href="#DejaVuSans-49"/>
      </g>
     </g>
    </g>
    <g id="ytick_3">
     <g id="line2d_11">
      <g>
       <use style="stroke:#000000;stroke-width:0.8;" x="55.645234" xlink:href="#m974a5e6ed2" y="114.841718"/>
      </g>
     </g>
     <g id="text_11">
      <!-- $\mathdefault{10^{2}}$ -->
      <g transform="translate(31.045234 118.640936)scale(0.1 -0.1)">
       <use transform="translate(0 0.765625)" xlink:href="#DejaVuSans-49"/>
       <use transform="translate(63.623047 0.765625)" xlink:href="#DejaVuSans-48"/>
       <use transform="translate(128.203125 39.046875)scale(0.7)" xlink:href="#DejaVuSans-50"/>
      </g>
     </g>
    </g>
    <g id="ytick_4">
     <g id="line2d_12">
      <g>
       <use style="stroke:#000000;stroke-width:0.8;" x="55.645234" xlink:href="#m974a5e6ed2" y="65.770859"/>
      </g>
     </g>
     <g id="text_12">
      <!-- $\mathdefault{10^{3}}$ -->
      <g transform="translate(31.045234 69.570078)scale(0.1 -0.1)">
       <defs>
        <path d="M 40.578125 39.3125 
Q 47.65625 37.796875 51.625 33 
Q 55.609375 28.21875 55.609375 21.1875 
Q 55.609375 10.40625 48.1875 4.484375 
Q 40.765625 -1.421875 27.09375 -1.421875 
Q 22.515625 -1.421875 17.65625 -0.515625 
Q 12.796875 0.390625 7.625 2.203125 
L 7.625 11.71875 
Q 11.71875 9.328125 16.59375 8.109375 
Q 21.484375 6.890625 26.8125 6.890625 
Q 36.078125 6.890625 40.9375 10.546875 
Q 45.796875 14.203125 45.796875 21.1875 
Q 45.796875 27.640625 41.28125 31.265625 
Q 36.765625 34.90625 28.71875 34.90625 
L 20.21875 34.90625 
L 20.21875 43.015625 
L 29.109375 43.015625 
Q 36.375 43.015625 40.234375 45.921875 
Q 44.09375 48.828125 44.09375 54.296875 
Q 44.09375 59.90625 40.109375 62.90625 
Q 36.140625 65.921875 28.71875 65.921875 
Q 24.65625 65.921875 20.015625 65.03125 
Q 15.375 64.15625 9.8125 62.3125 
L 9.8125 71.09375 
Q 15.4375 72.65625 20.34375 73.4375 
Q 25.25 74.21875 29.59375 74.21875 
Q 40.828125 74.21875 47.359375 69.109375 
Q 53.90625 64.015625 53.90625 55.328125 
Q 53.90625 49.265625 50.4375 45.09375 
Q 46.96875 40.921875 40.578125 39.3125 
z
" id="DejaVuSans-51"/>
       </defs>
       <use transform="translate(0 0.765625)" xlink:href="#DejaVuSans-49"/>
       <use transform="translate(63.623047 0.765625)" xlink:href="#DejaVuSans-48"/>
       <use transform="translate(128.203125 39.046875)scale(0.7)" xlink:href="#DejaVuSans-51"/>
      </g>
     </g>
    </g>
    <g id="ytick_5">
     <g id="line2d_13">
      <g>
       <use style="stroke:#000000;stroke-width:0.8;" x="55.645234" xlink:href="#m974a5e6ed2" y="16.7"/>
      </g>
     </g>
     <g id="text_13">
      <!-- $\mathdefault{10^{4}}$ -->
      <g transform="translate(31.045234 20.499219)scale(0.1 -0.1)">
       <defs>
        <path d="M 37.796875 64.3125 
L 12.890625 25.390625 
L 37.796875 25.390625 
z
M 35.203125 72.90625 
L 47.609375 72.90625 
L 47.609375 25.390625 
L 58.015625 25.390625 
L 58.015625 17.1875 
L 47.609375 17.1875 
L 47.609375 0 
L 37.796875 0 
L 37.796875 17.1875 
L 4.890625 17.1875 
L 4.890625 26.703125 
z
" id="DejaVuSans-52"/>
       </defs>
       <use transform="translate(0 0.684375)" xlink:href="#DejaVuSans-49"/>
       <use transform="translate(63.623047 0.684375)" xlink:href="#DejaVuSans-48"/>
       <use transform="translate(128.203125 38.965625)scale(0.7)" xlink:href="#DejaVuSans-52"/>
      </g>
     </g>
    </g>
    <g id="ytick_6">
     <g id="line2d_14">
      <defs>
       <path d="M 0 0 
L -2 0 
" id="m53ca960fa2" style="stroke:#000000;stroke-width:0.6;"/>
      </defs>
      <g>
       <use style="stroke:#000000;stroke-width:0.6;" x="55.645234" xlink:href="#m53ca960fa2" y="220.584608"/>
      </g>
     </g>
    </g>
    <g id="ytick_7">
     <g id="line2d_15">
      <g>
       <use style="stroke:#000000;stroke-width:0.6;" x="55.645234" xlink:href="#m53ca960fa2" y="217.738893"/>
      </g>
     </g>
    </g>
    <g id="ytick_8">
     <g id="line2d_16">
      <g>
       <use style="stroke:#000000;stroke-width:0.6;" x="55.645234" xlink:href="#m53ca960fa2" y="215.228795"/>
      </g>
     </g>
    </g>
    <g id="ytick_9">
     <g id="line2d_17">
      <g>
       <use style="stroke:#000000;stroke-width:0.6;" x="55.645234" xlink:href="#m53ca960fa2" y="198.211635"/>
      </g>
     </g>
    </g>
    <g id="ytick_10">
     <g id="line2d_18">
      <g>
       <use style="stroke:#000000;stroke-width:0.6;" x="55.645234" xlink:href="#m53ca960fa2" y="189.570686"/>
      </g>
     </g>
    </g>
    <g id="ytick_11">
     <g id="line2d_19">
      <g>
       <use style="stroke:#000000;stroke-width:0.6;" x="55.645234" xlink:href="#m53ca960fa2" y="183.439835"/>
      </g>
     </g>
    </g>
    <g id="ytick_12">
     <g id="line2d_20">
      <g>
       <use style="stroke:#000000;stroke-width:0.6;" x="55.645234" xlink:href="#m53ca960fa2" y="178.684377"/>
      </g>
     </g>
    </g>
    <g id="ytick_13">
     <g id="line2d_21">
      <g>
       <use style="stroke:#000000;stroke-width:0.6;" x="55.645234" xlink:href="#m53ca960fa2" y="174.798885"/>
      </g>
     </g>
    </g>
    <g id="ytick_14">
     <g id="line2d_22">
      <g>
       <use style="stroke:#000000;stroke-width:0.6;" x="55.645234" xlink:href="#m53ca960fa2" y="171.513749"/>
      </g>
     </g>
    </g>
    <g id="ytick_15">
     <g id="line2d_23">
      <g>
       <use style="stroke:#000000;stroke-width:0.6;" x="55.645234" xlink:href="#m53ca960fa2" y="168.668034"/>
      </g>
     </g>
    </g>
    <g id="ytick_16">
     <g id="line2d_24">
      <g>
       <use style="stroke:#000000;stroke-width:0.6;" x="55.645234" xlink:href="#m53ca960fa2" y="166.157936"/>
      </g>
     </g>
    </g>
    <g id="ytick_17">
     <g id="line2d_25">
      <g>
       <use style="stroke:#000000;stroke-width:0.6;" x="55.645234" xlink:href="#m53ca960fa2" y="149.140776"/>
      </g>
     </g>
    </g>
    <g id="ytick_18">
     <g id="line2d_26">
      <g>
       <use style="stroke:#000000;stroke-width:0.6;" x="55.645234" xlink:href="#m53ca960fa2" y="140.499827"/>
      </g>
     </g>
    </g>
    <g id="ytick_19">
     <g id="line2d_27">
      <g>
       <use style="stroke:#000000;stroke-width:0.6;" x="55.645234" xlink:href="#m53ca960fa2" y="134.368976"/>
      </g>
     </g>
    </g>
    <g id="ytick_20">
     <g id="line2d_28">
      <g>
       <use style="stroke:#000000;stroke-width:0.6;" x="55.645234" xlink:href="#m53ca960fa2" y="129.613518"/>
      </g>
     </g>
    </g>
    <g id="ytick_21">
     <g id="line2d_29">
      <g>
       <use style="stroke:#000000;stroke-width:0.6;" x="55.645234" xlink:href="#m53ca960fa2" y="125.728026"/>
      </g>
     </g>
    </g>
    <g id="ytick_22">
     <g id="line2d_30">
      <g>
       <use style="stroke:#000000;stroke-width:0.6;" x="55.645234" xlink:href="#m53ca960fa2" y="122.44289"/>
      </g>
     </g>
    </g>
    <g id="ytick_23">
     <g id="line2d_31">
      <g>
       <use style="stroke:#000000;stroke-width:0.6;" x="55.645234" xlink:href="#m53ca960fa2" y="119.597175"/>
      </g>
     </g>
    </g>
    <g id="ytick_24">
     <g id="line2d_32">
      <g>
       <use style="stroke:#000000;stroke-width:0.6;" x="55.645234" xlink:href="#m53ca960fa2" y="117.087077"/>
      </g>
     </g>
    </g>
    <g id="ytick_25">
     <g id="line2d_33">
      <g>
       <use style="stroke:#000000;stroke-width:0.6;" x="55.645234" xlink:href="#m53ca960fa2" y="100.069917"/>
      </g>
     </g>
    </g>
    <g id="ytick_26">
     <g id="line2d_34">
      <g>
       <use style="stroke:#000000;stroke-width:0.6;" x="55.645234" xlink:href="#m53ca960fa2" y="91.428968"/>
      </g>
     </g>
    </g>
    <g id="ytick_27">
     <g id="line2d_35">
      <g>
       <use style="stroke:#000000;stroke-width:0.6;" x="55.645234" xlink:href="#m53ca960fa2" y="85.298117"/>
      </g>
     </g>
    </g>
    <g id="ytick_28">
     <g id="line2d_36">
      <g>
       <use style="stroke:#000000;stroke-width:0.6;" x="55.645234" xlink:href="#m53ca960fa2" y="80.542659"/>
      </g>
     </g>
    </g>
    <g id="ytick_29">
     <g id="line2d_37">
      <g>
       <use style="stroke:#000000;stroke-width:0.6;" x="55.645234" xlink:href="#m53ca960fa2" y="76.657168"/>
      </g>
     </g>
    </g>
    <g id="ytick_30">
     <g id="line2d_38">
      <g>
       <use style="stroke:#000000;stroke-width:0.6;" x="55.645234" xlink:href="#m53ca960fa2" y="73.372031"/>
      </g>
     </g>
    </g>
    <g id="ytick_31">
     <g id="line2d_39">
      <g>
       <use style="stroke:#000000;stroke-width:0.6;" x="55.645234" xlink:href="#m53ca960fa2" y="70.526316"/>
      </g>
     </g>
    </g>
    <g id="ytick_32">
     <g id="line2d_40">
      <g>
       <use style="stroke:#000000;stroke-width:0.6;" x="55.645234" xlink:href="#m53ca960fa2" y="68.016218"/>
      </g>
     </g>
    </g>
    <g id="ytick_33">
     <g id="line2d_41">
      <g>
       <use style="stroke:#000000;stroke-width:0.6;" x="55.645234" xlink:href="#m53ca960fa2" y="50.999058"/>
      </g>
     </g>
    </g>
    <g id="ytick_34">
     <g id="line2d_42">
      <g>
       <use style="stroke:#000000;stroke-width:0.6;" x="55.645234" xlink:href="#m53ca960fa2" y="42.358109"/>
      </g>
     </g>
    </g>
    <g id="ytick_35">
     <g id="line2d_43">
      <g>
       <use style="stroke:#000000;stroke-width:0.6;" x="55.645234" xlink:href="#m53ca960fa2" y="36.227258"/>
      </g>
     </g>
    </g>
    <g id="ytick_36">
     <g id="line2d_44">
      <g>
       <use style="stroke:#000000;stroke-width:0.6;" x="55.645234" xlink:href="#m53ca960fa2" y="31.4718"/>
      </g>
     </g>
    </g>
    <g id="ytick_37">
     <g id="line2d_45">
      <g>
       <use style="stroke:#000000;stroke-width:0.6;" x="55.645234" xlink:href="#m53ca960fa2" y="27.586309"/>
      </g>
     </g>
    </g>
    <g id="ytick_38">
     <g id="line2d_46">
      <g>
       <use style="stroke:#000000;stroke-width:0.6;" x="55.645234" xlink:href="#m53ca960fa2" y="24.301172"/>
      </g>
     </g>
    </g>
    <g id="ytick_39">
     <g id="line2d_47">
      <g>
       <use style="stroke:#000000;stroke-width:0.6;" x="55.645234" xlink:href="#m53ca960fa2" y="21.455458"/>
      </g>
     </g>
    </g>
    <g id="ytick_40">
     <g id="line2d_48">
      <g>
       <use style="stroke:#000000;stroke-width:0.6;" x="55.645234" xlink:href="#m53ca960fa2" y="18.945359"/>
      </g>
     </g>
    </g>
    <g id="text_14">
     <!-- log(Anzahl Tweets / Tag) -->
     <g transform="translate(23.717734 215.822481)rotate(-90)scale(0.16 -0.16)">
      <defs>
       <path d="M 9.421875 75.984375 
L 18.40625 75.984375 
L 18.40625 0 
L 9.421875 0 
z
" id="DejaVuSans-108"/>
       <path d="M 30.609375 48.390625 
Q 23.390625 48.390625 19.1875 42.75 
Q 14.984375 37.109375 14.984375 27.296875 
Q 14.984375 17.484375 19.15625 11.84375 
Q 23.34375 6.203125 30.609375 6.203125 
Q 37.796875 6.203125 41.984375 11.859375 
Q 46.1875 17.53125 46.1875 27.296875 
Q 46.1875 37.015625 41.984375 42.703125 
Q 37.796875 48.390625 30.609375 48.390625 
z
M 30.609375 56 
Q 42.328125 56 49.015625 48.375 
Q 55.71875 40.765625 55.71875 27.296875 
Q 55.71875 13.875 49.015625 6.21875 
Q 42.328125 -1.421875 30.609375 -1.421875 
Q 18.84375 -1.421875 12.171875 6.21875 
Q 5.515625 13.875 5.515625 27.296875 
Q 5.515625 40.765625 12.171875 48.375 
Q 18.84375 56 30.609375 56 
z
" id="DejaVuSans-111"/>
       <path d="M 45.40625 27.984375 
Q 45.40625 37.75 41.375 43.109375 
Q 37.359375 48.484375 30.078125 48.484375 
Q 22.859375 48.484375 18.828125 43.109375 
Q 14.796875 37.75 14.796875 27.984375 
Q 14.796875 18.265625 18.828125 12.890625 
Q 22.859375 7.515625 30.078125 7.515625 
Q 37.359375 7.515625 41.375 12.890625 
Q 45.40625 18.265625 45.40625 27.984375 
z
M 54.390625 6.78125 
Q 54.390625 -7.171875 48.1875 -13.984375 
Q 42 -20.796875 29.203125 -20.796875 
Q 24.46875 -20.796875 20.265625 -20.09375 
Q 16.0625 -19.390625 12.109375 -17.921875 
L 12.109375 -9.1875 
Q 16.0625 -11.328125 19.921875 -12.34375 
Q 23.78125 -13.375 27.78125 -13.375 
Q 36.625 -13.375 41.015625 -8.765625 
Q 45.40625 -4.15625 45.40625 5.171875 
L 45.40625 9.625 
Q 42.625 4.78125 38.28125 2.390625 
Q 33.9375 0 27.875 0 
Q 17.828125 0 11.671875 7.65625 
Q 5.515625 15.328125 5.515625 27.984375 
Q 5.515625 40.671875 11.671875 48.328125 
Q 17.828125 56 27.875 56 
Q 33.9375 56 38.28125 53.609375 
Q 42.625 51.21875 45.40625 46.390625 
L 45.40625 54.6875 
L 54.390625 54.6875 
z
" id="DejaVuSans-103"/>
       <path d="M 31 75.875 
Q 24.46875 64.65625 21.28125 53.65625 
Q 18.109375 42.671875 18.109375 31.390625 
Q 18.109375 20.125 21.3125 9.0625 
Q 24.515625 -2 31 -13.1875 
L 23.1875 -13.1875 
Q 15.875 -1.703125 12.234375 9.375 
Q 8.59375 20.453125 8.59375 31.390625 
Q 8.59375 42.28125 12.203125 53.3125 
Q 15.828125 64.359375 23.1875 75.875 
z
" id="DejaVuSans-40"/>
       <path d="M 34.1875 63.1875 
L 20.796875 26.90625 
L 47.609375 26.90625 
z
M 28.609375 72.90625 
L 39.796875 72.90625 
L 67.578125 0 
L 57.328125 0 
L 50.6875 18.703125 
L 17.828125 18.703125 
L 11.1875 0 
L 0.78125 0 
z
" id="DejaVuSans-65"/>
       <path d="M 54.890625 33.015625 
L 54.890625 0 
L 45.90625 0 
L 45.90625 32.71875 
Q 45.90625 40.484375 42.875 44.328125 
Q 39.84375 48.1875 33.796875 48.1875 
Q 26.515625 48.1875 22.3125 43.546875 
Q 18.109375 38.921875 18.109375 30.90625 
L 18.109375 0 
L 9.078125 0 
L 9.078125 54.6875 
L 18.109375 54.6875 
L 18.109375 46.1875 
Q 21.34375 51.125 25.703125 53.5625 
Q 30.078125 56 35.796875 56 
Q 45.21875 56 50.046875 50.171875 
Q 54.890625 44.34375 54.890625 33.015625 
z
" id="DejaVuSans-110"/>
       <path d="M 5.515625 54.6875 
L 48.1875 54.6875 
L 48.1875 46.484375 
L 14.40625 7.171875 
L 48.1875 7.171875 
L 48.1875 0 
L 4.296875 0 
L 4.296875 8.203125 
L 38.09375 47.515625 
L 5.515625 47.515625 
z
" id="DejaVuSans-122"/>
       <path d="M 34.28125 27.484375 
Q 23.390625 27.484375 19.1875 25 
Q 14.984375 22.515625 14.984375 16.5 
Q 14.984375 11.71875 18.140625 8.90625 
Q 21.296875 6.109375 26.703125 6.109375 
Q 34.1875 6.109375 38.703125 11.40625 
Q 43.21875 16.703125 43.21875 25.484375 
L 43.21875 27.484375 
z
M 52.203125 31.203125 
L 52.203125 0 
L 43.21875 0 
L 43.21875 8.296875 
Q 40.140625 3.328125 35.546875 0.953125 
Q 30.953125 -1.421875 24.3125 -1.421875 
Q 15.921875 -1.421875 10.953125 3.296875 
Q 6 8.015625 6 15.921875 
Q 6 25.140625 12.171875 29.828125 
Q 18.359375 34.515625 30.609375 34.515625 
L 43.21875 34.515625 
L 43.21875 35.40625 
Q 43.21875 41.609375 39.140625 45 
Q 35.0625 48.390625 27.6875 48.390625 
Q 23 48.390625 18.546875 47.265625 
Q 14.109375 46.140625 10.015625 43.890625 
L 10.015625 52.203125 
Q 14.9375 54.109375 19.578125 55.046875 
Q 24.21875 56 28.609375 56 
Q 40.484375 56 46.34375 49.84375 
Q 52.203125 43.703125 52.203125 31.203125 
z
" id="DejaVuSans-97"/>
       <path d="M 54.890625 33.015625 
L 54.890625 0 
L 45.90625 0 
L 45.90625 32.71875 
Q 45.90625 40.484375 42.875 44.328125 
Q 39.84375 48.1875 33.796875 48.1875 
Q 26.515625 48.1875 22.3125 43.546875 
Q 18.109375 38.921875 18.109375 30.90625 
L 18.109375 0 
L 9.078125 0 
L 9.078125 75.984375 
L 18.109375 75.984375 
L 18.109375 46.1875 
Q 21.34375 51.125 25.703125 53.5625 
Q 30.078125 56 35.796875 56 
Q 45.21875 56 50.046875 50.171875 
Q 54.890625 44.34375 54.890625 33.015625 
z
" id="DejaVuSans-104"/>
       <path id="DejaVuSans-32"/>
       <path d="M -0.296875 72.90625 
L 61.375 72.90625 
L 61.375 64.59375 
L 35.5 64.59375 
L 35.5 0 
L 25.59375 0 
L 25.59375 64.59375 
L -0.296875 64.59375 
z
" id="DejaVuSans-84"/>
       <path d="M 4.203125 54.6875 
L 13.1875 54.6875 
L 24.421875 12.015625 
L 35.59375 54.6875 
L 46.1875 54.6875 
L 57.421875 12.015625 
L 68.609375 54.6875 
L 77.59375 54.6875 
L 63.28125 0 
L 52.6875 0 
L 40.921875 44.828125 
L 29.109375 0 
L 18.5 0 
z
" id="DejaVuSans-119"/>
       <path d="M 56.203125 29.59375 
L 56.203125 25.203125 
L 14.890625 25.203125 
Q 15.484375 15.921875 20.484375 11.0625 
Q 25.484375 6.203125 34.421875 6.203125 
Q 39.59375 6.203125 44.453125 7.46875 
Q 49.3125 8.734375 54.109375 11.28125 
L 54.109375 2.78125 
Q 49.265625 0.734375 44.1875 -0.34375 
Q 39.109375 -1.421875 33.890625 -1.421875 
Q 20.796875 -1.421875 13.15625 6.1875 
Q 5.515625 13.8125 5.515625 26.8125 
Q 5.515625 40.234375 12.765625 48.109375 
Q 20.015625 56 32.328125 56 
Q 43.359375 56 49.78125 48.890625 
Q 56.203125 41.796875 56.203125 29.59375 
z
M 47.21875 32.234375 
Q 47.125 39.59375 43.09375 43.984375 
Q 39.0625 48.390625 32.421875 48.390625 
Q 24.90625 48.390625 20.390625 44.140625 
Q 15.875 39.890625 15.1875 32.171875 
z
" id="DejaVuSans-101"/>
       <path d="M 18.3125 70.21875 
L 18.3125 54.6875 
L 36.8125 54.6875 
L 36.8125 47.703125 
L 18.3125 47.703125 
L 18.3125 18.015625 
Q 18.3125 11.328125 20.140625 9.421875 
Q 21.96875 7.515625 27.59375 7.515625 
L 36.8125 7.515625 
L 36.8125 0 
L 27.59375 0 
Q 17.1875 0 13.234375 3.875 
Q 9.28125 7.765625 9.28125 18.015625 
L 9.28125 47.703125 
L 2.6875 47.703125 
L 2.6875 54.6875 
L 9.28125 54.6875 
L 9.28125 70.21875 
z
" id="DejaVuSans-116"/>
       <path d="M 44.28125 53.078125 
L 44.28125 44.578125 
Q 40.484375 46.53125 36.375 47.5 
Q 32.28125 48.484375 27.875 48.484375 
Q 21.1875 48.484375 17.84375 46.4375 
Q 14.5 44.390625 14.5 40.28125 
Q 14.5 37.15625 16.890625 35.375 
Q 19.28125 33.59375 26.515625 31.984375 
L 29.59375 31.296875 
Q 39.15625 29.25 43.1875 25.515625 
Q 47.21875 21.78125 47.21875 15.09375 
Q 47.21875 7.46875 41.1875 3.015625 
Q 35.15625 -1.421875 24.609375 -1.421875 
Q 20.21875 -1.421875 15.453125 -0.5625 
Q 10.6875 0.296875 5.421875 2 
L 5.421875 11.28125 
Q 10.40625 8.6875 15.234375 7.390625 
Q 20.0625 6.109375 24.8125 6.109375 
Q 31.15625 6.109375 34.5625 8.28125 
Q 37.984375 10.453125 37.984375 14.40625 
Q 37.984375 18.0625 35.515625 20.015625 
Q 33.0625 21.96875 24.703125 23.78125 
L 21.578125 24.515625 
Q 13.234375 26.265625 9.515625 29.90625 
Q 5.8125 33.546875 5.8125 39.890625 
Q 5.8125 47.609375 11.28125 51.796875 
Q 16.75 56 26.8125 56 
Q 31.78125 56 36.171875 55.265625 
Q 40.578125 54.546875 44.28125 53.078125 
z
" id="DejaVuSans-115"/>
       <path d="M 25.390625 72.90625 
L 33.6875 72.90625 
L 8.296875 -9.28125 
L 0 -9.28125 
z
" id="DejaVuSans-47"/>
       <path d="M 8.015625 75.875 
L 15.828125 75.875 
Q 23.140625 64.359375 26.78125 53.3125 
Q 30.421875 42.28125 30.421875 31.390625 
Q 30.421875 20.453125 26.78125 9.375 
Q 23.140625 -1.703125 15.828125 -13.1875 
L 8.015625 -13.1875 
Q 14.5 -2 17.703125 9.0625 
Q 20.90625 20.125 20.90625 31.390625 
Q 20.90625 42.671875 17.703125 53.65625 
Q 14.5 64.65625 8.015625 75.875 
z
" id="DejaVuSans-41"/>
      </defs>
      <use xlink:href="#DejaVuSans-108"/>
      <use x="27.783203" xlink:href="#DejaVuSans-111"/>
      <use x="88.964844" xlink:href="#DejaVuSans-103"/>
      <use x="152.441406" xlink:href="#DejaVuSans-40"/>
      <use x="191.455078" xlink:href="#DejaVuSans-65"/>
      <use x="259.863281" xlink:href="#DejaVuSans-110"/>
      <use x="323.242188" xlink:href="#DejaVuSans-122"/>
      <use x="375.732422" xlink:href="#DejaVuSans-97"/>
      <use x="437.011719" xlink:href="#DejaVuSans-104"/>
      <use x="500.390625" xlink:href="#DejaVuSans-108"/>
      <use x="528.173828" xlink:href="#DejaVuSans-32"/>
      <use x="559.960938" xlink:href="#DejaVuSans-84"/>
      <use x="604.544922" xlink:href="#DejaVuSans-119"/>
      <use x="686.332031" xlink:href="#DejaVuSans-101"/>
      <use x="747.855469" xlink:href="#DejaVuSans-101"/>
      <use x="809.378906" xlink:href="#DejaVuSans-116"/>
      <use x="848.587891" xlink:href="#DejaVuSans-115"/>
      <use x="900.6875" xlink:href="#DejaVuSans-32"/>
      <use x="932.474609" xlink:href="#DejaVuSans-47"/>
      <use x="966.166016" xlink:href="#DejaVuSans-32"/>
      <use x="997.953125" xlink:href="#DejaVuSans-84"/>
      <use x="1042.537109" xlink:href="#DejaVuSans-97"/>
      <use x="1103.816406" xlink:href="#DejaVuSans-103"/>
      <use x="1167.292969" xlink:href="#DejaVuSans-41"/>
     </g>
    </g>
   </g>
   <g id="line2d_49">
    <path clip-path="url(#p7858418516)" d="M 71.823047 187.631968 
L 72.082099 190.610463 
L 72.341151 185.855005 
L 72.600203 183.439835 
L 72.859256 184.214873 
L 73.118308 179.302136 
L 73.37736 178.084022 
L 73.636412 171.513749 
L 74.413569 172.860167 
L 74.931674 175.312433 
L 75.449778 175.838662 
L 75.70883 175.838662 
L 77.263144 178.084022 
L 78.558405 196.741314 
L 78.817457 198.211635 
L 80.630823 198.211635 
L 80.889875 199.790965 
L 82.444188 201.496771 
L 83.221345 205.382263 
L 83.480397 205.382263 
L 85.811868 184.214873 
L 86.07092 173.807488 
L 86.329972 173.328564 
L 86.848077 173.807488 
L 87.107129 172.860167 
L 87.366181 173.328564 
L 87.625233 173.328564 
L 87.884286 182.691996 
L 89.438599 201.496771 
L 89.956703 205.382263 
L 100.577845 205.382263 
L 103.42742 203.351089 
L 106.536047 203.351089 
L 107.054151 182.691996 
L 107.572256 181.270723 
L 110.42183 169.443072 
L 110.680883 169.443072 
L 125.187808 169.05203 
L 130.1098 165.166538 
L 130.627905 162.442255 
L 130.886957 169.05203 
L 131.405062 167.920196 
L 131.664114 166.157936 
L 132.182218 179.938339 
L 132.441271 178.684377 
L 132.959375 179.302136 
L 133.218427 180.59412 
L 133.736532 181.270723 
L 133.995584 185.019165 
L 135.031793 180.59412 
L 145.393883 176.931784 
L 147.4663 181.270723 
L 147.725353 182.691996 
L 149.020614 185.019165 
L 149.538718 173.328564 
L 149.797771 173.807488 
L 150.056823 171.953171 
L 150.574927 171.953171 
L 150.83398 172.860167 
L 151.093032 171.953171 
L 151.352084 173.807488 
L 152.647345 179.302136 
L 152.906397 181.270723 
L 153.16545 189.570686 
L 154.719763 186.724971 
L 154.978815 178.684377 
L 155.237868 174.297422 
L 155.755972 178.684377 
L 156.015024 178.684377 
L 156.274077 179.938339 
L 159.123651 179.938339 
L 165.081853 181.969513 
L 165.340905 181.270723 
L 165.599957 185.019165 
L 166.636166 185.019165 
L 167.154271 182.691996 
L 167.413323 179.302136 
L 169.226689 178.084022 
L 170.262897 176.931784 
L 170.781002 181.969513 
L 171.040054 179.938339 
L 171.299106 182.691996 
L 172.594368 179.938339 
L 173.112472 180.59412 
L 173.630577 181.969513 
L 174.148681 188.579288 
L 174.666786 189.570686 
L 174.925838 179.302136 
L 175.702994 171.953171 
L 175.962047 170.661187 
L 176.221099 171.083205 
L 176.998256 171.083205 
L 177.257308 170.247364 
L 177.51636 170.247364 
L 181.920248 178.084022 
L 182.956457 179.302136 
L 183.215509 185.855005 
L 183.474562 185.019165 
L 183.733614 185.019165 
L 183.992666 181.969513 
L 184.251718 172.860167 
L 184.510771 167.920196 
L 189.691815 172.860167 
L 189.950868 174.297422 
L 191.764233 170.661187 
L 192.282338 176.378215 
L 192.54139 182.691996 
L 193.059494 182.691996 
L 195.390965 181.969513 
L 197.722435 187.631968 
L 197.981487 186.724971 
L 198.499591 183.439835 
L 199.794853 191.703585 
L 200.572009 168.290835 
L 200.831062 168.668034 
L 201.349166 161.334931 
L 201.608218 152.784093 
L 201.867271 151.727122 
L 202.126323 151.899683 
L 202.385375 155.889387 
L 203.421584 159.774878 
L 203.680636 157.630044 
L 203.939689 163.018269 
L 204.198741 179.938339 
L 204.716845 185.019165 
L 205.23495 181.969513 
L 205.494002 176.931784 
L 205.753054 181.270723 
L 206.530211 183.439835 
L 206.789263 182.691996 
L 207.048315 176.931784 
L 207.307368 175.838662 
L 208.343577 176.931784 
L 211.452203 182.691996 
L 212.22936 183.439835 
L 221.555241 182.691996 
L 222.59145 183.439835 
L 223.109554 194.073937 
L 223.627659 201.496771 
L 224.404815 188.579288 
L 226.736286 188.579288 
L 226.995338 187.631968 
L 228.808703 188.579288 
L 229.067756 179.302136 
L 229.326808 174.798885 
L 230.103965 180.59412 
L 230.881121 180.59412 
L 231.140174 176.931784 
L 231.658278 177.500117 
L 232.176383 176.378215 
L 232.435435 184.214873 
L 232.694487 184.214873 
L 232.953539 182.691996 
L 233.212591 182.691996 
L 234.2488 187.631968 
L 234.507853 176.378215 
L 236.580271 176.378215 
L 236.839323 180.59412 
L 240.207002 181.969513 
L 240.466054 177.500117 
L 240.984159 173.807488 
L 241.243211 184.214873 
L 242.020368 185.019165 
L 242.27942 178.084022 
L 242.538472 178.684377 
L 242.797524 178.684377 
L 243.315629 185.855005 
L 243.574681 182.691996 
L 245.388047 183.439835 
L 245.647099 192.855822 
L 247.978569 192.855822 
L 248.496674 195.36592 
L 256.009189 201.496771 
L 256.268241 210.137721 
L 258.081606 210.137721 
L 263.003599 205.382263 
L 263.262651 185.855005 
L 263.521703 185.855005 
L 265.853174 178.684377 
L 266.63033 178.684377 
L 267.148435 169.443072 
L 267.666539 169.05203 
L 268.443696 170.247364 
L 268.702748 177.500117 
L 269.220853 175.838662 
L 269.479905 179.938339 
L 269.738957 178.684377 
L 270.257062 195.36592 
L 270.516114 186.724971 
L 270.775166 183.439835 
L 271.552323 183.439835 
L 272.070427 181.270723 
L 272.588532 161.606415 
L 272.847584 160.540633 
L 273.106636 160.027085 
L 273.365689 161.066862 
L 274.142845 162.159984 
L 274.66095 153.896234 
L 274.920002 161.881402 
L 275.179054 152.784093 
L 275.438106 151.217667 
L 275.697159 151.386136 
L 276.215263 150.556801 
L 276.474315 153.519034 
L 278.287681 158.79488 
L 278.546733 173.807488 
L 278.805786 178.084022 
L 279.064838 179.938339 
L 279.32389 168.668034 
L 279.582942 170.247364 
L 279.841994 151.217667 
L 280.101047 144.507446 
L 280.619151 144.507446 
L 280.878203 144.02308 
L 281.137256 147.670455 
L 281.65536 147.670455 
L 281.914412 163.312221 
L 282.173465 185.855005 
L 282.432517 184.214873 
L 282.950621 185.855005 
L 283.209674 185.855005 
L 283.468726 183.439835 
L 283.727778 175.838662 
L 283.98683 173.807488 
L 284.504935 175.838662 
L 284.763987 172.860167 
L 285.023039 164.530336 
L 285.282092 163.312221 
L 285.541144 161.066862 
L 285.800196 165.491907 
L 286.577353 166.845454 
L 286.836405 166.845454 
L 287.095457 168.668034 
L 287.613562 167.920196 
L 287.872614 172.401844 
L 288.131666 174.297422 
L 288.390718 172.860167 
L 288.908823 171.083205 
L 289.167875 171.513749 
L 289.426927 185.855005 
L 289.68598 190.610463 
L 290.204084 182.691996 
L 290.463136 182.691996 
L 292.535554 184.214873 
L 292.794606 183.439835 
L 293.053659 175.838662 
L 293.312711 177.500117 
L 294.607972 173.328564 
L 294.867024 178.084022 
L 295.644181 176.931784 
L 296.162286 178.084022 
L 298.234703 180.59412 
L 298.493756 192.855822 
L 300.048069 181.270723 
L 300.307121 185.855005 
L 300.566174 185.019165 
L 301.861435 179.938339 
L 302.120487 176.378215 
L 302.379539 176.931784 
L 302.897644 176.931784 
L 303.156696 185.855005 
L 303.415748 187.631968 
L 304.192905 188.579288 
L 304.711009 196.741314 
L 306.783427 205.382263 
L 307.04248 182.691996 
L 307.301532 182.691996 
L 307.560584 180.59412 
L 308.596793 180.59412 
L 308.855845 181.969513 
L 311.187315 182.691996 
L 313.777838 203.351089 
L 314.03689 199.790965 
L 314.554994 179.302136 
L 314.814047 176.378215 
L 315.073099 175.312433 
L 316.109308 171.953171 
L 316.36836 171.513749 
L 317.404569 170.247364 
L 321.549405 174.297422 
L 322.067509 172.401844 
L 322.326562 166.845454 
L 322.844666 163.912577 
L 323.103718 165.822319 
L 323.362771 166.157936 
L 328.025711 167.197713 
L 328.802868 167.920196 
L 330.098129 174.297422 
L 332.947703 186.724971 
L 333.206756 117.774595 
L 333.465808 107.758252 
L 333.72486 105.719139 
L 334.242965 105.054941 
L 334.502017 104.37353 
L 334.761069 104.151151 
L 335.538226 148.246469 
L 336.315383 151.555947 
L 336.574435 158.79488 
L 336.833487 157.857973 
L 337.092539 166.157936 
L 337.351592 166.157936 
L 337.610644 169.05203 
L 337.869696 174.798885 
L 338.128748 174.798885 
L 339.164957 175.312433 
L 339.424009 185.855005 
L 339.683062 178.684377 
L 340.201166 157.630044 
L 340.719271 152.425913 
L 340.978323 125.425735 
L 341.237375 121.927271 
L 341.496427 121.341071 
L 341.75548 122.44289 
L 342.014532 123.015925 
L 342.273584 122.882312 
L 342.532636 123.513133 
L 342.791689 145.768832 
L 343.050741 157.630044 
L 343.309793 144.507446 
L 343.568845 123.558915 
L 343.827897 119.257397 
L 344.08695 119.108106 
L 344.346002 118.630009 
L 344.605054 118.448944 
L 344.864106 115.365664 
L 345.123159 118.126854 
L 345.382211 126.981988 
L 345.641263 131.858878 
L 345.900315 130.420152 
L 346.159368 130.357008 
L 346.41842 130.420152 
L 346.677472 137.477255 
L 346.936524 139.124433 
L 347.713681 172.401844 
L 348.74989 181.969513 
L 349.008942 187.631968 
L 349.527047 188.579288 
L 350.045151 191.703585 
L 350.304203 191.703585 
L 350.563256 194.073937 
L 351.08136 157.857973 
L 351.340412 154.087367 
L 352.117569 150.394738 
L 352.376621 143.903689 
L 352.635674 141.646427 
L 352.894726 150.884672 
L 353.41283 149.293545 
L 353.930935 144.263887 
L 354.189987 150.720106 
L 354.449039 152.249055 
L 354.708092 152.425913 
L 354.967144 156.525589 
L 355.226196 158.088367 
L 355.485248 162.159984 
L 355.7443 168.290835 
L 356.262405 165.491907 
L 356.780509 169.443072 
L 357.298614 167.555893 
L 357.557666 166.157936 
L 357.816718 151.386136 
L 358.075771 152.249055 
L 358.334823 149.447417 
L 358.593875 148.688932 
L 358.852927 148.540421 
L 359.11198 147.388183 
L 359.371032 148.392938 
L 359.630084 162.442255 
L 359.889136 162.159984 
L 360.148189 170.247364 
L 360.925345 171.953171 
L 361.184397 173.328564 
L 361.702502 173.328564 
L 361.961554 170.247364 
L 362.220606 170.247364 
L 362.738711 164.846063 
L 362.997763 164.846063 
L 363.256815 163.610285 
L 363.515868 153.519034 
L 364.033972 146.56313 
L 364.293024 146.428674 
L 364.811129 142.40957 
L 365.070181 142.298862 
L 365.588286 150.074263 
L 365.847338 155.475564 
L 366.624495 145.899176 
L 366.883547 147.388183 
L 367.142599 147.388183 
L 367.401651 145.128808 
L 367.660703 145.510511 
L 367.919756 146.56313 
L 368.178808 146.56313 
L 368.43786 156.525589 
L 369.215017 168.290835 
L 369.733121 178.684377 
L 370.251226 164.530336 
L 370.510278 159.279247 
L 371.028383 153.896234 
L 371.805539 153.7068 
L 372.064592 148.540421 
L 372.323644 152.249055 
L 372.582696 148.392938 
L 373.1008 154.474854 
L 373.618905 158.088367 
L 373.877957 158.556764 
L 374.137009 169.443072 
L 374.396062 171.083205 
L 374.655114 201.496771 
L 375.432271 170.661187 
L 375.950375 166.498922 
L 376.209427 166.157936 
L 376.46848 162.442255 
L 376.986584 161.606415 
L 377.245636 161.606415 
L 377.504689 171.953171 
L 377.763741 169.05203 
L 378.281845 161.881402 
L 378.540897 165.491907 
L 379.059002 166.498922 
L 379.318054 165.822319 
L 379.577106 157.404526 
L 379.836159 160.282312 
L 380.354263 147.528852 
L 380.872368 146.428674 
L 381.13142 143.201058 
L 381.390472 147.109602 
L 381.649524 147.248437 
L 381.908577 154.671272 
L 382.167629 165.491907 
L 382.426681 166.845454 
L 382.685733 159.525622 
L 382.944786 164.530336 
L 383.203838 165.822319 
L 384.758151 160.282312 
L 385.017203 162.159984 
L 385.276256 162.159984 
L 385.535308 154.671272 
L 385.79436 159.035687 
L 386.312465 161.881402 
L 386.571517 148.246469 
L 386.830569 149.758535 
L 387.348674 149.758535 
L 387.607726 155.271627 
L 388.384883 155.069624 
L 388.643935 152.073653 
L 389.162039 171.513749 
L 389.421092 174.798885 
L 389.680144 175.312433 
L 390.198248 176.931784 
L 390.4573 159.279247 
L 390.716353 96.620148 
L 390.975405 84.913441 
L 391.493509 81.229478 
L 392.011614 77.015347 
L 392.270666 76.329877 
L 392.788771 91.347937 
L 393.047823 90.36987 
L 393.565927 92.997372 
L 393.82498 93.60678 
L 394.084032 92.543465 
L 394.343084 85.736429 
L 394.602136 84.316408 
L 394.861189 85.222141 
L 395.379293 85.666619 
L 395.379293 85.666619 
" style="fill:none;stroke:#808080;stroke-linecap:square;stroke-width:2;"/>
   </g>
   <g id="line2d_50">
    <path clip-path="url(#p7858418516)" d="M 177.51636 129.552716 
L 177.775412 126.189659 
L 178.034465 125.728026 
L 178.293517 125.931963 
L 178.552569 134.598542 
L 179.070674 142.858243 
L 179.588778 139.605519 
L 180.106883 148.688932 
L 180.365935 148.392938 
L 180.624987 145.768832 
L 180.884039 145.382516 
L 181.143091 144.263887 
L 181.402144 148.246469 
L 181.661196 146.56313 
L 181.920248 146.834614 
L 182.1793 147.388183 
L 182.438353 150.394738 
L 182.956457 152.965466 
L 183.215509 151.727122 
L 183.733614 146.56313 
L 183.992666 140.398586 
L 184.251718 126.874627 
L 184.510771 122.269627 
L 184.769823 121.423833 
L 185.028875 121.927271 
L 185.287927 121.884861 
L 185.54698 120.851137 
L 185.806032 120.932015 
L 186.324136 135.542366 
L 186.583189 137.127883 
L 186.842241 137.743094 
L 187.360345 147.248437 
L 187.619397 154.474854 
L 187.87845 158.088367 
L 188.137502 159.279247 
L 188.914659 157.404526 
L 189.173711 150.556801 
L 189.691815 144.630278 
L 189.950868 144.507446 
L 190.20992 143.201058 
L 190.468972 139.703054 
L 190.728024 137.743094 
L 190.987077 139.219786 
L 191.505181 127.362071 
L 191.764233 124.931253 
L 192.023286 124.736629 
L 192.282338 125.029236 
L 192.54139 126.293616 
L 192.800442 126.13787 
L 193.059494 130.106285 
L 193.577599 144.878085 
L 194.095703 145.003078 
L 194.613808 141.861694 
L 195.390965 148.246469 
L 195.650017 148.100999 
L 195.909069 150.233898 
L 196.168121 156.311404 
L 196.686226 160.802123 
L 196.945278 157.630044 
L 197.20433 151.050519 
L 197.722435 146.295061 
L 197.981487 147.956516 
L 198.499591 141.22231 
L 198.758644 144.263887 
L 199.017696 148.838485 
L 199.5358 154.474854 
L 199.794853 151.899683 
L 200.053905 152.60425 
L 200.572009 140.197535 
L 201.349166 138.193665 
L 201.608218 130.997032 
L 201.867271 129.371343 
L 202.126323 124.116102 
L 202.385375 125.47582 
L 202.644427 127.527062 
L 202.90348 127.307356 
L 203.162532 123.835687 
L 203.421584 127.307356 
L 203.680636 126.767804 
L 203.939689 133.991776 
L 204.198741 136.362129 
L 204.457793 137.301853 
L 204.716845 130.483484 
L 204.975897 132.062814 
L 205.23495 129.613518 
L 205.494002 129.131889 
L 206.012106 126.345786 
L 206.271159 125.983253 
L 206.530211 132.062814 
L 207.307368 143.432704 
L 207.56642 146.971664 
L 207.825472 152.425913 
L 208.084524 155.069624 
L 208.343577 156.099351 
L 208.602629 160.802123 
L 208.861681 168.668034 
L 209.120733 160.282312 
L 209.379786 155.681471 
L 209.638838 156.525589 
L 209.89789 156.099351 
L 210.156942 156.741948 
L 210.415994 155.681471 
L 210.675047 155.271627 
L 210.934099 165.491907 
L 211.711256 145.003078 
L 211.970308 144.143143 
L 212.22936 144.143143 
L 212.488412 141.22231 
L 212.747465 141.013375 
L 213.524621 165.822319 
L 213.783674 165.822319 
L 214.042726 167.920196 
L 214.301778 174.297422 
L 214.56083 174.297422 
L 214.819883 172.401844 
L 215.078935 172.401844 
L 215.337987 172.860167 
L 216.115144 173.807488 
L 216.374196 173.807488 
L 217.410405 184.214873 
L 218.187562 192.855822 
L 218.446614 181.270723 
L 218.705666 181.270723 
L 218.964718 184.214873 
L 219.482823 179.302136 
L 219.741875 179.938339 
L 220.000927 175.838662 
L 220.25998 169.841424 
L 220.519032 171.513749 
L 220.778084 167.555893 
L 221.037136 166.157936 
L 221.296189 163.312221 
L 221.555241 156.960527 
L 221.814293 154.671272 
L 222.073345 157.404526 
L 222.332397 158.556764 
L 223.368606 160.802123 
L 223.627659 160.027085 
L 223.886711 163.312221 
L 224.145763 171.513749 
L 224.404815 169.443072 
L 224.663868 165.491907 
L 224.92292 165.166538 
L 225.700077 160.027085 
L 225.959129 150.074263 
L 226.218181 149.758535 
L 226.736286 152.784093 
L 226.995338 152.965466 
L 227.513442 154.28023 
L 228.031547 176.378215 
L 228.290599 176.931784 
L 228.549651 171.083205 
L 229.067756 154.087367 
L 229.326808 151.727122 
L 229.58586 152.073653 
L 230.103965 151.050519 
L 230.622069 146.030323 
L 230.881121 148.392938 
L 231.140174 146.971664 
L 231.399226 146.428674 
L 231.658278 146.295061 
L 231.91733 145.63928 
L 232.176383 143.316566 
L 232.953539 132.969811 
L 233.471644 129.735646 
L 233.730696 130.231277 
L 233.989748 129.311227 
L 234.2488 130.547005 
L 234.507853 133.401809 
L 234.766905 134.445223 
L 235.025957 137.041428 
L 235.544062 139.124433 
L 235.803114 137.743094 
L 236.321218 142.520856 
L 236.580271 140.297823 
L 236.839323 140.398586 
L 237.61648 144.02308 
L 237.875532 142.632726 
L 238.134584 139.124433 
L 238.652689 147.670455 
L 238.911741 147.670455 
L 239.170793 147.813005 
L 239.429845 148.540421 
L 239.688897 151.727122 
L 239.94795 160.027085 
L 240.207002 160.282312 
L 240.466054 157.18137 
L 240.725106 158.321278 
L 240.984159 156.311404 
L 241.243211 148.989094 
L 241.761315 152.784093 
L 242.538472 149.602409 
L 242.797524 149.602409 
L 243.056577 154.28023 
L 243.315629 153.896234 
L 243.574681 155.681471 
L 243.833733 160.540633 
L 244.092786 170.661187 
L 244.351838 170.661187 
L 244.869942 169.05203 
L 245.128994 170.247364 
L 245.647099 159.279247 
L 245.906151 156.311404 
L 246.165203 157.18137 
L 246.94236 145.128808 
L 247.201412 144.507446 
L 247.460465 146.834614 
L 247.719517 147.528852 
L 247.978569 145.899176 
L 248.237621 147.528852 
L 248.496674 150.074263 
L 249.014778 157.18137 
L 249.27383 156.099351 
L 249.532883 153.896234 
L 249.791935 153.148395 
L 250.310039 158.321278 
L 250.828144 145.128808 
L 251.087196 143.086173 
L 251.6053 144.507446 
L 251.864353 143.549478 
L 252.123405 143.666895 
L 252.382457 150.233898 
L 252.900562 168.290835 
L 253.418666 179.302136 
L 253.677718 184.214873 
L 253.936771 194.073937 
L 254.195823 190.610463 
L 254.454875 190.610463 
L 254.713927 189.570686 
L 254.97298 185.855005 
L 255.232032 187.631968 
L 255.491084 190.610463 
L 255.750136 176.378215 
L 256.009189 174.297422 
L 256.268241 173.328564 
L 256.527293 161.881402 
L 256.786345 156.741948 
L 257.30445 153.148395 
L 257.822554 141.433313 
L 258.081606 126.034668 
L 258.340659 122.83796 
L 258.599711 123.195389 
L 259.117815 122.661468 
L 259.63592 124.833719 
L 260.154024 147.388183 
L 260.413077 146.295061 
L 260.931181 148.688932 
L 261.190233 151.555947 
L 261.708338 161.334931 
L 262.226442 157.630044 
L 262.485494 162.159984 
L 262.744547 163.610285 
L 263.003599 162.442255 
L 263.262651 163.018269 
L 263.780756 157.404526 
L 264.039808 158.79488 
L 264.29886 158.321278 
L 264.557912 159.279247 
L 264.816965 156.311404 
L 265.076017 149.140776 
L 265.335069 136.195634 
L 265.594121 135.462098 
L 265.853174 132.476637 
L 266.112226 132.062814 
L 266.371278 131.258522 
L 266.63033 131.723996 
L 266.889383 133.112839 
L 267.148435 141.646427 
L 267.407487 142.632726 
L 267.666539 148.838485 
L 267.925592 151.217667 
L 268.443696 151.217667 
L 268.702748 148.989094 
L 268.9618 151.386136 
L 269.220853 158.321278 
L 269.479905 160.282312 
L 269.738957 161.334931 
L 269.998009 160.802123 
L 270.257062 159.525622 
L 270.775166 166.498922 
L 271.034218 162.159984 
L 271.293271 151.899683 
L 271.552323 150.394738 
L 272.070427 146.69844 
L 272.32948 147.670455 
L 272.847584 140.806468 
L 273.106636 141.753789 
L 273.365689 147.388183 
L 273.624741 148.838485 
L 274.142845 149.293545 
L 274.401897 153.332909 
L 274.66095 154.671272 
L 274.920002 151.899683 
L 275.179054 147.528852 
L 275.438106 146.69844 
L 275.697159 149.915814 
L 275.956211 150.720106 
L 276.215263 153.7068 
L 276.474315 152.60425 
L 276.733368 156.741948 
L 276.99242 157.18137 
L 277.251472 158.79488 
L 277.510524 153.148395 
L 277.769577 151.386136 
L 278.028629 148.838485 
L 278.546733 139.801036 
L 278.805786 141.32755 
L 279.064838 139.998364 
L 279.32389 141.22231 
L 279.582942 141.22231 
L 279.841994 142.298862 
L 280.619151 155.681471 
L 280.878203 158.088367 
L 281.396308 164.530336 
L 281.65536 165.491907 
L 281.914412 169.443072 
L 282.432517 161.066862 
L 282.950621 158.556764 
L 283.209674 158.79488 
L 283.468726 156.525589 
L 283.727778 155.271627 
L 283.98683 158.321278 
L 284.245883 163.610285 
L 284.504935 163.312221 
L 284.763987 162.728316 
L 285.282092 160.027085 
L 285.541144 161.334931 
L 285.800196 147.388183 
L 286.059248 146.295061 
L 286.3183 147.388183 
L 286.577353 146.834614 
L 286.836405 146.56313 
L 287.354509 151.386136 
L 287.613562 172.401844 
L 287.872614 173.807488 
L 288.390718 171.083205 
L 288.908823 179.938339 
L 289.167875 179.938339 
L 289.426927 171.083205 
L 289.68598 167.920196 
L 289.945032 168.290835 
L 290.722189 161.881402 
L 290.981241 161.334931 
L 291.240293 166.498922 
L 291.499345 167.555893 
L 291.758397 167.920196 
L 292.276502 174.297422 
L 292.535554 175.838662 
L 292.794606 176.378215 
L 293.053659 169.841424 
L 293.312711 171.953171 
L 294.089868 169.841424 
L 294.34892 160.802123 
L 294.607972 158.79488 
L 294.867024 157.857973 
L 295.126077 156.311404 
L 295.385129 159.035687 
L 295.644181 156.311404 
L 295.903233 140.703763 
L 296.162286 139.029506 
L 296.421338 140.398586 
L 296.68039 139.029506 
L 296.939442 139.899472 
L 297.198494 139.508429 
L 297.457547 138.84091 
L 297.716599 149.140776 
L 297.975651 153.148395 
L 298.234703 151.386136 
L 298.493756 155.069624 
L 298.752808 154.087367 
L 299.270912 153.7068 
L 299.789017 160.540633 
L 300.048069 155.271627 
L 300.307121 156.099351 
L 300.566174 149.758535 
L 300.825226 147.670455 
L 301.084278 148.246469 
L 301.602383 142.40957 
L 301.861435 144.753821 
L 302.120487 144.630278 
L 302.379539 148.392938 
L 302.897644 149.447417 
L 303.415748 142.188726 
L 303.933853 147.813005 
L 304.451957 149.447417 
L 304.711009 149.447417 
L 304.970062 154.087367 
L 305.229114 160.802123 
L 305.488166 160.802123 
L 306.006271 164.219218 
L 306.265323 163.018269 
L 306.783427 158.556764 
L 307.04248 152.425913 
L 307.301532 152.425913 
L 307.560584 151.217667 
L 307.819636 150.556801 
L 308.337741 151.386136 
L 308.596793 154.869517 
L 308.855845 156.741948 
L 309.114897 169.443072 
L 309.633002 175.312433 
L 310.151106 176.378215 
L 310.410159 174.297422 
L 310.669211 161.334931 
L 310.928263 161.066862 
L 311.187315 161.066862 
L 311.446368 161.881402 
L 311.964472 162.728316 
L 312.223524 162.728316 
L 312.482577 163.018269 
L 312.741629 178.084022 
L 313.000681 185.855005 
L 313.259733 189.570686 
L 313.777838 186.724971 
L 314.03689 183.439835 
L 314.295942 170.661187 
L 314.554994 165.491907 
L 315.073099 164.219218 
L 315.591203 159.774878 
L 315.850256 160.027085 
L 316.109308 159.525622 
L 316.627412 173.807488 
L 317.145517 175.312433 
L 317.404569 173.807488 
L 318.181726 179.302136 
L 318.440778 181.969513 
L 318.958883 185.855005 
L 319.217935 184.214873 
L 319.476987 163.912577 
L 319.995092 158.556764 
L 320.513196 157.404526 
L 320.772248 157.630044 
L 321.290353 156.099351 
L 321.549405 162.159984 
L 321.808457 163.912577 
L 322.326562 171.083205 
L 322.585614 171.083205 
L 322.844666 169.841424 
L 323.103718 164.846063 
L 323.362771 166.157936 
L 323.880875 167.555893 
L 324.139927 169.05203 
L 324.39898 169.841424 
L 324.658032 167.555893 
L 324.917084 163.912577 
L 325.435189 167.197713 
L 325.694241 167.920196 
L 325.953293 167.555893 
L 326.471397 166.157936 
L 326.73045 167.197713 
L 327.248554 176.931784 
L 327.507606 168.290835 
L 327.766659 167.197713 
L 328.025711 165.491907 
L 328.284763 161.334931 
L 328.543815 161.334931 
L 328.802868 161.066862 
L 329.06192 158.556764 
L 329.580024 155.271627 
L 329.839077 155.889387 
L 330.098129 159.774878 
L 330.357181 161.066862 
L 330.616233 161.334931 
L 330.875286 165.491907 
L 331.39339 182.691996 
L 331.652442 181.270723 
L 331.911495 177.500117 
L 332.947703 173.328564 
L 333.206756 146.162281 
L 333.465808 137.301853 
L 333.72486 134.598542 
L 333.983912 134.830608 
L 334.242965 134.830608 
L 334.502017 134.986735 
L 334.761069 135.462098 
L 335.020121 146.69844 
L 335.538226 159.525622 
L 335.797278 175.312433 
L 336.315383 176.931784 
L 336.574435 176.931784 
L 337.092539 176.378215 
L 337.351592 164.219218 
L 337.610644 161.066862 
L 337.869696 164.530336 
L 338.128748 165.166538 
L 338.3878 166.498922 
L 338.646853 166.157936 
L 338.905905 166.845454 
L 339.164957 161.066862 
L 339.424009 161.606415 
L 339.942114 140.097717 
L 340.201166 136.278719 
L 340.460218 136.195634 
L 340.719271 135.38213 
L 340.978323 137.127883 
L 341.237375 134.066684 
L 341.496427 133.842746 
L 341.75548 139.508429 
L 342.014532 140.90967 
L 342.273584 140.90967 
L 342.532636 141.22231 
L 342.791689 143.666895 
L 343.050741 149.447417 
L 343.309793 147.813005 
L 343.568845 139.41178 
L 343.827897 138.84091 
L 344.08695 138.653968 
L 344.346002 139.029506 
L 344.864106 136.529934 
L 345.382211 143.316566 
L 345.641263 144.753821 
L 345.900315 143.903689 
L 346.159368 143.666895 
L 346.41842 144.630278 
L 346.677472 147.528852 
L 346.936524 152.249055 
L 347.195577 163.312221 
L 348.231786 167.920196 
L 348.490838 170.661187 
L 348.74989 169.443072 
L 349.008942 171.083205 
L 349.527047 170.661187 
L 349.786099 172.401844 
L 350.045151 169.841424 
L 350.304203 171.083205 
L 350.563256 163.312221 
L 351.08136 154.474854 
L 351.340412 153.519034 
L 351.599465 150.394738 
L 351.858517 149.293545 
L 352.117569 143.086173 
L 352.376621 142.40957 
L 352.635674 142.298862 
L 353.153778 137.83245 
L 353.41283 138.934999 
L 353.671883 136.784146 
L 353.930935 139.124433 
L 354.189987 137.743094 
L 354.449039 137.127883 
L 354.967144 144.143143 
L 355.226196 143.903689 
L 355.485248 148.688932 
L 356.003353 148.100999 
L 356.262405 145.003078 
L 356.521457 143.784963 
L 356.780509 143.432704 
L 357.039562 141.646427 
L 357.298614 136.03043 
L 357.557666 133.694751 
L 357.816718 133.256835 
L 358.075771 139.029506 
L 358.334823 141.861694 
L 358.593875 142.971903 
L 358.852927 144.753821 
L 359.11198 151.727122 
L 359.371032 155.069624 
L 359.630084 160.540633 
L 360.148189 156.525589 
L 360.407241 159.035687 
L 360.666293 159.035687 
L 360.925345 153.332909 
L 361.44345 156.960527 
L 361.702502 156.311404 
L 362.220606 144.263887 
L 362.479659 143.903689 
L 362.738711 146.69844 
L 362.997763 145.128808 
L 363.256815 144.507446 
L 363.515868 142.520856 
L 364.293024 152.249055 
L 364.552077 150.394738 
L 364.811129 152.425913 
L 365.070181 145.003078 
L 365.329233 144.02308 
L 365.588286 144.385319 
L 365.847338 146.030323 
L 366.10639 145.899176 
L 366.624495 148.100999 
L 366.883547 146.428674 
L 367.142599 151.217667 
L 367.401651 153.896234 
L 367.660703 153.7068 
L 367.919756 154.28023 
L 368.178808 151.217667 
L 368.43786 142.188726 
L 368.696912 142.298862 
L 368.955965 142.858243 
L 369.215017 145.382516 
L 369.474069 146.56313 
L 369.733121 146.162281 
L 369.992174 146.295061 
L 370.251226 156.311404 
L 370.510278 151.050519 
L 370.76933 152.784093 
L 371.028383 151.727122 
L 371.287435 152.60425 
L 371.546487 148.688932 
L 371.805539 150.233898 
L 372.064592 149.140776 
L 372.323644 158.088367 
L 372.582696 151.727122 
L 373.1008 153.7068 
L 373.877957 154.671272 
L 374.137009 152.60425 
L 374.396062 153.519034 
L 374.655114 153.148395 
L 374.914166 163.610285 
L 375.173218 163.912577 
L 375.432271 155.069624 
L 375.950375 158.556764 
L 376.209427 159.035687 
L 376.46848 156.525589 
L 376.727532 156.960527 
L 376.986584 155.069624 
L 377.504689 159.525622 
L 377.763741 160.027085 
L 379.059002 165.822319 
L 379.318054 165.491907 
L 379.577106 168.290835 
L 379.836159 178.684377 
L 380.095211 179.938339 
L 380.354263 174.798885 
L 380.613315 174.798885 
L 380.872368 172.860167 
L 381.390472 171.083205 
L 381.649524 168.668034 
L 381.908577 165.166538 
L 382.167629 171.083205 
L 383.203838 158.088367 
L 383.46289 158.088367 
L 383.721942 158.556764 
L 383.980995 157.857973 
L 384.499099 160.282312 
L 384.758151 155.475564 
L 385.017203 160.540633 
L 385.276256 161.881402 
L 385.535308 161.334931 
L 385.79436 149.758535 
L 386.053412 148.989094 
L 386.312465 149.140776 
L 386.571517 147.956516 
L 387.089621 146.971664 
L 387.348674 142.079157 
L 387.607726 148.392938 
L 387.866778 150.556801 
L 388.12583 150.720106 
L 388.643935 155.271627 
L 388.902987 156.311404 
L 389.162039 167.555893 
L 389.421092 167.555893 
L 389.680144 162.442255 
L 389.939196 160.540633 
L 390.198248 165.166538 
L 390.4573 164.530336 
L 390.716353 151.727122 
L 391.752562 131.79133 
L 392.011614 130.802998 
L 392.270666 130.29405 
L 392.788771 137.301853 
L 393.047823 135.144014 
L 393.306875 138.102786 
L 393.565927 146.428674 
L 394.084032 140.601551 
L 394.343084 132.898655 
L 394.602136 131.723996 
L 394.861189 135.948306 
L 395.120241 136.699072 
L 395.379293 135.223091 
L 395.379293 135.223091 
" style="fill:none;stroke:#ffc996;stroke-linecap:square;stroke-width:2;"/>
   </g>
   <g id="line2d_51">
    <path clip-path="url(#p7858418516)" d="M 263.262651 212.983435 
L 323.103718 212.983435 
L 325.176136 210.137721 
L 332.947703 210.137721 
L 333.206756 101.259397 
L 333.465808 90.168048 
L 333.72486 86.746703 
L 333.983912 86.199819 
L 334.242965 85.994371 
L 334.761069 85.2829 
L 335.279174 115.711684 
L 335.538226 131.994618 
L 335.797278 135.703815 
L 336.05633 135.785001 
L 336.574435 142.40957 
L 336.833487 149.915814 
L 337.351592 154.869517 
L 337.610644 158.556764 
L 338.128748 167.920196 
L 338.3878 170.661187 
L 338.646853 175.312433 
L 339.164957 168.290835 
L 339.424009 168.290835 
L 340.460218 145.255284 
L 340.719271 142.520856 
L 340.978323 117.325194 
L 341.237375 110.257435 
L 341.496427 107.605951 
L 341.75548 107.541011 
L 342.014532 105.758861 
L 342.273584 105.758861 
L 342.532636 106.099527 
L 343.050741 128.371738 
L 343.568845 106.404705 
L 343.827897 105.443134 
L 344.346002 105.054941 
L 344.605054 103.749385 
L 344.864106 101.567438 
L 345.641263 121.842535 
L 345.900315 120.851137 
L 346.159368 120.61033 
L 346.41842 123.015925 
L 346.677472 130.044062 
L 346.936524 132.476637 
L 347.972733 169.443072 
L 348.490838 179.938339 
L 348.74989 179.938339 
L 349.008942 166.845454 
L 349.786099 166.845454 
L 350.045151 157.404526 
L 350.563256 155.271627 
L 350.822308 151.555947 
L 351.08136 140.197535 
L 351.340412 137.5655 
L 351.599465 137.041428 
L 351.858517 138.84091 
L 352.117569 137.301853 
L 352.376621 127.089893 
L 352.635674 124.88243 
L 352.894726 127.198348 
L 353.153778 126.767804 
L 353.41283 125.983253 
L 353.671883 125.576345 
L 353.930935 123.882168 
L 354.449039 136.869562 
L 354.708092 135.065229 
L 354.967144 138.012292 
L 355.226196 139.605519 
L 355.7443 141.117586 
L 356.003353 139.899472 
L 356.262405 136.529934 
L 356.521457 135.462098 
L 356.780509 135.703815 
L 357.039562 135.703815 
L 357.557666 137.5655 
L 357.816718 134.521745 
L 358.334823 140.398586 
L 358.593875 134.293 
L 358.852927 134.217294 
L 359.11198 133.112839 
L 359.630084 135.785001 
L 359.889136 135.703815 
L 360.148189 139.508429 
L 360.407241 147.813005 
L 360.666293 147.528852 
L 360.925345 147.813005 
L 361.184397 148.989094 
L 361.44345 156.741948 
L 361.702502 153.332909 
L 361.961554 139.605519 
L 362.220606 136.955322 
L 362.997763 136.03043 
L 363.256815 135.065229 
L 363.515868 131.456767 
L 363.77492 130.483484 
L 364.033972 131.390481 
L 364.293024 131.656874 
L 364.552077 130.168689 
L 364.811129 130.231277 
L 365.070181 128.257161 
L 365.329233 131.79133 
L 365.588286 141.013375 
L 366.10639 142.40957 
L 366.365442 147.248437 
L 366.624495 142.298862 
L 366.883547 140.703763 
L 367.142599 137.83245 
L 367.401651 128.836305 
L 367.660703 128.257161 
L 367.919756 128.314372 
L 368.43786 126.086206 
L 368.696912 127.252782 
L 368.955965 129.311227 
L 369.215017 139.315566 
L 369.474069 141.013375 
L 369.992174 135.785001 
L 370.251226 136.278719 
L 370.510278 141.433313 
L 370.76933 140.90967 
L 371.028383 141.013375 
L 371.287435 137.041428 
L 371.546487 136.445866 
L 371.805539 137.5655 
L 372.064592 135.785001 
L 372.323644 136.03043 
L 372.582696 136.112872 
L 373.1008 138.284934 
L 373.359853 142.40957 
L 373.618905 142.745186 
L 374.137009 145.899176 
L 374.396062 146.162281 
L 374.655114 142.971903 
L 375.173218 141.013375 
L 375.432271 134.675617 
L 375.691323 136.195634 
L 376.209427 136.699072 
L 376.46848 139.605519 
L 376.727532 138.561109 
L 376.986584 138.102786 
L 377.245636 144.263887 
L 377.504689 134.293 
L 377.763741 132.757051 
L 378.022793 132.407106 
L 378.281845 132.546395 
L 378.540897 133.547777 
L 378.79995 135.302462 
L 379.059002 136.278719 
L 379.318054 141.861694 
L 379.577106 142.971903 
L 379.836159 143.086173 
L 380.095211 142.632726 
L 380.354263 118.091365 
L 380.613315 117.222818 
L 380.872368 114.963845 
L 381.13142 115.179267 
L 381.390472 114.902694 
L 381.649524 114.035171 
L 381.908577 115.272262 
L 382.167629 134.675617 
L 382.426681 136.614335 
L 382.685733 137.654112 
L 382.944786 139.508429 
L 383.203838 143.432704 
L 383.46289 150.394738 
L 383.721942 148.838485 
L 384.240047 144.263887 
L 384.499099 152.073653 
L 384.758151 144.143143 
L 385.017203 143.316566 
L 385.276256 138.747234 
L 385.79436 126.55575 
L 386.053412 126.450509 
L 386.312465 126.189659 
L 386.830569 122.573768 
L 387.089621 122.749531 
L 387.348674 121.465335 
L 387.607726 125.829751 
L 387.866778 126.398083 
L 388.12583 125.677346 
L 388.384883 126.086206 
L 388.643935 129.072443 
L 388.902987 129.431629 
L 389.162039 132.757051 
L 389.939196 122.530052 
L 390.198248 125.778828 
L 390.4573 123.28569 
L 390.716353 105.462731 
L 390.975405 101.534803 
L 391.234457 101.7973 
L 391.493509 100.844956 
L 391.752562 98.613808 
L 392.011614 97.722812 
L 392.270666 98.275304 
L 392.788771 115.241218 
L 393.047823 115.30335 
L 393.82498 131.324399 
L 394.084032 130.932157 
L 394.602136 132.337801 
L 394.861189 135.542366 
L 395.120241 135.065229 
L 395.379293 132.407106 
L 395.379293 132.407106 
" style="fill:none;stroke:#ff8474;stroke-linecap:square;stroke-width:2;"/>
   </g>
   <g id="line2d_52">
    <path clip-path="url(#p7858418516)" d="M 258.081606 212.983435 
L 342.014532 212.983435 
L 343.050741 210.137721 
L 343.309793 142.745186 
L 343.568845 104.654809 
L 343.827897 96.828318 
L 344.346002 95.894644 
L 344.864106 93.194903 
L 345.123159 94.844739 
L 345.641263 118.886112 
L 345.900315 116.063414 
L 346.159368 115.21022 
L 346.677472 121.465335 
L 346.936524 122.226531 
L 347.713681 144.507446 
L 348.231786 157.857973 
L 348.490838 159.035687 
L 348.74989 162.159984 
L 349.008942 156.741948 
L 349.267995 156.525589 
L 349.527047 159.774878 
L 349.786099 160.027085 
L 350.304203 142.971903 
L 350.822308 135.144014 
L 351.08136 126.981988 
L 351.599465 124.88243 
L 351.858517 125.226563 
L 352.117569 125.880796 
L 352.376621 120.097732 
L 352.635674 118.666407 
L 352.894726 120.530662 
L 353.153778 118.739391 
L 353.41283 118.269405 
L 353.671883 117.462464 
L 353.930935 117.291014 
L 354.189987 121.548582 
L 354.449039 122.661468 
L 354.708092 121.506918 
L 354.967144 124.639979 
L 355.226196 125.880796 
L 355.485248 127.860925 
L 355.7443 126.13787 
L 356.003353 125.778828 
L 356.262405 124.352633 
L 356.521457 124.931253 
L 357.039562 122.012346 
L 357.298614 119.294884 
L 357.557666 119.826742 
L 357.816718 118.305192 
L 358.334823 123.060649 
L 358.593875 120.851137 
L 358.852927 121.674066 
L 359.11198 125.276182 
L 359.371032 124.163199 
L 359.889136 123.789308 
L 360.148189 124.785119 
L 360.407241 129.674494 
L 360.666293 130.168689 
L 360.925345 128.954047 
L 361.184397 132.131229 
L 361.44345 139.605519 
L 361.702502 138.653968 
L 362.220606 127.416926 
L 362.479659 126.821148 
L 362.738711 127.637769 
L 363.515868 122.882312 
L 363.77492 122.617573 
L 364.033972 124.257705 
L 364.293024 124.931253 
L 364.552077 120.730393 
L 365.070181 121.135562 
L 365.329233 123.015925 
L 365.847338 129.311227 
L 366.10639 129.796973 
L 366.365442 138.934999 
L 366.624495 142.298862 
L 366.883547 136.614335 
L 367.660703 129.013163 
L 367.919756 128.836305 
L 368.43786 124.069109 
L 368.696912 128.371738 
L 369.215017 130.168689 
L 369.474069 132.062814 
L 369.733121 131.456767 
L 369.992174 131.723996 
L 370.251226 134.908529 
L 370.510278 130.932157 
L 370.76933 129.431629 
L 371.028383 131.79133 
L 371.287435 129.013163 
L 372.064592 124.2104 
L 372.323644 126.189659 
L 372.582696 126.661513 
L 372.841748 127.582344 
L 373.618905 137.301853 
L 374.137009 127.471923 
L 374.396062 128.719211 
L 374.655114 124.400256 
L 374.914166 123.195389 
L 375.173218 121.094696 
L 375.432271 117.80956 
L 375.691323 120.650276 
L 375.950375 125.029236 
L 376.209427 124.400256 
L 376.986584 127.69334 
L 377.245636 131.994618 
L 377.504689 128.719211 
L 377.763741 127.035872 
L 378.281845 133.694751 
L 378.540897 134.675617 
L 379.059002 140.398586 
L 379.318054 146.834614 
L 379.577106 148.246469 
L 380.095211 138.376595 
L 380.354263 120.730393 
L 380.613315 117.256888 
L 380.872368 116.453859 
L 381.13142 117.256888 
L 381.390472 115.396889 
L 381.649524 115.459477 
L 381.908577 117.222818 
L 382.167629 130.997032 
L 382.944786 134.368976 
L 383.203838 133.76862 
L 383.46289 142.858243 
L 383.721942 144.753821 
L 383.980995 144.878085 
L 384.240047 144.263887 
L 384.499099 150.556801 
L 384.758151 146.162281 
L 385.017203 148.392938 
L 385.276256 147.388183 
L 385.535308 144.263887 
L 385.79436 137.477255 
L 386.053412 136.614335 
L 386.312465 135.065229 
L 386.571517 127.471923 
L 386.830569 126.821148 
L 387.089621 124.495822 
L 387.348674 118.412915 
L 387.607726 120.332785 
L 387.866778 120.136728 
L 388.12583 118.922951 
L 388.384883 123.789308 
L 388.902987 125.375767 
L 389.162039 134.752972 
L 389.421092 133.991776 
L 389.680144 131.79133 
L 390.198248 135.622938 
L 390.4573 131.79133 
L 390.716353 106.797645 
L 390.975405 100.703352 
L 391.234457 99.722649 
L 391.493509 99.439984 
L 392.011614 97.969663 
L 392.270666 98.528677 
L 392.788771 126.608566 
L 393.306875 135.223091 
L 393.82498 149.447417 
L 394.084032 151.050519 
L 394.343084 145.382516 
L 394.602136 143.666895 
L 394.861189 146.162281 
L 395.120241 147.388183 
L 395.379293 145.128808 
L 395.379293 145.128808 
" style="fill:none;stroke:#9f5f80;stroke-linecap:square;stroke-width:2;"/>
   </g>
   <g id="line2d_53">
    <path clip-path="url(#p7858418516)" d="M 228.808703 212.983435 
L 242.020368 212.983435 
L 266.371278 212.983435 
L 285.800196 212.983435 
L 294.089868 212.983435 
L 295.903233 212.983435 
L 297.716599 212.983435 
L 299.529965 212.983435 
L 299.789017 212.983435 
L 321.549405 212.983435 
L 333.206756 212.983435 
L 333.465808 210.137721 
L 339.164957 207.627623 
L 343.050741 207.627623 
L 343.568845 207.627623 
L 343.827897 207.627623 
L 344.864106 207.627623 
L 345.900315 207.627623 
L 348.231786 210.137721 
L 351.340412 212.983435 
L 351.858517 212.983435 
L 352.376621 212.983435 
L 355.7443 212.983435 
L 361.44345 212.983435 
L 361.961554 212.983435 
L 362.220606 212.983435 
L 363.515868 212.983435 
L 364.811129 210.137721 
L 366.624495 210.137721 
L 367.142599 205.382263 
L 368.178808 203.351089 
L 369.215017 203.351089 
L 369.992174 201.496771 
L 371.287435 201.496771 
L 373.877957 203.351089 
L 375.173218 203.351089 
L 375.950375 207.627623 
L 376.209427 207.627623 
L 376.727532 207.627623 
L 377.504689 210.137721 
L 377.763741 210.137721 
L 378.540897 210.137721 
L 379.318054 210.137721 
L 381.649524 210.137721 
L 381.908577 212.983435 
L 382.167629 212.983435 
L 382.426681 212.983435 
L 384.499099 212.983435 
L 385.017203 210.137721 
L 385.276256 210.137721 
L 385.535308 207.627623 
L 385.79436 207.627623 
L 386.053412 205.382263 
L 386.571517 201.496771 
L 386.830569 201.496771 
L 387.089621 203.351089 
L 387.348674 203.351089 
L 387.607726 205.382263 
L 387.866778 205.382263 
L 388.384883 196.741314 
L 388.643935 199.790965 
L 388.902987 198.211635 
L 389.162039 195.36592 
L 389.939196 195.36592 
L 390.198248 191.703585 
L 390.4573 181.969513 
L 390.716353 61.440975 
L 390.975405 45.07778 
L 391.234457 42.164149 
L 391.493509 39.413174 
L 391.752562 36.849719 
L 392.011614 35.219399 
L 392.270666 33.8529 
L 392.529718 37.93649 
L 392.788771 45.651535 
L 393.047823 47.196181 
L 393.306875 49.915833 
L 393.565927 52.105003 
L 393.82498 52.72479 
L 394.084032 53.035714 
L 394.343084 45.151697 
L 394.602136 41.91819 
L 394.861189 41.322198 
L 395.120241 40.75842 
L 395.379293 40.282697 
" style="fill:none;stroke:#583d72;stroke-linecap:square;stroke-width:2;"/>
   </g>
   <g id="patch_3">
    <path d="M 55.645234 221.939962 
L 55.645234 16.7 
" style="fill:none;stroke:#000000;stroke-linecap:square;stroke-linejoin:miter;stroke-width:0.8;"/>
   </g>
   <g id="patch_4">
    <path d="M 55.645234 221.939962 
L 411.557105 221.939962 
" style="fill:none;stroke:#000000;stroke-linecap:square;stroke-linejoin:miter;stroke-width:0.8;"/>
   </g>
   <g id="text_15">
    <!-- #WissZeitVG -->
    <g style="fill:#808080;" transform="translate(65.346741 158.321278)scale(0.12 -0.12)">
     <defs>
      <path d="M 51.125 44 
L 36.921875 44 
L 32.8125 27.6875 
L 47.125 27.6875 
z
M 43.796875 71.78125 
L 38.71875 51.515625 
L 52.984375 51.515625 
L 58.109375 71.78125 
L 65.921875 71.78125 
L 60.890625 51.515625 
L 76.125 51.515625 
L 76.125 44 
L 58.984375 44 
L 54.984375 27.6875 
L 70.515625 27.6875 
L 70.515625 20.21875 
L 53.078125 20.21875 
L 48 0 
L 40.1875 0 
L 45.21875 20.21875 
L 30.90625 20.21875 
L 25.875 0 
L 18.015625 0 
L 23.09375 20.21875 
L 7.71875 20.21875 
L 7.71875 27.6875 
L 24.90625 27.6875 
L 29 44 
L 13.28125 44 
L 13.28125 51.515625 
L 30.90625 51.515625 
L 35.890625 71.78125 
z
" id="DejaVuSans-35"/>
      <path d="M 3.328125 72.90625 
L 13.28125 72.90625 
L 28.609375 11.28125 
L 43.890625 72.90625 
L 54.984375 72.90625 
L 70.3125 11.28125 
L 85.59375 72.90625 
L 95.609375 72.90625 
L 77.296875 0 
L 64.890625 0 
L 49.515625 63.28125 
L 33.984375 0 
L 21.578125 0 
z
" id="DejaVuSans-87"/>
      <path d="M 9.421875 54.6875 
L 18.40625 54.6875 
L 18.40625 0 
L 9.421875 0 
z
M 9.421875 75.984375 
L 18.40625 75.984375 
L 18.40625 64.59375 
L 9.421875 64.59375 
z
" id="DejaVuSans-105"/>
      <path d="M 5.609375 72.90625 
L 62.890625 72.90625 
L 62.890625 65.375 
L 16.796875 8.296875 
L 64.015625 8.296875 
L 64.015625 0 
L 4.5 0 
L 4.5 7.515625 
L 50.59375 64.59375 
L 5.609375 64.59375 
z
" id="DejaVuSans-90"/>
      <path d="M 28.609375 0 
L 0.78125 72.90625 
L 11.078125 72.90625 
L 34.1875 11.53125 
L 57.328125 72.90625 
L 67.578125 72.90625 
L 39.796875 0 
z
" id="DejaVuSans-86"/>
      <path d="M 59.515625 10.40625 
L 59.515625 29.984375 
L 43.40625 29.984375 
L 43.40625 38.09375 
L 69.28125 38.09375 
L 69.28125 6.78125 
Q 63.578125 2.734375 56.6875 0.65625 
Q 49.8125 -1.421875 42 -1.421875 
Q 24.90625 -1.421875 15.25 8.5625 
Q 5.609375 18.5625 5.609375 36.375 
Q 5.609375 54.25 15.25 64.234375 
Q 24.90625 74.21875 42 74.21875 
Q 49.125 74.21875 55.546875 72.453125 
Q 61.96875 70.703125 67.390625 67.28125 
L 67.390625 56.78125 
Q 61.921875 61.421875 55.765625 63.765625 
Q 49.609375 66.109375 42.828125 66.109375 
Q 29.4375 66.109375 22.71875 58.640625 
Q 16.015625 51.171875 16.015625 36.375 
Q 16.015625 21.625 22.71875 14.15625 
Q 29.4375 6.6875 42.828125 6.6875 
Q 48.046875 6.6875 52.140625 7.59375 
Q 56.25 8.5 59.515625 10.40625 
z
" id="DejaVuSans-71"/>
     </defs>
     <use xlink:href="#DejaVuSans-35"/>
     <use x="83.789062" xlink:href="#DejaVuSans-87"/>
     <use x="180.416016" xlink:href="#DejaVuSans-105"/>
     <use x="208.199219" xlink:href="#DejaVuSans-115"/>
     <use x="260.298828" xlink:href="#DejaVuSans-115"/>
     <use x="312.398438" xlink:href="#DejaVuSans-90"/>
     <use x="380.904297" xlink:href="#DejaVuSans-101"/>
     <use x="442.427734" xlink:href="#DejaVuSans-105"/>
     <use x="470.210938" xlink:href="#DejaVuSans-116"/>
     <use x="509.419922" xlink:href="#DejaVuSans-86"/>
     <use x="577.828125" xlink:href="#DejaVuSans-71"/>
    </g>
   </g>
   <g id="text_16">
    <!-- #FristIstFrust -->
    <g style="fill:#ffc996;" transform="translate(96.433009 129.613518)scale(0.12 -0.12)">
     <defs>
      <path d="M 9.8125 72.90625 
L 51.703125 72.90625 
L 51.703125 64.59375 
L 19.671875 64.59375 
L 19.671875 43.109375 
L 48.578125 43.109375 
L 48.578125 34.8125 
L 19.671875 34.8125 
L 19.671875 0 
L 9.8125 0 
z
" id="DejaVuSans-70"/>
      <path d="M 41.109375 46.296875 
Q 39.59375 47.171875 37.8125 47.578125 
Q 36.03125 48 33.890625 48 
Q 26.265625 48 22.1875 43.046875 
Q 18.109375 38.09375 18.109375 28.8125 
L 18.109375 0 
L 9.078125 0 
L 9.078125 54.6875 
L 18.109375 54.6875 
L 18.109375 46.1875 
Q 20.953125 51.171875 25.484375 53.578125 
Q 30.03125 56 36.53125 56 
Q 37.453125 56 38.578125 55.875 
Q 39.703125 55.765625 41.0625 55.515625 
z
" id="DejaVuSans-114"/>
      <path d="M 9.8125 72.90625 
L 19.671875 72.90625 
L 19.671875 0 
L 9.8125 0 
z
" id="DejaVuSans-73"/>
      <path d="M 8.5 21.578125 
L 8.5 54.6875 
L 17.484375 54.6875 
L 17.484375 21.921875 
Q 17.484375 14.15625 20.5 10.265625 
Q 23.53125 6.390625 29.59375 6.390625 
Q 36.859375 6.390625 41.078125 11.03125 
Q 45.3125 15.671875 45.3125 23.6875 
L 45.3125 54.6875 
L 54.296875 54.6875 
L 54.296875 0 
L 45.3125 0 
L 45.3125 8.40625 
Q 42.046875 3.421875 37.71875 1 
Q 33.40625 -1.421875 27.6875 -1.421875 
Q 18.265625 -1.421875 13.375 4.4375 
Q 8.5 10.296875 8.5 21.578125 
z
M 31.109375 56 
z
" id="DejaVuSans-117"/>
     </defs>
     <use xlink:href="#DejaVuSans-35"/>
     <use x="83.789062" xlink:href="#DejaVuSans-70"/>
     <use x="134.058594" xlink:href="#DejaVuSans-114"/>
     <use x="175.171875" xlink:href="#DejaVuSans-105"/>
     <use x="202.955078" xlink:href="#DejaVuSans-115"/>
     <use x="255.054688" xlink:href="#DejaVuSans-116"/>
     <use x="294.263672" xlink:href="#DejaVuSans-73"/>
     <use x="323.755859" xlink:href="#DejaVuSans-115"/>
     <use x="375.855469" xlink:href="#DejaVuSans-116"/>
     <use x="415.064453" xlink:href="#DejaVuSans-70"/>
     <use x="465.333984" xlink:href="#DejaVuSans-114"/>
     <use x="506.447266" xlink:href="#DejaVuSans-117"/>
     <use x="569.826172" xlink:href="#DejaVuSans-115"/>
     <use x="621.925781" xlink:href="#DejaVuSans-116"/>
    </g>
   </g>
   <g id="text_17">
    <!-- #95vsWissZeitVG -->
    <g style="fill:#ff8474;" transform="translate(222.850502 110.956226)scale(0.12 -0.12)">
     <defs>
      <path d="M 10.796875 72.90625 
L 49.515625 72.90625 
L 49.515625 64.59375 
L 19.828125 64.59375 
L 19.828125 46.734375 
Q 21.96875 47.46875 24.109375 47.828125 
Q 26.265625 48.1875 28.421875 48.1875 
Q 40.625 48.1875 47.75 41.5 
Q 54.890625 34.8125 54.890625 23.390625 
Q 54.890625 11.625 47.5625 5.09375 
Q 40.234375 -1.421875 26.90625 -1.421875 
Q 22.3125 -1.421875 17.546875 -0.640625 
Q 12.796875 0.140625 7.71875 1.703125 
L 7.71875 11.625 
Q 12.109375 9.234375 16.796875 8.0625 
Q 21.484375 6.890625 26.703125 6.890625 
Q 35.15625 6.890625 40.078125 11.328125 
Q 45.015625 15.765625 45.015625 23.390625 
Q 45.015625 31 40.078125 35.4375 
Q 35.15625 39.890625 26.703125 39.890625 
Q 22.75 39.890625 18.8125 39.015625 
Q 14.890625 38.140625 10.796875 36.28125 
z
" id="DejaVuSans-53"/>
      <path d="M 2.984375 54.6875 
L 12.5 54.6875 
L 29.59375 8.796875 
L 46.6875 54.6875 
L 56.203125 54.6875 
L 35.6875 0 
L 23.484375 0 
z
" id="DejaVuSans-118"/>
     </defs>
     <use xlink:href="#DejaVuSans-35"/>
     <use x="83.789062" xlink:href="#DejaVuSans-57"/>
     <use x="147.412109" xlink:href="#DejaVuSans-53"/>
     <use x="211.035156" xlink:href="#DejaVuSans-118"/>
     <use x="270.214844" xlink:href="#DejaVuSans-115"/>
     <use x="322.314453" xlink:href="#DejaVuSans-87"/>
     <use x="418.941406" xlink:href="#DejaVuSans-105"/>
     <use x="446.724609" xlink:href="#DejaVuSans-115"/>
     <use x="498.824219" xlink:href="#DejaVuSans-115"/>
     <use x="550.923828" xlink:href="#DejaVuSans-90"/>
     <use x="619.429688" xlink:href="#DejaVuSans-101"/>
     <use x="680.953125" xlink:href="#DejaVuSans-105"/>
     <use x="708.736328" xlink:href="#DejaVuSans-116"/>
     <use x="747.945312" xlink:href="#DejaVuSans-86"/>
     <use x="816.353516" xlink:href="#DejaVuSans-71"/>
    </g>
   </g>
   <g id="text_18">
    <!-- #ACertainDegreeOfFlexibility -->
    <g style="fill:#9f5f80;" transform="translate(167.931427 76.657168)scale(0.12 -0.12)">
     <defs>
      <path d="M 64.40625 67.28125 
L 64.40625 56.890625 
Q 59.421875 61.53125 53.78125 63.8125 
Q 48.140625 66.109375 41.796875 66.109375 
Q 29.296875 66.109375 22.65625 58.46875 
Q 16.015625 50.828125 16.015625 36.375 
Q 16.015625 21.96875 22.65625 14.328125 
Q 29.296875 6.6875 41.796875 6.6875 
Q 48.140625 6.6875 53.78125 8.984375 
Q 59.421875 11.28125 64.40625 15.921875 
L 64.40625 5.609375 
Q 59.234375 2.09375 53.4375 0.328125 
Q 47.65625 -1.421875 41.21875 -1.421875 
Q 24.65625 -1.421875 15.125 8.703125 
Q 5.609375 18.84375 5.609375 36.375 
Q 5.609375 53.953125 15.125 64.078125 
Q 24.65625 74.21875 41.21875 74.21875 
Q 47.75 74.21875 53.53125 72.484375 
Q 59.328125 70.75 64.40625 67.28125 
z
" id="DejaVuSans-67"/>
      <path d="M 19.671875 64.796875 
L 19.671875 8.109375 
L 31.59375 8.109375 
Q 46.6875 8.109375 53.6875 14.9375 
Q 60.6875 21.78125 60.6875 36.53125 
Q 60.6875 51.171875 53.6875 57.984375 
Q 46.6875 64.796875 31.59375 64.796875 
z
M 9.8125 72.90625 
L 30.078125 72.90625 
Q 51.265625 72.90625 61.171875 64.09375 
Q 71.09375 55.28125 71.09375 36.53125 
Q 71.09375 17.671875 61.125 8.828125 
Q 51.171875 0 30.078125 0 
L 9.8125 0 
z
" id="DejaVuSans-68"/>
      <path d="M 39.40625 66.21875 
Q 28.65625 66.21875 22.328125 58.203125 
Q 16.015625 50.203125 16.015625 36.375 
Q 16.015625 22.609375 22.328125 14.59375 
Q 28.65625 6.59375 39.40625 6.59375 
Q 50.140625 6.59375 56.421875 14.59375 
Q 62.703125 22.609375 62.703125 36.375 
Q 62.703125 50.203125 56.421875 58.203125 
Q 50.140625 66.21875 39.40625 66.21875 
z
M 39.40625 74.21875 
Q 54.734375 74.21875 63.90625 63.9375 
Q 73.09375 53.65625 73.09375 36.375 
Q 73.09375 19.140625 63.90625 8.859375 
Q 54.734375 -1.421875 39.40625 -1.421875 
Q 24.03125 -1.421875 14.8125 8.828125 
Q 5.609375 19.09375 5.609375 36.375 
Q 5.609375 53.65625 14.8125 63.9375 
Q 24.03125 74.21875 39.40625 74.21875 
z
" id="DejaVuSans-79"/>
      <path d="M 37.109375 75.984375 
L 37.109375 68.5 
L 28.515625 68.5 
Q 23.6875 68.5 21.796875 66.546875 
Q 19.921875 64.59375 19.921875 59.515625 
L 19.921875 54.6875 
L 34.71875 54.6875 
L 34.71875 47.703125 
L 19.921875 47.703125 
L 19.921875 0 
L 10.890625 0 
L 10.890625 47.703125 
L 2.296875 47.703125 
L 2.296875 54.6875 
L 10.890625 54.6875 
L 10.890625 58.5 
Q 10.890625 67.625 15.140625 71.796875 
Q 19.390625 75.984375 28.609375 75.984375 
z
" id="DejaVuSans-102"/>
      <path d="M 54.890625 54.6875 
L 35.109375 28.078125 
L 55.90625 0 
L 45.3125 0 
L 29.390625 21.484375 
L 13.484375 0 
L 2.875 0 
L 24.125 28.609375 
L 4.6875 54.6875 
L 15.28125 54.6875 
L 29.78125 35.203125 
L 44.28125 54.6875 
z
" id="DejaVuSans-120"/>
      <path d="M 48.6875 27.296875 
Q 48.6875 37.203125 44.609375 42.84375 
Q 40.53125 48.484375 33.40625 48.484375 
Q 26.265625 48.484375 22.1875 42.84375 
Q 18.109375 37.203125 18.109375 27.296875 
Q 18.109375 17.390625 22.1875 11.75 
Q 26.265625 6.109375 33.40625 6.109375 
Q 40.53125 6.109375 44.609375 11.75 
Q 48.6875 17.390625 48.6875 27.296875 
z
M 18.109375 46.390625 
Q 20.953125 51.265625 25.265625 53.625 
Q 29.59375 56 35.59375 56 
Q 45.5625 56 51.78125 48.09375 
Q 58.015625 40.1875 58.015625 27.296875 
Q 58.015625 14.40625 51.78125 6.484375 
Q 45.5625 -1.421875 35.59375 -1.421875 
Q 29.59375 -1.421875 25.265625 0.953125 
Q 20.953125 3.328125 18.109375 8.203125 
L 18.109375 0 
L 9.078125 0 
L 9.078125 75.984375 
L 18.109375 75.984375 
z
" id="DejaVuSans-98"/>
      <path d="M 32.171875 -5.078125 
Q 28.375 -14.84375 24.75 -17.8125 
Q 21.140625 -20.796875 15.09375 -20.796875 
L 7.90625 -20.796875 
L 7.90625 -13.28125 
L 13.1875 -13.28125 
Q 16.890625 -13.28125 18.9375 -11.515625 
Q 21 -9.765625 23.484375 -3.21875 
L 25.09375 0.875 
L 2.984375 54.6875 
L 12.5 54.6875 
L 29.59375 11.921875 
L 46.6875 54.6875 
L 56.203125 54.6875 
z
" id="DejaVuSans-121"/>
     </defs>
     <use xlink:href="#DejaVuSans-35"/>
     <use x="83.789062" xlink:href="#DejaVuSans-65"/>
     <use x="150.447266" xlink:href="#DejaVuSans-67"/>
     <use x="220.271484" xlink:href="#DejaVuSans-101"/>
     <use x="281.794922" xlink:href="#DejaVuSans-114"/>
     <use x="322.908203" xlink:href="#DejaVuSans-116"/>
     <use x="362.117188" xlink:href="#DejaVuSans-97"/>
     <use x="423.396484" xlink:href="#DejaVuSans-105"/>
     <use x="451.179688" xlink:href="#DejaVuSans-110"/>
     <use x="514.558594" xlink:href="#DejaVuSans-68"/>
     <use x="591.560547" xlink:href="#DejaVuSans-101"/>
     <use x="653.083984" xlink:href="#DejaVuSans-103"/>
     <use x="716.560547" xlink:href="#DejaVuSans-114"/>
     <use x="755.423828" xlink:href="#DejaVuSans-101"/>
     <use x="816.947266" xlink:href="#DejaVuSans-101"/>
     <use x="878.470703" xlink:href="#DejaVuSans-79"/>
     <use x="957.181641" xlink:href="#DejaVuSans-102"/>
     <use x="992.386719" xlink:href="#DejaVuSans-70"/>
     <use x="1049.90625" xlink:href="#DejaVuSans-108"/>
     <use x="1077.689453" xlink:href="#DejaVuSans-101"/>
     <use x="1137.462891" xlink:href="#DejaVuSans-120"/>
     <use x="1196.642578" xlink:href="#DejaVuSans-105"/>
     <use x="1224.425781" xlink:href="#DejaVuSans-98"/>
     <use x="1287.902344" xlink:href="#DejaVuSans-105"/>
     <use x="1315.685547" xlink:href="#DejaVuSans-108"/>
     <use x="1343.46875" xlink:href="#DejaVuSans-105"/>
     <use x="1371.251953" xlink:href="#DejaVuSans-116"/>
     <use x="1410.460938" xlink:href="#DejaVuSans-121"/>
    </g>
   </g>
   <g id="text_19">
    <!-- #IchBinHanna -->
    <g style="fill:#583d72;" transform="translate(289.426927 50.999058)scale(0.12 -0.12)">
     <defs>
      <path d="M 48.78125 52.59375 
L 48.78125 44.1875 
Q 44.96875 46.296875 41.140625 47.34375 
Q 37.3125 48.390625 33.40625 48.390625 
Q 24.65625 48.390625 19.8125 42.84375 
Q 14.984375 37.3125 14.984375 27.296875 
Q 14.984375 17.28125 19.8125 11.734375 
Q 24.65625 6.203125 33.40625 6.203125 
Q 37.3125 6.203125 41.140625 7.25 
Q 44.96875 8.296875 48.78125 10.40625 
L 48.78125 2.09375 
Q 45.015625 0.34375 40.984375 -0.53125 
Q 36.96875 -1.421875 32.421875 -1.421875 
Q 20.0625 -1.421875 12.78125 6.34375 
Q 5.515625 14.109375 5.515625 27.296875 
Q 5.515625 40.671875 12.859375 48.328125 
Q 20.21875 56 33.015625 56 
Q 37.15625 56 41.109375 55.140625 
Q 45.0625 54.296875 48.78125 52.59375 
z
" id="DejaVuSans-99"/>
      <path d="M 19.671875 34.8125 
L 19.671875 8.109375 
L 35.5 8.109375 
Q 43.453125 8.109375 47.28125 11.40625 
Q 51.125 14.703125 51.125 21.484375 
Q 51.125 28.328125 47.28125 31.5625 
Q 43.453125 34.8125 35.5 34.8125 
z
M 19.671875 64.796875 
L 19.671875 42.828125 
L 34.28125 42.828125 
Q 41.5 42.828125 45.03125 45.53125 
Q 48.578125 48.25 48.578125 53.8125 
Q 48.578125 59.328125 45.03125 62.0625 
Q 41.5 64.796875 34.28125 64.796875 
z
M 9.8125 72.90625 
L 35.015625 72.90625 
Q 46.296875 72.90625 52.390625 68.21875 
Q 58.5 63.53125 58.5 54.890625 
Q 58.5 48.1875 55.375 44.234375 
Q 52.25 40.28125 46.1875 39.3125 
Q 53.46875 37.75 57.5 32.78125 
Q 61.53125 27.828125 61.53125 20.40625 
Q 61.53125 10.640625 54.890625 5.3125 
Q 48.25 0 35.984375 0 
L 9.8125 0 
z
" id="DejaVuSans-66"/>
      <path d="M 9.8125 72.90625 
L 19.671875 72.90625 
L 19.671875 43.015625 
L 55.515625 43.015625 
L 55.515625 72.90625 
L 65.375 72.90625 
L 65.375 0 
L 55.515625 0 
L 55.515625 34.71875 
L 19.671875 34.71875 
L 19.671875 0 
L 9.8125 0 
z
" id="DejaVuSans-72"/>
     </defs>
     <use xlink:href="#DejaVuSans-35"/>
     <use x="83.789062" xlink:href="#DejaVuSans-73"/>
     <use x="113.28125" xlink:href="#DejaVuSans-99"/>
     <use x="168.261719" xlink:href="#DejaVuSans-104"/>
     <use x="231.640625" xlink:href="#DejaVuSans-66"/>
     <use x="300.244141" xlink:href="#DejaVuSans-105"/>
     <use x="328.027344" xlink:href="#DejaVuSans-110"/>
     <use x="391.40625" xlink:href="#DejaVuSans-72"/>
     <use x="466.601562" xlink:href="#DejaVuSans-97"/>
     <use x="527.880859" xlink:href="#DejaVuSans-110"/>
     <use x="591.259766" xlink:href="#DejaVuSans-110"/>
     <use x="654.638672" xlink:href="#DejaVuSans-97"/>
    </g>
   </g>
  </g>
 </g>
 <defs>
  <clipPath id="p7858418516">
   <rect height="205.239962" width="355.911871" x="55.645234" y="16.7"/>
  </clipPath>
 </defs>
</svg>
