<?xml version="1.0" encoding="utf-8" standalone="no"?>
<!DOCTYPE svg PUBLIC "-//W3C//DTD SVG 1.1//EN"
  "http://www.w3.org/Graphics/SVG/1.1/DTD/svg11.dtd">
<!-- Created with matplotlib (https://matplotlib.org/) -->
<svg height="288pt" version="1.1" viewBox="0 0 432 288" width="432pt" xmlns="http://www.w3.org/2000/svg" xmlns:xlink="http://www.w3.org/1999/xlink">
 <metadata>
  <rdf:RDF xmlns:cc="http://creativecommons.org/ns#" xmlns:dc="http://purl.org/dc/elements/1.1/" xmlns:rdf="http://www.w3.org/1999/02/22-rdf-syntax-ns#">
   <cc:Work>
    <dc:type rdf:resource="http://purl.org/dc/dcmitype/StillImage"/>
    <dc:date>2021-06-15T22:51:57.786521</dc:date>
    <dc:format>image/svg+xml</dc:format>
    <dc:creator>
     <cc:Agent>
      <dc:title>Matplotlib v3.3.4, https://matplotlib.org/</dc:title>
     </cc:Agent>
    </dc:creator>
   </cc:Work>
  </rdf:RDF>
 </metadata>
 <defs>
  <style type="text/css">*{stroke-linecap:butt;stroke-linejoin:round;}</style>
 </defs>
 <g id="figure_1">
  <g id="patch_1">
   <path d="M 0 288 
L 432 288 
L 432 0 
L 0 0 
z
" style="fill:none;"/>
  </g>
  <g id="axes_1">
   <g id="patch_2">
    <path d="M 55.645234 221.939962 
L 408.098542 221.939962 
L 408.098542 16.7 
L 55.645234 16.7 
z
" style="fill:#ffffff;"/>
   </g>
   <g id="matplotlib.axis_1">
    <g id="xtick_1">
     <g id="line2d_1">
      <defs>
       <path d="M 0 0 
L 0 3.5 
" id="m21d309af18" style="stroke:#000000;stroke-width:0.8;"/>
      </defs>
      <g>
       <use style="stroke:#000000;stroke-width:0.8;" x="65.179764" xlink:href="#m21d309af18" y="221.939962"/>
      </g>
     </g>
     <g id="text_1">
      <!-- 2018-01-01 -->
      <g transform="translate(46.583961 275.406821)rotate(-45)scale(0.1 -0.1)">
       <defs>
        <path d="M 19.1875 8.296875 
L 53.609375 8.296875 
L 53.609375 0 
L 7.328125 0 
L 7.328125 8.296875 
Q 12.9375 14.109375 22.625 23.890625 
Q 32.328125 33.6875 34.8125 36.53125 
Q 39.546875 41.84375 41.421875 45.53125 
Q 43.3125 49.21875 43.3125 52.78125 
Q 43.3125 58.59375 39.234375 62.25 
Q 35.15625 65.921875 28.609375 65.921875 
Q 23.96875 65.921875 18.8125 64.3125 
Q 13.671875 62.703125 7.8125 59.421875 
L 7.8125 69.390625 
Q 13.765625 71.78125 18.9375 73 
Q 24.125 74.21875 28.421875 74.21875 
Q 39.75 74.21875 46.484375 68.546875 
Q 53.21875 62.890625 53.21875 53.421875 
Q 53.21875 48.921875 51.53125 44.890625 
Q 49.859375 40.875 45.40625 35.40625 
Q 44.1875 33.984375 37.640625 27.21875 
Q 31.109375 20.453125 19.1875 8.296875 
z
" id="DejaVuSans-50"/>
        <path d="M 31.78125 66.40625 
Q 24.171875 66.40625 20.328125 58.90625 
Q 16.5 51.421875 16.5 36.375 
Q 16.5 21.390625 20.328125 13.890625 
Q 24.171875 6.390625 31.78125 6.390625 
Q 39.453125 6.390625 43.28125 13.890625 
Q 47.125 21.390625 47.125 36.375 
Q 47.125 51.421875 43.28125 58.90625 
Q 39.453125 66.40625 31.78125 66.40625 
z
M 31.78125 74.21875 
Q 44.046875 74.21875 50.515625 64.515625 
Q 56.984375 54.828125 56.984375 36.375 
Q 56.984375 17.96875 50.515625 8.265625 
Q 44.046875 -1.421875 31.78125 -1.421875 
Q 19.53125 -1.421875 13.0625 8.265625 
Q 6.59375 17.96875 6.59375 36.375 
Q 6.59375 54.828125 13.0625 64.515625 
Q 19.53125 74.21875 31.78125 74.21875 
z
" id="DejaVuSans-48"/>
        <path d="M 12.40625 8.296875 
L 28.515625 8.296875 
L 28.515625 63.921875 
L 10.984375 60.40625 
L 10.984375 69.390625 
L 28.421875 72.90625 
L 38.28125 72.90625 
L 38.28125 8.296875 
L 54.390625 8.296875 
L 54.390625 0 
L 12.40625 0 
z
" id="DejaVuSans-49"/>
        <path d="M 31.78125 34.625 
Q 24.75 34.625 20.71875 30.859375 
Q 16.703125 27.09375 16.703125 20.515625 
Q 16.703125 13.921875 20.71875 10.15625 
Q 24.75 6.390625 31.78125 6.390625 
Q 38.8125 6.390625 42.859375 10.171875 
Q 46.921875 13.96875 46.921875 20.515625 
Q 46.921875 27.09375 42.890625 30.859375 
Q 38.875 34.625 31.78125 34.625 
z
M 21.921875 38.8125 
Q 15.578125 40.375 12.03125 44.71875 
Q 8.5 49.078125 8.5 55.328125 
Q 8.5 64.0625 14.71875 69.140625 
Q 20.953125 74.21875 31.78125 74.21875 
Q 42.671875 74.21875 48.875 69.140625 
Q 55.078125 64.0625 55.078125 55.328125 
Q 55.078125 49.078125 51.53125 44.71875 
Q 48 40.375 41.703125 38.8125 
Q 48.828125 37.15625 52.796875 32.3125 
Q 56.78125 27.484375 56.78125 20.515625 
Q 56.78125 9.90625 50.3125 4.234375 
Q 43.84375 -1.421875 31.78125 -1.421875 
Q 19.734375 -1.421875 13.25 4.234375 
Q 6.78125 9.90625 6.78125 20.515625 
Q 6.78125 27.484375 10.78125 32.3125 
Q 14.796875 37.15625 21.921875 38.8125 
z
M 18.3125 54.390625 
Q 18.3125 48.734375 21.84375 45.5625 
Q 25.390625 42.390625 31.78125 42.390625 
Q 38.140625 42.390625 41.71875 45.5625 
Q 45.3125 48.734375 45.3125 54.390625 
Q 45.3125 60.0625 41.71875 63.234375 
Q 38.140625 66.40625 31.78125 66.40625 
Q 25.390625 66.40625 21.84375 63.234375 
Q 18.3125 60.0625 18.3125 54.390625 
z
" id="DejaVuSans-56"/>
        <path d="M 4.890625 31.390625 
L 31.203125 31.390625 
L 31.203125 23.390625 
L 4.890625 23.390625 
z
" id="DejaVuSans-45"/>
       </defs>
       <use xlink:href="#DejaVuSans-50"/>
       <use x="63.623047" xlink:href="#DejaVuSans-48"/>
       <use x="127.246094" xlink:href="#DejaVuSans-49"/>
       <use x="190.869141" xlink:href="#DejaVuSans-56"/>
       <use x="254.492188" xlink:href="#DejaVuSans-45"/>
       <use x="290.576172" xlink:href="#DejaVuSans-48"/>
       <use x="354.199219" xlink:href="#DejaVuSans-49"/>
       <use x="417.822266" xlink:href="#DejaVuSans-45"/>
       <use x="453.90625" xlink:href="#DejaVuSans-48"/>
       <use x="517.529297" xlink:href="#DejaVuSans-49"/>
      </g>
     </g>
    </g>
    <g id="xtick_2">
     <g id="line2d_2">
      <g>
       <use style="stroke:#000000;stroke-width:0.8;" x="112.138946" xlink:href="#m21d309af18" y="221.939962"/>
      </g>
     </g>
     <g id="text_2">
      <!-- 2018-07-01 -->
      <g transform="translate(93.543143 275.406821)rotate(-45)scale(0.1 -0.1)">
       <defs>
        <path d="M 8.203125 72.90625 
L 55.078125 72.90625 
L 55.078125 68.703125 
L 28.609375 0 
L 18.3125 0 
L 43.21875 64.59375 
L 8.203125 64.59375 
z
" id="DejaVuSans-55"/>
       </defs>
       <use xlink:href="#DejaVuSans-50"/>
       <use x="63.623047" xlink:href="#DejaVuSans-48"/>
       <use x="127.246094" xlink:href="#DejaVuSans-49"/>
       <use x="190.869141" xlink:href="#DejaVuSans-56"/>
       <use x="254.492188" xlink:href="#DejaVuSans-45"/>
       <use x="290.576172" xlink:href="#DejaVuSans-48"/>
       <use x="354.199219" xlink:href="#DejaVuSans-55"/>
       <use x="417.822266" xlink:href="#DejaVuSans-45"/>
       <use x="453.90625" xlink:href="#DejaVuSans-48"/>
       <use x="517.529297" xlink:href="#DejaVuSans-49"/>
      </g>
     </g>
    </g>
    <g id="xtick_3">
     <g id="line2d_3">
      <g>
       <use style="stroke:#000000;stroke-width:0.8;" x="159.876457" xlink:href="#m21d309af18" y="221.939962"/>
      </g>
     </g>
     <g id="text_3">
      <!-- 2019-01-01 -->
      <g transform="translate(141.280654 275.406821)rotate(-45)scale(0.1 -0.1)">
       <defs>
        <path d="M 10.984375 1.515625 
L 10.984375 10.5 
Q 14.703125 8.734375 18.5 7.8125 
Q 22.3125 6.890625 25.984375 6.890625 
Q 35.75 6.890625 40.890625 13.453125 
Q 46.046875 20.015625 46.78125 33.40625 
Q 43.953125 29.203125 39.59375 26.953125 
Q 35.25 24.703125 29.984375 24.703125 
Q 19.046875 24.703125 12.671875 31.3125 
Q 6.296875 37.9375 6.296875 49.421875 
Q 6.296875 60.640625 12.9375 67.421875 
Q 19.578125 74.21875 30.609375 74.21875 
Q 43.265625 74.21875 49.921875 64.515625 
Q 56.59375 54.828125 56.59375 36.375 
Q 56.59375 19.140625 48.40625 8.859375 
Q 40.234375 -1.421875 26.421875 -1.421875 
Q 22.703125 -1.421875 18.890625 -0.6875 
Q 15.09375 0.046875 10.984375 1.515625 
z
M 30.609375 32.421875 
Q 37.25 32.421875 41.125 36.953125 
Q 45.015625 41.5 45.015625 49.421875 
Q 45.015625 57.28125 41.125 61.84375 
Q 37.25 66.40625 30.609375 66.40625 
Q 23.96875 66.40625 20.09375 61.84375 
Q 16.21875 57.28125 16.21875 49.421875 
Q 16.21875 41.5 20.09375 36.953125 
Q 23.96875 32.421875 30.609375 32.421875 
z
" id="DejaVuSans-57"/>
       </defs>
       <use xlink:href="#DejaVuSans-50"/>
       <use x="63.623047" xlink:href="#DejaVuSans-48"/>
       <use x="127.246094" xlink:href="#DejaVuSans-49"/>
       <use x="190.869141" xlink:href="#DejaVuSans-57"/>
       <use x="254.492188" xlink:href="#DejaVuSans-45"/>
       <use x="290.576172" xlink:href="#DejaVuSans-48"/>
       <use x="354.199219" xlink:href="#DejaVuSans-49"/>
       <use x="417.822266" xlink:href="#DejaVuSans-45"/>
       <use x="453.90625" xlink:href="#DejaVuSans-48"/>
       <use x="517.529297" xlink:href="#DejaVuSans-49"/>
      </g>
     </g>
    </g>
    <g id="xtick_4">
     <g id="line2d_4">
      <g>
       <use style="stroke:#000000;stroke-width:0.8;" x="206.835639" xlink:href="#m21d309af18" y="221.939962"/>
      </g>
     </g>
     <g id="text_4">
      <!-- 2019-07-01 -->
      <g transform="translate(188.239836 275.406821)rotate(-45)scale(0.1 -0.1)">
       <use xlink:href="#DejaVuSans-50"/>
       <use x="63.623047" xlink:href="#DejaVuSans-48"/>
       <use x="127.246094" xlink:href="#DejaVuSans-49"/>
       <use x="190.869141" xlink:href="#DejaVuSans-57"/>
       <use x="254.492188" xlink:href="#DejaVuSans-45"/>
       <use x="290.576172" xlink:href="#DejaVuSans-48"/>
       <use x="354.199219" xlink:href="#DejaVuSans-55"/>
       <use x="417.822266" xlink:href="#DejaVuSans-45"/>
       <use x="453.90625" xlink:href="#DejaVuSans-48"/>
       <use x="517.529297" xlink:href="#DejaVuSans-49"/>
      </g>
     </g>
    </g>
    <g id="xtick_5">
     <g id="line2d_5">
      <g>
       <use style="stroke:#000000;stroke-width:0.8;" x="254.57315" xlink:href="#m21d309af18" y="221.939962"/>
      </g>
     </g>
     <g id="text_5">
      <!-- 2020-01-01 -->
      <g transform="translate(235.977347 275.406821)rotate(-45)scale(0.1 -0.1)">
       <use xlink:href="#DejaVuSans-50"/>
       <use x="63.623047" xlink:href="#DejaVuSans-48"/>
       <use x="127.246094" xlink:href="#DejaVuSans-50"/>
       <use x="190.869141" xlink:href="#DejaVuSans-48"/>
       <use x="254.492188" xlink:href="#DejaVuSans-45"/>
       <use x="290.576172" xlink:href="#DejaVuSans-48"/>
       <use x="354.199219" xlink:href="#DejaVuSans-49"/>
       <use x="417.822266" xlink:href="#DejaVuSans-45"/>
       <use x="453.90625" xlink:href="#DejaVuSans-48"/>
       <use x="517.529297" xlink:href="#DejaVuSans-49"/>
      </g>
     </g>
    </g>
    <g id="xtick_6">
     <g id="line2d_6">
      <g>
       <use style="stroke:#000000;stroke-width:0.8;" x="301.791775" xlink:href="#m21d309af18" y="221.939962"/>
      </g>
     </g>
     <g id="text_6">
      <!-- 2020-07-01 -->
      <g transform="translate(283.195972 275.406821)rotate(-45)scale(0.1 -0.1)">
       <use xlink:href="#DejaVuSans-50"/>
       <use x="63.623047" xlink:href="#DejaVuSans-48"/>
       <use x="127.246094" xlink:href="#DejaVuSans-50"/>
       <use x="190.869141" xlink:href="#DejaVuSans-48"/>
       <use x="254.492188" xlink:href="#DejaVuSans-45"/>
       <use x="290.576172" xlink:href="#DejaVuSans-48"/>
       <use x="354.199219" xlink:href="#DejaVuSans-55"/>
       <use x="417.822266" xlink:href="#DejaVuSans-45"/>
       <use x="453.90625" xlink:href="#DejaVuSans-48"/>
       <use x="517.529297" xlink:href="#DejaVuSans-49"/>
      </g>
     </g>
    </g>
    <g id="xtick_7">
     <g id="line2d_7">
      <g>
       <use style="stroke:#000000;stroke-width:0.8;" x="349.529286" xlink:href="#m21d309af18" y="221.939962"/>
      </g>
     </g>
     <g id="text_7">
      <!-- 2021-01-01 -->
      <g transform="translate(330.933483 275.406821)rotate(-45)scale(0.1 -0.1)">
       <use xlink:href="#DejaVuSans-50"/>
       <use x="63.623047" xlink:href="#DejaVuSans-48"/>
       <use x="127.246094" xlink:href="#DejaVuSans-50"/>
       <use x="190.869141" xlink:href="#DejaVuSans-49"/>
       <use x="254.492188" xlink:href="#DejaVuSans-45"/>
       <use x="290.576172" xlink:href="#DejaVuSans-48"/>
       <use x="354.199219" xlink:href="#DejaVuSans-49"/>
       <use x="417.822266" xlink:href="#DejaVuSans-45"/>
       <use x="453.90625" xlink:href="#DejaVuSans-48"/>
       <use x="517.529297" xlink:href="#DejaVuSans-49"/>
      </g>
     </g>
    </g>
    <g id="xtick_8">
     <g id="line2d_8">
      <g>
       <use style="stroke:#000000;stroke-width:0.8;" x="396.488468" xlink:href="#m21d309af18" y="221.939962"/>
      </g>
     </g>
     <g id="text_8">
      <!-- 2021-07-01 -->
      <g transform="translate(377.892665 275.406821)rotate(-45)scale(0.1 -0.1)">
       <use xlink:href="#DejaVuSans-50"/>
       <use x="63.623047" xlink:href="#DejaVuSans-48"/>
       <use x="127.246094" xlink:href="#DejaVuSans-50"/>
       <use x="190.869141" xlink:href="#DejaVuSans-49"/>
       <use x="254.492188" xlink:href="#DejaVuSans-45"/>
       <use x="290.576172" xlink:href="#DejaVuSans-48"/>
       <use x="354.199219" xlink:href="#DejaVuSans-55"/>
       <use x="417.822266" xlink:href="#DejaVuSans-45"/>
       <use x="453.90625" xlink:href="#DejaVuSans-48"/>
       <use x="517.529297" xlink:href="#DejaVuSans-49"/>
      </g>
     </g>
    </g>
   </g>
   <g id="matplotlib.axis_2">
    <g id="ytick_1">
     <g id="line2d_9">
      <defs>
       <path d="M 0 0 
L -3.5 0 
" id="m3e2cff8fbd" style="stroke:#000000;stroke-width:0.8;"/>
      </defs>
      <g>
       <use style="stroke:#000000;stroke-width:0.8;" x="55.645234" xlink:href="#m3e2cff8fbd" y="213.094018"/>
      </g>
     </g>
     <g id="text_9">
      <!-- $\mathdefault{10^{0}}$ -->
      <g transform="translate(31.045234 216.893237)scale(0.1 -0.1)">
       <use transform="translate(0 0.765625)" xlink:href="#DejaVuSans-49"/>
       <use transform="translate(63.623047 0.765625)" xlink:href="#DejaVuSans-48"/>
       <use transform="translate(128.203125 39.046875)scale(0.7)" xlink:href="#DejaVuSans-48"/>
      </g>
     </g>
    </g>
    <g id="ytick_2">
     <g id="line2d_10">
      <g>
       <use style="stroke:#000000;stroke-width:0.8;" x="55.645234" xlink:href="#m3e2cff8fbd" y="163.995514"/>
      </g>
     </g>
     <g id="text_10">
      <!-- $\mathdefault{10^{1}}$ -->
      <g transform="translate(31.045234 167.794733)scale(0.1 -0.1)">
       <use transform="translate(0 0.684375)" xlink:href="#DejaVuSans-49"/>
       <use transform="translate(63.623047 0.684375)" xlink:href="#DejaVuSans-48"/>
       <use transform="translate(128.203125 38.965625)scale(0.7)" xlink:href="#DejaVuSans-49"/>
      </g>
     </g>
    </g>
    <g id="ytick_3">
     <g id="line2d_11">
      <g>
       <use style="stroke:#000000;stroke-width:0.8;" x="55.645234" xlink:href="#m3e2cff8fbd" y="114.897009"/>
      </g>
     </g>
     <g id="text_11">
      <!-- $\mathdefault{10^{2}}$ -->
      <g transform="translate(31.045234 118.696228)scale(0.1 -0.1)">
       <use transform="translate(0 0.765625)" xlink:href="#DejaVuSans-49"/>
       <use transform="translate(63.623047 0.765625)" xlink:href="#DejaVuSans-48"/>
       <use transform="translate(128.203125 39.046875)scale(0.7)" xlink:href="#DejaVuSans-50"/>
      </g>
     </g>
    </g>
    <g id="ytick_4">
     <g id="line2d_12">
      <g>
       <use style="stroke:#000000;stroke-width:0.8;" x="55.645234" xlink:href="#m3e2cff8fbd" y="65.798505"/>
      </g>
     </g>
     <g id="text_12">
      <!-- $\mathdefault{10^{3}}$ -->
      <g transform="translate(31.045234 69.597723)scale(0.1 -0.1)">
       <defs>
        <path d="M 40.578125 39.3125 
Q 47.65625 37.796875 51.625 33 
Q 55.609375 28.21875 55.609375 21.1875 
Q 55.609375 10.40625 48.1875 4.484375 
Q 40.765625 -1.421875 27.09375 -1.421875 
Q 22.515625 -1.421875 17.65625 -0.515625 
Q 12.796875 0.390625 7.625 2.203125 
L 7.625 11.71875 
Q 11.71875 9.328125 16.59375 8.109375 
Q 21.484375 6.890625 26.8125 6.890625 
Q 36.078125 6.890625 40.9375 10.546875 
Q 45.796875 14.203125 45.796875 21.1875 
Q 45.796875 27.640625 41.28125 31.265625 
Q 36.765625 34.90625 28.71875 34.90625 
L 20.21875 34.90625 
L 20.21875 43.015625 
L 29.109375 43.015625 
Q 36.375 43.015625 40.234375 45.921875 
Q 44.09375 48.828125 44.09375 54.296875 
Q 44.09375 59.90625 40.109375 62.90625 
Q 36.140625 65.921875 28.71875 65.921875 
Q 24.65625 65.921875 20.015625 65.03125 
Q 15.375 64.15625 9.8125 62.3125 
L 9.8125 71.09375 
Q 15.4375 72.65625 20.34375 73.4375 
Q 25.25 74.21875 29.59375 74.21875 
Q 40.828125 74.21875 47.359375 69.109375 
Q 53.90625 64.015625 53.90625 55.328125 
Q 53.90625 49.265625 50.4375 45.09375 
Q 46.96875 40.921875 40.578125 39.3125 
z
" id="DejaVuSans-51"/>
       </defs>
       <use transform="translate(0 0.765625)" xlink:href="#DejaVuSans-49"/>
       <use transform="translate(63.623047 0.765625)" xlink:href="#DejaVuSans-48"/>
       <use transform="translate(128.203125 39.046875)scale(0.7)" xlink:href="#DejaVuSans-51"/>
      </g>
     </g>
    </g>
    <g id="ytick_5">
     <g id="line2d_13">
      <g>
       <use style="stroke:#000000;stroke-width:0.8;" x="55.645234" xlink:href="#m3e2cff8fbd" y="16.7"/>
      </g>
     </g>
     <g id="text_13">
      <!-- $\mathdefault{10^{4}}$ -->
      <g transform="translate(31.045234 20.499219)scale(0.1 -0.1)">
       <defs>
        <path d="M 37.796875 64.3125 
L 12.890625 25.390625 
L 37.796875 25.390625 
z
M 35.203125 72.90625 
L 47.609375 72.90625 
L 47.609375 25.390625 
L 58.015625 25.390625 
L 58.015625 17.1875 
L 47.609375 17.1875 
L 47.609375 0 
L 37.796875 0 
L 37.796875 17.1875 
L 4.890625 17.1875 
L 4.890625 26.703125 
z
" id="DejaVuSans-52"/>
       </defs>
       <use transform="translate(0 0.684375)" xlink:href="#DejaVuSans-49"/>
       <use transform="translate(63.623047 0.684375)" xlink:href="#DejaVuSans-48"/>
       <use transform="translate(128.203125 38.965625)scale(0.7)" xlink:href="#DejaVuSans-52"/>
      </g>
     </g>
    </g>
    <g id="ytick_6">
     <g id="line2d_14">
      <defs>
       <path d="M 0 0 
L -2 0 
" id="mb58b2d70c8" style="stroke:#000000;stroke-width:0.6;"/>
      </defs>
      <g>
       <use style="stroke:#000000;stroke-width:0.6;" x="55.645234" xlink:href="#mb58b2d70c8" y="220.699473"/>
      </g>
     </g>
    </g>
    <g id="ytick_7">
     <g id="line2d_15">
      <g>
       <use style="stroke:#000000;stroke-width:0.6;" x="55.645234" xlink:href="#mb58b2d70c8" y="217.852155"/>
      </g>
     </g>
    </g>
    <g id="ytick_8">
     <g id="line2d_16">
      <g>
       <use style="stroke:#000000;stroke-width:0.6;" x="55.645234" xlink:href="#mb58b2d70c8" y="215.340643"/>
      </g>
     </g>
    </g>
    <g id="ytick_9">
     <g id="line2d_17">
      <g>
       <use style="stroke:#000000;stroke-width:0.6;" x="55.645234" xlink:href="#mb58b2d70c8" y="198.313896"/>
      </g>
     </g>
    </g>
    <g id="ytick_10">
     <g id="line2d_18">
      <g>
       <use style="stroke:#000000;stroke-width:0.6;" x="55.645234" xlink:href="#mb58b2d70c8" y="189.668078"/>
      </g>
     </g>
    </g>
    <g id="ytick_11">
     <g id="line2d_19">
      <g>
       <use style="stroke:#000000;stroke-width:0.6;" x="55.645234" xlink:href="#mb58b2d70c8" y="183.533773"/>
      </g>
     </g>
    </g>
    <g id="ytick_12">
     <g id="line2d_20">
      <g>
       <use style="stroke:#000000;stroke-width:0.6;" x="55.645234" xlink:href="#mb58b2d70c8" y="178.775637"/>
      </g>
     </g>
    </g>
    <g id="ytick_13">
     <g id="line2d_21">
      <g>
       <use style="stroke:#000000;stroke-width:0.6;" x="55.645234" xlink:href="#mb58b2d70c8" y="174.887956"/>
      </g>
     </g>
    </g>
    <g id="ytick_14">
     <g id="line2d_22">
      <g>
       <use style="stroke:#000000;stroke-width:0.6;" x="55.645234" xlink:href="#mb58b2d70c8" y="171.600968"/>
      </g>
     </g>
    </g>
    <g id="ytick_15">
     <g id="line2d_23">
      <g>
       <use style="stroke:#000000;stroke-width:0.6;" x="55.645234" xlink:href="#mb58b2d70c8" y="168.753651"/>
      </g>
     </g>
    </g>
    <g id="ytick_16">
     <g id="line2d_24">
      <g>
       <use style="stroke:#000000;stroke-width:0.6;" x="55.645234" xlink:href="#mb58b2d70c8" y="166.242138"/>
      </g>
     </g>
    </g>
    <g id="ytick_17">
     <g id="line2d_25">
      <g>
       <use style="stroke:#000000;stroke-width:0.6;" x="55.645234" xlink:href="#mb58b2d70c8" y="149.215391"/>
      </g>
     </g>
    </g>
    <g id="ytick_18">
     <g id="line2d_26">
      <g>
       <use style="stroke:#000000;stroke-width:0.6;" x="55.645234" xlink:href="#mb58b2d70c8" y="140.569574"/>
      </g>
     </g>
    </g>
    <g id="ytick_19">
     <g id="line2d_27">
      <g>
       <use style="stroke:#000000;stroke-width:0.6;" x="55.645234" xlink:href="#mb58b2d70c8" y="134.435269"/>
      </g>
     </g>
    </g>
    <g id="ytick_20">
     <g id="line2d_28">
      <g>
       <use style="stroke:#000000;stroke-width:0.6;" x="55.645234" xlink:href="#mb58b2d70c8" y="129.677132"/>
      </g>
     </g>
    </g>
    <g id="ytick_21">
     <g id="line2d_29">
      <g>
       <use style="stroke:#000000;stroke-width:0.6;" x="55.645234" xlink:href="#mb58b2d70c8" y="125.789451"/>
      </g>
     </g>
    </g>
    <g id="ytick_22">
     <g id="line2d_30">
      <g>
       <use style="stroke:#000000;stroke-width:0.6;" x="55.645234" xlink:href="#mb58b2d70c8" y="122.502464"/>
      </g>
     </g>
    </g>
    <g id="ytick_23">
     <g id="line2d_31">
      <g>
       <use style="stroke:#000000;stroke-width:0.6;" x="55.645234" xlink:href="#mb58b2d70c8" y="119.655146"/>
      </g>
     </g>
    </g>
    <g id="ytick_24">
     <g id="line2d_32">
      <g>
       <use style="stroke:#000000;stroke-width:0.6;" x="55.645234" xlink:href="#mb58b2d70c8" y="117.143634"/>
      </g>
     </g>
    </g>
    <g id="ytick_25">
     <g id="line2d_33">
      <g>
       <use style="stroke:#000000;stroke-width:0.6;" x="55.645234" xlink:href="#mb58b2d70c8" y="100.116887"/>
      </g>
     </g>
    </g>
    <g id="ytick_26">
     <g id="line2d_34">
      <g>
       <use style="stroke:#000000;stroke-width:0.6;" x="55.645234" xlink:href="#mb58b2d70c8" y="91.471069"/>
      </g>
     </g>
    </g>
    <g id="ytick_27">
     <g id="line2d_35">
      <g>
       <use style="stroke:#000000;stroke-width:0.6;" x="55.645234" xlink:href="#mb58b2d70c8" y="85.336764"/>
      </g>
     </g>
    </g>
    <g id="ytick_28">
     <g id="line2d_36">
      <g>
       <use style="stroke:#000000;stroke-width:0.6;" x="55.645234" xlink:href="#mb58b2d70c8" y="80.578627"/>
      </g>
     </g>
    </g>
    <g id="ytick_29">
     <g id="line2d_37">
      <g>
       <use style="stroke:#000000;stroke-width:0.6;" x="55.645234" xlink:href="#mb58b2d70c8" y="76.690946"/>
      </g>
     </g>
    </g>
    <g id="ytick_30">
     <g id="line2d_38">
      <g>
       <use style="stroke:#000000;stroke-width:0.6;" x="55.645234" xlink:href="#mb58b2d70c8" y="73.403959"/>
      </g>
     </g>
    </g>
    <g id="ytick_31">
     <g id="line2d_39">
      <g>
       <use style="stroke:#000000;stroke-width:0.6;" x="55.645234" xlink:href="#mb58b2d70c8" y="70.556641"/>
      </g>
     </g>
    </g>
    <g id="ytick_32">
     <g id="line2d_40">
      <g>
       <use style="stroke:#000000;stroke-width:0.6;" x="55.645234" xlink:href="#mb58b2d70c8" y="68.045129"/>
      </g>
     </g>
    </g>
    <g id="ytick_33">
     <g id="line2d_41">
      <g>
       <use style="stroke:#000000;stroke-width:0.6;" x="55.645234" xlink:href="#mb58b2d70c8" y="51.018382"/>
      </g>
     </g>
    </g>
    <g id="ytick_34">
     <g id="line2d_42">
      <g>
       <use style="stroke:#000000;stroke-width:0.6;" x="55.645234" xlink:href="#mb58b2d70c8" y="42.372564"/>
      </g>
     </g>
    </g>
    <g id="ytick_35">
     <g id="line2d_43">
      <g>
       <use style="stroke:#000000;stroke-width:0.6;" x="55.645234" xlink:href="#mb58b2d70c8" y="36.238259"/>
      </g>
     </g>
    </g>
    <g id="ytick_36">
     <g id="line2d_44">
      <g>
       <use style="stroke:#000000;stroke-width:0.6;" x="55.645234" xlink:href="#mb58b2d70c8" y="31.480123"/>
      </g>
     </g>
    </g>
    <g id="ytick_37">
     <g id="line2d_45">
      <g>
       <use style="stroke:#000000;stroke-width:0.6;" x="55.645234" xlink:href="#mb58b2d70c8" y="27.592442"/>
      </g>
     </g>
    </g>
    <g id="ytick_38">
     <g id="line2d_46">
      <g>
       <use style="stroke:#000000;stroke-width:0.6;" x="55.645234" xlink:href="#mb58b2d70c8" y="24.305455"/>
      </g>
     </g>
    </g>
    <g id="ytick_39">
     <g id="line2d_47">
      <g>
       <use style="stroke:#000000;stroke-width:0.6;" x="55.645234" xlink:href="#mb58b2d70c8" y="21.458137"/>
      </g>
     </g>
    </g>
    <g id="ytick_40">
     <g id="line2d_48">
      <g>
       <use style="stroke:#000000;stroke-width:0.6;" x="55.645234" xlink:href="#mb58b2d70c8" y="18.946624"/>
      </g>
     </g>
    </g>
    <g id="text_14">
     <!-- log(Anzahl Tweets / Tag) -->
     <g transform="translate(23.717734 215.822481)rotate(-90)scale(0.16 -0.16)">
      <defs>
       <path d="M 9.421875 75.984375 
L 18.40625 75.984375 
L 18.40625 0 
L 9.421875 0 
z
" id="DejaVuSans-108"/>
       <path d="M 30.609375 48.390625 
Q 23.390625 48.390625 19.1875 42.75 
Q 14.984375 37.109375 14.984375 27.296875 
Q 14.984375 17.484375 19.15625 11.84375 
Q 23.34375 6.203125 30.609375 6.203125 
Q 37.796875 6.203125 41.984375 11.859375 
Q 46.1875 17.53125 46.1875 27.296875 
Q 46.1875 37.015625 41.984375 42.703125 
Q 37.796875 48.390625 30.609375 48.390625 
z
M 30.609375 56 
Q 42.328125 56 49.015625 48.375 
Q 55.71875 40.765625 55.71875 27.296875 
Q 55.71875 13.875 49.015625 6.21875 
Q 42.328125 -1.421875 30.609375 -1.421875 
Q 18.84375 -1.421875 12.171875 6.21875 
Q 5.515625 13.875 5.515625 27.296875 
Q 5.515625 40.765625 12.171875 48.375 
Q 18.84375 56 30.609375 56 
z
" id="DejaVuSans-111"/>
       <path d="M 45.40625 27.984375 
Q 45.40625 37.75 41.375 43.109375 
Q 37.359375 48.484375 30.078125 48.484375 
Q 22.859375 48.484375 18.828125 43.109375 
Q 14.796875 37.75 14.796875 27.984375 
Q 14.796875 18.265625 18.828125 12.890625 
Q 22.859375 7.515625 30.078125 7.515625 
Q 37.359375 7.515625 41.375 12.890625 
Q 45.40625 18.265625 45.40625 27.984375 
z
M 54.390625 6.78125 
Q 54.390625 -7.171875 48.1875 -13.984375 
Q 42 -20.796875 29.203125 -20.796875 
Q 24.46875 -20.796875 20.265625 -20.09375 
Q 16.0625 -19.390625 12.109375 -17.921875 
L 12.109375 -9.1875 
Q 16.0625 -11.328125 19.921875 -12.34375 
Q 23.78125 -13.375 27.78125 -13.375 
Q 36.625 -13.375 41.015625 -8.765625 
Q 45.40625 -4.15625 45.40625 5.171875 
L 45.40625 9.625 
Q 42.625 4.78125 38.28125 2.390625 
Q 33.9375 0 27.875 0 
Q 17.828125 0 11.671875 7.65625 
Q 5.515625 15.328125 5.515625 27.984375 
Q 5.515625 40.671875 11.671875 48.328125 
Q 17.828125 56 27.875 56 
Q 33.9375 56 38.28125 53.609375 
Q 42.625 51.21875 45.40625 46.390625 
L 45.40625 54.6875 
L 54.390625 54.6875 
z
" id="DejaVuSans-103"/>
       <path d="M 31 75.875 
Q 24.46875 64.65625 21.28125 53.65625 
Q 18.109375 42.671875 18.109375 31.390625 
Q 18.109375 20.125 21.3125 9.0625 
Q 24.515625 -2 31 -13.1875 
L 23.1875 -13.1875 
Q 15.875 -1.703125 12.234375 9.375 
Q 8.59375 20.453125 8.59375 31.390625 
Q 8.59375 42.28125 12.203125 53.3125 
Q 15.828125 64.359375 23.1875 75.875 
z
" id="DejaVuSans-40"/>
       <path d="M 34.1875 63.1875 
L 20.796875 26.90625 
L 47.609375 26.90625 
z
M 28.609375 72.90625 
L 39.796875 72.90625 
L 67.578125 0 
L 57.328125 0 
L 50.6875 18.703125 
L 17.828125 18.703125 
L 11.1875 0 
L 0.78125 0 
z
" id="DejaVuSans-65"/>
       <path d="M 54.890625 33.015625 
L 54.890625 0 
L 45.90625 0 
L 45.90625 32.71875 
Q 45.90625 40.484375 42.875 44.328125 
Q 39.84375 48.1875 33.796875 48.1875 
Q 26.515625 48.1875 22.3125 43.546875 
Q 18.109375 38.921875 18.109375 30.90625 
L 18.109375 0 
L 9.078125 0 
L 9.078125 54.6875 
L 18.109375 54.6875 
L 18.109375 46.1875 
Q 21.34375 51.125 25.703125 53.5625 
Q 30.078125 56 35.796875 56 
Q 45.21875 56 50.046875 50.171875 
Q 54.890625 44.34375 54.890625 33.015625 
z
" id="DejaVuSans-110"/>
       <path d="M 5.515625 54.6875 
L 48.1875 54.6875 
L 48.1875 46.484375 
L 14.40625 7.171875 
L 48.1875 7.171875 
L 48.1875 0 
L 4.296875 0 
L 4.296875 8.203125 
L 38.09375 47.515625 
L 5.515625 47.515625 
z
" id="DejaVuSans-122"/>
       <path d="M 34.28125 27.484375 
Q 23.390625 27.484375 19.1875 25 
Q 14.984375 22.515625 14.984375 16.5 
Q 14.984375 11.71875 18.140625 8.90625 
Q 21.296875 6.109375 26.703125 6.109375 
Q 34.1875 6.109375 38.703125 11.40625 
Q 43.21875 16.703125 43.21875 25.484375 
L 43.21875 27.484375 
z
M 52.203125 31.203125 
L 52.203125 0 
L 43.21875 0 
L 43.21875 8.296875 
Q 40.140625 3.328125 35.546875 0.953125 
Q 30.953125 -1.421875 24.3125 -1.421875 
Q 15.921875 -1.421875 10.953125 3.296875 
Q 6 8.015625 6 15.921875 
Q 6 25.140625 12.171875 29.828125 
Q 18.359375 34.515625 30.609375 34.515625 
L 43.21875 34.515625 
L 43.21875 35.40625 
Q 43.21875 41.609375 39.140625 45 
Q 35.0625 48.390625 27.6875 48.390625 
Q 23 48.390625 18.546875 47.265625 
Q 14.109375 46.140625 10.015625 43.890625 
L 10.015625 52.203125 
Q 14.9375 54.109375 19.578125 55.046875 
Q 24.21875 56 28.609375 56 
Q 40.484375 56 46.34375 49.84375 
Q 52.203125 43.703125 52.203125 31.203125 
z
" id="DejaVuSans-97"/>
       <path d="M 54.890625 33.015625 
L 54.890625 0 
L 45.90625 0 
L 45.90625 32.71875 
Q 45.90625 40.484375 42.875 44.328125 
Q 39.84375 48.1875 33.796875 48.1875 
Q 26.515625 48.1875 22.3125 43.546875 
Q 18.109375 38.921875 18.109375 30.90625 
L 18.109375 0 
L 9.078125 0 
L 9.078125 75.984375 
L 18.109375 75.984375 
L 18.109375 46.1875 
Q 21.34375 51.125 25.703125 53.5625 
Q 30.078125 56 35.796875 56 
Q 45.21875 56 50.046875 50.171875 
Q 54.890625 44.34375 54.890625 33.015625 
z
" id="DejaVuSans-104"/>
       <path id="DejaVuSans-32"/>
       <path d="M -0.296875 72.90625 
L 61.375 72.90625 
L 61.375 64.59375 
L 35.5 64.59375 
L 35.5 0 
L 25.59375 0 
L 25.59375 64.59375 
L -0.296875 64.59375 
z
" id="DejaVuSans-84"/>
       <path d="M 4.203125 54.6875 
L 13.1875 54.6875 
L 24.421875 12.015625 
L 35.59375 54.6875 
L 46.1875 54.6875 
L 57.421875 12.015625 
L 68.609375 54.6875 
L 77.59375 54.6875 
L 63.28125 0 
L 52.6875 0 
L 40.921875 44.828125 
L 29.109375 0 
L 18.5 0 
z
" id="DejaVuSans-119"/>
       <path d="M 56.203125 29.59375 
L 56.203125 25.203125 
L 14.890625 25.203125 
Q 15.484375 15.921875 20.484375 11.0625 
Q 25.484375 6.203125 34.421875 6.203125 
Q 39.59375 6.203125 44.453125 7.46875 
Q 49.3125 8.734375 54.109375 11.28125 
L 54.109375 2.78125 
Q 49.265625 0.734375 44.1875 -0.34375 
Q 39.109375 -1.421875 33.890625 -1.421875 
Q 20.796875 -1.421875 13.15625 6.1875 
Q 5.515625 13.8125 5.515625 26.8125 
Q 5.515625 40.234375 12.765625 48.109375 
Q 20.015625 56 32.328125 56 
Q 43.359375 56 49.78125 48.890625 
Q 56.203125 41.796875 56.203125 29.59375 
z
M 47.21875 32.234375 
Q 47.125 39.59375 43.09375 43.984375 
Q 39.0625 48.390625 32.421875 48.390625 
Q 24.90625 48.390625 20.390625 44.140625 
Q 15.875 39.890625 15.1875 32.171875 
z
" id="DejaVuSans-101"/>
       <path d="M 18.3125 70.21875 
L 18.3125 54.6875 
L 36.8125 54.6875 
L 36.8125 47.703125 
L 18.3125 47.703125 
L 18.3125 18.015625 
Q 18.3125 11.328125 20.140625 9.421875 
Q 21.96875 7.515625 27.59375 7.515625 
L 36.8125 7.515625 
L 36.8125 0 
L 27.59375 0 
Q 17.1875 0 13.234375 3.875 
Q 9.28125 7.765625 9.28125 18.015625 
L 9.28125 47.703125 
L 2.6875 47.703125 
L 2.6875 54.6875 
L 9.28125 54.6875 
L 9.28125 70.21875 
z
" id="DejaVuSans-116"/>
       <path d="M 44.28125 53.078125 
L 44.28125 44.578125 
Q 40.484375 46.53125 36.375 47.5 
Q 32.28125 48.484375 27.875 48.484375 
Q 21.1875 48.484375 17.84375 46.4375 
Q 14.5 44.390625 14.5 40.28125 
Q 14.5 37.15625 16.890625 35.375 
Q 19.28125 33.59375 26.515625 31.984375 
L 29.59375 31.296875 
Q 39.15625 29.25 43.1875 25.515625 
Q 47.21875 21.78125 47.21875 15.09375 
Q 47.21875 7.46875 41.1875 3.015625 
Q 35.15625 -1.421875 24.609375 -1.421875 
Q 20.21875 -1.421875 15.453125 -0.5625 
Q 10.6875 0.296875 5.421875 2 
L 5.421875 11.28125 
Q 10.40625 8.6875 15.234375 7.390625 
Q 20.0625 6.109375 24.8125 6.109375 
Q 31.15625 6.109375 34.5625 8.28125 
Q 37.984375 10.453125 37.984375 14.40625 
Q 37.984375 18.0625 35.515625 20.015625 
Q 33.0625 21.96875 24.703125 23.78125 
L 21.578125 24.515625 
Q 13.234375 26.265625 9.515625 29.90625 
Q 5.8125 33.546875 5.8125 39.890625 
Q 5.8125 47.609375 11.28125 51.796875 
Q 16.75 56 26.8125 56 
Q 31.78125 56 36.171875 55.265625 
Q 40.578125 54.546875 44.28125 53.078125 
z
" id="DejaVuSans-115"/>
       <path d="M 25.390625 72.90625 
L 33.6875 72.90625 
L 8.296875 -9.28125 
L 0 -9.28125 
z
" id="DejaVuSans-47"/>
       <path d="M 8.015625 75.875 
L 15.828125 75.875 
Q 23.140625 64.359375 26.78125 53.3125 
Q 30.421875 42.28125 30.421875 31.390625 
Q 30.421875 20.453125 26.78125 9.375 
Q 23.140625 -1.703125 15.828125 -13.1875 
L 8.015625 -13.1875 
Q 14.5 -2 17.703125 9.0625 
Q 20.90625 20.125 20.90625 31.390625 
Q 20.90625 42.671875 17.703125 53.65625 
Q 14.5 64.65625 8.015625 75.875 
z
" id="DejaVuSans-41"/>
      </defs>
      <use xlink:href="#DejaVuSans-108"/>
      <use x="27.783203" xlink:href="#DejaVuSans-111"/>
      <use x="88.964844" xlink:href="#DejaVuSans-103"/>
      <use x="152.441406" xlink:href="#DejaVuSans-40"/>
      <use x="191.455078" xlink:href="#DejaVuSans-65"/>
      <use x="259.863281" xlink:href="#DejaVuSans-110"/>
      <use x="323.242188" xlink:href="#DejaVuSans-122"/>
      <use x="375.732422" xlink:href="#DejaVuSans-97"/>
      <use x="437.011719" xlink:href="#DejaVuSans-104"/>
      <use x="500.390625" xlink:href="#DejaVuSans-108"/>
      <use x="528.173828" xlink:href="#DejaVuSans-32"/>
      <use x="559.960938" xlink:href="#DejaVuSans-84"/>
      <use x="604.544922" xlink:href="#DejaVuSans-119"/>
      <use x="686.332031" xlink:href="#DejaVuSans-101"/>
      <use x="747.855469" xlink:href="#DejaVuSans-101"/>
      <use x="809.378906" xlink:href="#DejaVuSans-116"/>
      <use x="848.587891" xlink:href="#DejaVuSans-115"/>
      <use x="900.6875" xlink:href="#DejaVuSans-32"/>
      <use x="932.474609" xlink:href="#DejaVuSans-47"/>
      <use x="966.166016" xlink:href="#DejaVuSans-32"/>
      <use x="997.953125" xlink:href="#DejaVuSans-84"/>
      <use x="1042.537109" xlink:href="#DejaVuSans-97"/>
      <use x="1103.816406" xlink:href="#DejaVuSans-103"/>
      <use x="1167.292969" xlink:href="#DejaVuSans-41"/>
     </g>
    </g>
   </g>
   <g id="line2d_49">
    <path clip-path="url(#p4e2fdb204a)" d="M 71.665839 187.728268 
L 71.925282 190.708441 
L 72.184725 185.950305 
L 72.444168 183.533773 
L 72.703611 184.309248 
L 72.963054 179.393744 
L 73.222497 178.174943 
L 73.48194 171.600968 
L 74.260269 172.948145 
L 74.779155 175.401793 
L 75.298041 175.928319 
L 75.557484 175.928319 
L 77.114142 178.174943 
L 78.411357 196.842746 
L 78.6708 198.313896 
L 80.486901 198.313896 
L 80.746344 199.894116 
L 82.303002 201.600883 
L 83.081331 205.488564 
L 83.340774 205.488564 
L 85.675761 184.309248 
L 85.935204 173.896 
L 86.194647 173.416806 
L 86.713533 173.896 
L 86.972976 172.948145 
L 87.232419 173.416806 
L 87.491862 173.416806 
L 87.751305 182.785514 
L 89.307963 201.600883 
L 89.826849 205.488564 
L 100.464012 205.488564 
L 103.317885 203.456245 
L 106.4312 203.456245 
L 106.950086 182.785514 
L 107.468972 181.36344 
L 110.322845 169.529125 
L 110.582288 169.529125 
L 125.111096 169.137863 
L 130.040513 165.250182 
L 130.559399 162.524364 
L 130.818842 169.137863 
L 131.337728 168.005391 
L 131.597171 166.242138 
L 132.116057 180.030305 
L 132.3755 178.775637 
L 132.894386 179.393744 
L 133.153829 180.686455 
L 133.672715 181.36344 
L 133.932158 185.113993 
L 134.96993 180.686455 
L 145.34765 177.022056 
L 147.423194 181.36344 
L 147.682637 182.785514 
L 148.979852 185.113993 
L 149.498738 173.416806 
L 149.758181 173.896 
L 150.017624 172.040638 
L 150.53651 172.040638 
L 150.795953 172.948145 
L 151.055395 172.040638 
L 151.314838 173.896 
L 152.612053 179.393744 
L 152.871496 181.36344 
L 153.130939 189.668078 
L 154.687597 186.82076 
L 154.94704 178.775637 
L 155.206483 174.38621 
L 155.725369 178.775637 
L 155.984812 178.775637 
L 156.244255 180.030305 
L 159.098128 180.030305 
L 165.065317 182.062624 
L 165.32476 181.36344 
L 165.584203 185.113993 
L 166.621975 185.113993 
L 167.140861 182.785514 
L 167.400304 179.393744 
L 169.216405 178.174943 
L 170.254177 177.022056 
L 170.773063 182.062624 
L 171.032506 180.030305 
L 171.291949 182.785514 
L 172.589164 180.030305 
L 173.10805 180.686455 
L 173.626936 182.062624 
L 174.145822 188.676122 
L 174.664708 189.668078 
L 174.924151 179.393744 
L 175.70248 171.600968 
L 175.961923 170.33387 
L 176.221366 170.747926 
L 176.999695 170.747926 
L 177.259138 169.927702 
L 177.518581 169.927702 
L 182.966884 179.393744 
L 183.226327 185.950305 
L 183.48577 185.113993 
L 183.745213 185.113993 
L 184.004656 182.062624 
L 184.264099 172.948145 
L 184.523542 168.005391 
L 189.712402 172.948145 
L 189.971845 174.38621 
L 191.787946 170.747926 
L 192.306832 176.468176 
L 192.566275 182.785514 
L 193.085161 182.785514 
L 195.420148 182.062624 
L 197.755134 187.728268 
L 198.014577 186.82076 
L 198.533463 183.533773 
L 199.830678 191.802179 
L 200.609007 168.376239 
L 200.86845 168.753651 
L 201.387336 161.416416 
L 201.646779 152.86076 
L 201.906222 151.803194 
L 202.165665 151.975853 
L 202.425108 155.967804 
L 203.46288 159.855484 
L 203.722323 157.709441 
L 203.981766 163.100702 
L 204.241209 180.030305 
L 204.760095 185.113993 
L 205.278981 182.062624 
L 205.538424 177.022056 
L 205.797867 181.36344 
L 206.576196 183.533773 
L 206.835639 182.785514 
L 207.095082 177.022056 
L 207.354525 175.928319 
L 208.392297 177.022056 
L 211.505613 182.785514 
L 212.283942 183.533773 
L 221.62389 182.785514 
L 222.661662 183.533773 
L 223.180548 194.173866 
L 223.699434 201.600883 
L 224.477763 188.676122 
L 226.81275 188.676122 
L 227.072193 187.728268 
L 228.888294 188.676122 
L 229.147737 179.393744 
L 229.40718 174.887956 
L 230.185509 180.686455 
L 230.963838 180.686455 
L 231.223281 177.022056 
L 231.742167 177.590709 
L 232.261053 176.468176 
L 232.520496 184.309248 
L 232.779939 184.309248 
L 233.039382 182.785514 
L 233.298825 182.785514 
L 234.336597 187.728268 
L 234.59604 176.468176 
L 234.855483 176.468176 
L 236.671584 175.928319 
L 236.931027 180.030305 
L 237.709356 180.686455 
L 240.303786 181.36344 
L 240.563228 177.022056 
L 241.082114 182.785514 
L 241.341557 184.309248 
L 242.119886 185.950305 
L 242.379329 178.775637 
L 242.638772 179.393744 
L 242.898215 179.393744 
L 243.417101 186.82076 
L 243.676544 183.533773 
L 245.492645 183.533773 
L 245.752088 192.955066 
L 248.087075 192.955066 
L 248.605961 195.466578 
L 256.129808 201.600883 
L 256.389251 210.246701 
L 258.205352 210.246701 
L 263.134769 205.488564 
L 263.394212 185.950305 
L 263.653655 185.950305 
L 265.988642 178.775637 
L 266.766971 178.775637 
L 267.285857 169.529125 
L 267.804743 169.137863 
L 268.583072 170.33387 
L 268.842515 177.590709 
L 269.361401 175.928319 
L 269.620844 180.030305 
L 269.880287 178.775637 
L 270.399173 195.466578 
L 270.658616 186.82076 
L 270.918059 183.533773 
L 271.696388 183.533773 
L 272.215274 181.36344 
L 272.73416 161.688053 
L 272.993603 160.62167 
L 273.253046 160.107833 
L 273.512489 161.148196 
L 274.290818 162.241934 
L 274.809704 153.973528 
L 275.069147 161.963195 
L 275.32859 152.86076 
L 275.588033 151.293452 
L 275.847476 151.462016 
L 276.366362 150.632214 
L 276.625805 153.596116 
L 278.441906 158.874934 
L 278.701349 173.896 
L 278.960792 178.174943 
L 279.220235 180.030305 
L 279.479678 168.753651 
L 279.739121 170.33387 
L 279.998564 151.293452 
L 280.258007 144.579451 
L 280.776893 144.579451 
L 281.036336 144.094812 
L 281.295779 147.744242 
L 281.814665 147.744242 
L 282.074108 163.39482 
L 282.333551 185.950305 
L 282.592994 184.309248 
L 283.11188 185.950305 
L 283.371323 185.950305 
L 283.630766 183.533773 
L 283.890209 175.928319 
L 284.149652 173.896 
L 284.668538 175.928319 
L 284.927981 172.948145 
L 285.187423 164.613621 
L 285.446866 163.39482 
L 285.706309 161.148196 
L 285.965752 165.575734 
L 286.744081 166.930043 
L 287.003524 166.930043 
L 287.262967 168.753651 
L 287.781853 168.005391 
L 288.041296 172.489564 
L 288.300739 174.38621 
L 288.560182 172.948145 
L 289.079068 171.170182 
L 289.338511 171.600968 
L 289.597954 185.950305 
L 289.857397 190.708441 
L 290.376283 182.785514 
L 290.635726 182.785514 
L 292.71127 184.309248 
L 292.970713 183.533773 
L 293.230156 175.928319 
L 293.489599 177.590709 
L 294.786814 173.416806 
L 295.046257 178.174943 
L 295.824586 177.022056 
L 296.343472 178.174943 
L 298.419016 180.686455 
L 298.678459 192.955066 
L 300.235117 181.36344 
L 300.49456 185.950305 
L 300.754003 185.113993 
L 302.051218 180.030305 
L 302.310661 176.468176 
L 302.570104 177.022056 
L 303.08899 177.022056 
L 303.348433 185.950305 
L 303.607876 187.728268 
L 304.386205 188.676122 
L 304.905091 196.842746 
L 306.980635 205.488564 
L 307.240078 182.785514 
L 307.499521 182.785514 
L 307.758964 180.686455 
L 308.796736 180.686455 
L 309.056179 182.062624 
L 311.391166 182.785514 
L 313.985596 203.456245 
L 314.245039 199.894116 
L 314.763925 178.775637 
L 315.023368 175.928319 
L 315.282811 174.887956 
L 316.320583 171.600968 
L 316.580026 171.170182 
L 317.617798 169.927702 
L 321.768886 173.896 
L 322.287772 172.489564 
L 322.547215 166.930043 
L 323.066101 163.995514 
L 323.325544 165.906333 
L 323.584987 166.242138 
L 328.254961 167.282501 
L 329.03329 168.005391 
L 330.330504 174.38621 
L 333.184377 186.82076 
L 333.44382 117.519232 
L 333.703263 107.291555 
L 333.962706 105.278629 
L 334.481592 104.628947 
L 334.741035 103.961964 
L 335.000478 103.744193 
L 335.259921 117.866524 
L 335.519364 138.629763 
L 335.778807 148.32058 
L 336.557136 151.631923 
L 336.816579 158.874934 
L 337.076022 157.937499 
L 337.335465 166.242138 
L 337.594908 166.242138 
L 337.854351 169.137863 
L 338.113794 174.887956 
L 338.373237 174.887956 
L 339.670452 175.401793 
L 339.929895 176.468176 
L 340.448781 155.759771 
L 340.708224 155.147579 
L 340.967667 151.631923 
L 341.22711 125.287705 
L 341.486553 121.775223 
L 341.745996 121.194399 
L 342.264882 122.897756 
L 342.524325 122.721165 
L 342.783768 123.391059 
L 343.043211 145.583081 
L 343.302654 157.483797 
L 343.562097 144.335754 
L 343.82154 123.300515 
L 344.080983 119.017465 
L 344.340426 118.906886 
L 344.599869 118.43423 
L 344.859312 118.255193 
L 345.118755 115.142106 
L 345.378198 117.901566 
L 345.637641 126.883189 
L 345.897084 131.788799 
L 346.156527 130.358047 
L 346.41597 130.295239 
L 346.675413 130.358047 
L 346.934856 137.545299 
L 347.194299 139.193405 
L 347.972628 172.489564 
L 349.0104 182.062624 
L 349.269843 187.728268 
L 349.788729 188.676122 
L 350.307615 191.802179 
L 350.567058 191.802179 
L 350.826501 194.173866 
L 351.345387 157.937499 
L 351.60483 154.164769 
L 352.383159 150.47006 
L 352.642602 143.975354 
L 352.902045 141.503586 
L 353.161488 150.632214 
L 353.680374 149.063624 
L 354.19926 143.975354 
L 354.458703 150.309129 
L 354.718146 152.149921 
L 354.977589 152.325421 
L 355.237032 156.390059 
L 355.496475 157.937499 
L 355.755918 161.963195 
L 356.015361 168.376239 
L 356.534247 165.575734 
L 357.053133 169.529125 
L 357.572019 167.640883 
L 357.831462 166.242138 
L 358.090905 151.462016 
L 358.350348 152.325421 
L 358.609791 149.522205 
L 358.869234 148.763292 
L 359.128677 148.614698 
L 359.38812 147.461811 
L 359.647563 148.467132 
L 359.907006 162.524364 
L 360.166449 162.241934 
L 360.425892 170.33387 
L 361.204221 172.040638 
L 361.463664 173.416806 
L 361.98255 173.416806 
L 362.241993 170.33387 
L 362.501436 170.33387 
L 363.020322 164.929526 
L 363.279765 164.929526 
L 363.539208 163.693052 
L 363.798651 153.596116 
L 364.317537 146.636293 
L 364.57698 146.501762 
L 365.095866 142.480393 
L 365.355309 142.369622 
L 365.874195 150.149404 
L 366.133638 155.553748 
L 366.911967 146.103185 
L 367.17141 147.602559 
L 367.430853 147.744242 
L 367.690296 145.455014 
L 367.949739 145.841548 
L 368.209182 146.90793 
L 368.468625 147.045058 
L 368.728068 157.039547 
L 369.506397 168.753651 
L 370.025283 179.393744 
L 370.544169 164.929526 
L 370.803612 159.359574 
L 371.322498 153.973528 
L 372.100827 153.783987 
L 372.36027 148.467132 
L 372.619713 152.149921 
L 372.879156 148.175028 
L 373.398042 154.164769 
L 373.916928 157.709441 
L 374.176371 158.168023 
L 374.435814 169.137863 
L 374.695257 170.747926 
L 374.954699 201.600883 
L 375.733028 170.33387 
L 376.251914 166.583317 
L 376.511357 166.242138 
L 376.7708 162.524364 
L 377.289686 161.688053 
L 377.549129 161.688053 
L 377.808572 172.489564 
L 378.068015 169.529125 
L 378.327458 164.302328 
L 378.586901 161.688053 
L 378.846344 165.250182 
L 379.36523 166.242138 
L 379.624673 165.575734 
L 379.884116 157.260515 
L 380.143559 160.107833 
L 380.662445 147.321986 
L 381.181331 146.235218 
L 381.440774 142.929319 
L 381.700217 146.771679 
L 381.95966 146.90793 
L 382.219103 154.35774 
L 382.478546 165.250182 
L 382.737989 166.583317 
L 382.997432 159.359574 
L 383.256875 164.613621 
L 383.516318 165.906333 
L 385.072976 160.363204 
L 385.332419 162.241934 
L 385.591862 162.241934 
L 385.851305 154.749003 
L 386.110748 159.115877 
L 386.629634 161.688053 
L 386.889077 148.175028 
L 387.14852 149.677284 
L 387.667406 149.677284 
L 387.926849 155.147579 
L 388.705178 154.94736 
L 388.964621 152.149921 
L 389.483507 171.600968 
L 389.74295 174.887956 
L 390.002393 175.401793 
L 390.521279 177.022056 
L 390.780722 159.359574 
L 391.040165 96.356509 
L 391.299608 84.581153 
L 391.818494 80.756041 
L 392.077937 78.557388 
L 392.077937 78.557388 
" style="fill:none;stroke:#808080;stroke-linecap:square;stroke-width:2;"/>
   </g>
   <g id="line2d_50">
    <path clip-path="url(#p4e2fdb204a)" d="M 177.518581 129.555632 
L 177.778024 126.096265 
L 178.037467 125.637684 
L 178.29691 125.840281 
L 178.556353 134.511559 
L 179.075239 142.703674 
L 179.594125 139.480914 
L 180.113011 148.763292 
L 180.372454 148.467132 
L 180.631897 145.841548 
L 180.89134 145.455014 
L 181.150783 144.335754 
L 181.410226 148.32058 
L 181.669669 146.636293 
L 181.929112 146.90793 
L 182.188555 147.461811 
L 182.447998 150.47006 
L 182.966884 153.042235 
L 183.226327 151.803194 
L 183.745213 146.636293 
L 184.004656 140.468276 
L 184.264099 126.936697 
L 184.523542 122.329103 
L 184.782985 121.482833 
L 185.042428 121.986555 
L 185.301871 121.94412 
L 185.561314 120.909814 
L 185.820757 120.990737 
L 186.339643 135.60932 
L 186.599086 137.19573 
L 186.858529 137.811288 
L 187.377415 147.321986 
L 187.636858 154.552474 
L 187.896301 158.168023 
L 188.155744 159.359574 
L 188.934073 157.483797 
L 189.193516 150.632214 
L 189.712402 144.702352 
L 189.971845 144.579451 
L 190.231288 143.272327 
L 190.490731 139.772352 
L 190.750174 137.811288 
L 191.009617 139.288811 
L 191.528503 127.479302 
L 191.787946 125.287705 
L 192.047389 125.287705 
L 192.306832 125.587334 
L 192.566275 126.883189 
L 192.825718 126.723464 
L 193.085161 130.738829 
L 193.604047 145.455014 
L 194.122933 145.075362 
L 194.641819 141.932208 
L 195.420148 148.32058 
L 195.67959 148.175028 
L 195.939033 150.309129 
L 196.198476 156.390059 
L 196.717362 160.883308 
L 196.976805 157.709441 
L 197.236248 151.12621 
L 197.755134 146.368073 
L 198.014577 148.030464 
L 198.533463 141.292464 
L 198.792906 144.335754 
L 199.052349 148.912929 
L 199.571235 154.552474 
L 199.830678 151.975853 
L 200.090121 152.680816 
L 200.609007 140.167237 
L 201.387336 138.171182 
L 201.646779 130.996514 
L 201.906222 129.37467 
L 202.165665 124.176619 
L 202.425108 125.587334 
L 202.684551 127.644813 
L 202.943994 127.424416 
L 203.203437 123.896046 
L 203.46288 127.369671 
L 203.722323 126.829814 
L 203.981766 133.983169 
L 204.241209 136.346087 
L 204.500652 137.282586 
L 204.760095 130.48422 
L 205.019538 132.127808 
L 205.278981 129.677132 
L 205.538424 129.195231 
L 206.05731 126.407558 
L 206.316753 126.044822 
L 206.576196 132.127808 
L 207.354525 143.504103 
L 207.613968 147.045058 
L 207.873411 152.502378 
L 208.132854 155.147579 
L 208.392297 156.177886 
L 208.65174 160.883308 
L 208.911183 168.753651 
L 209.170626 160.363204 
L 209.430069 155.759771 
L 209.689512 156.604365 
L 209.948955 156.177886 
L 210.208398 156.820846 
L 210.467841 155.759771 
L 210.727284 155.349696 
L 210.986727 165.575734 
L 211.765056 145.075362 
L 212.024499 144.214943 
L 212.283942 144.214943 
L 212.543385 141.292464 
L 212.802828 141.083411 
L 213.581157 165.906333 
L 213.8406 165.906333 
L 214.100043 168.005391 
L 214.359486 174.38621 
L 214.618929 174.38621 
L 214.878372 172.489564 
L 215.137815 172.489564 
L 215.397258 172.948145 
L 216.175587 173.896 
L 216.43503 173.896 
L 217.472802 184.309248 
L 218.251131 192.955066 
L 218.510574 181.36344 
L 218.770017 181.36344 
L 219.02946 184.309248 
L 219.548346 179.393744 
L 219.807789 180.030305 
L 220.067232 175.928319 
L 220.326675 169.927702 
L 220.586118 171.600968 
L 220.845561 167.640883 
L 221.105004 166.242138 
L 221.364447 163.39482 
L 221.62389 157.039547 
L 221.883333 154.749003 
L 222.142776 157.483797 
L 222.402219 158.636684 
L 223.439991 160.883308 
L 223.699434 160.107833 
L 223.958877 163.39482 
L 224.21832 171.600968 
L 224.477763 169.529125 
L 224.737206 165.575734 
L 224.996649 165.250182 
L 225.774978 160.107833 
L 226.034421 150.309129 
L 226.293864 149.990866 
L 226.81275 153.042235 
L 227.072193 153.225268 
L 227.591079 154.552474 
L 228.109965 176.468176 
L 228.369408 177.022056 
L 228.628851 171.170182 
L 229.147737 154.164769 
L 229.40718 151.803194 
L 229.666623 152.149921 
L 230.185509 151.12621 
L 230.704395 146.103185 
L 230.963838 148.467132 
L 231.223281 147.045058 
L 231.482724 146.501762 
L 231.742167 146.368073 
L 232.00161 145.711923 
L 232.261053 143.3879 
L 233.039382 133.035315 
L 233.558268 129.799328 
L 233.817711 130.295239 
L 234.077154 129.37467 
L 234.336597 130.611144 
L 234.59604 133.467557 
L 234.855483 134.511559 
L 235.114926 137.19573 
L 235.633812 139.288811 
L 235.893255 137.900694 
L 236.412141 142.703674 
L 236.671584 140.468276 
L 236.931027 140.569574 
L 237.709356 144.094812 
L 237.968799 142.703674 
L 238.228242 139.193405 
L 238.747128 147.744242 
L 239.006571 147.744242 
L 239.266014 147.886872 
L 239.525457 148.614698 
L 239.7849 151.803194 
L 240.044343 160.107833 
L 240.303786 160.363204 
L 240.563228 157.260515 
L 240.822671 158.401066 
L 241.082114 156.390059 
L 241.341557 149.063624 
L 241.860443 152.86076 
L 242.638772 149.677284 
L 242.898215 149.677284 
L 243.157658 154.35774 
L 243.417101 153.973528 
L 243.676544 155.759771 
L 243.935987 160.62167 
L 244.19543 170.747926 
L 244.454873 170.747926 
L 244.973759 169.137863 
L 245.233202 170.33387 
L 245.752088 159.359574 
L 246.011531 156.390059 
L 246.270974 157.260515 
L 247.049303 145.201163 
L 247.308746 144.579451 
L 247.568189 146.90793 
L 247.827632 147.602559 
L 248.087075 145.971965 
L 248.346518 147.602559 
L 248.605961 150.149404 
L 249.124847 157.260515 
L 249.38429 156.177886 
L 249.643733 153.973528 
L 249.903176 153.225268 
L 250.422062 158.401066 
L 250.940948 145.201163 
L 251.200391 143.157377 
L 251.719277 144.579451 
L 251.97872 143.620943 
L 252.238163 143.738427 
L 252.497606 150.309129 
L 253.016492 168.376239 
L 253.535378 179.393744 
L 253.794821 184.309248 
L 254.054264 194.173866 
L 254.313707 190.708441 
L 254.57315 190.708441 
L 254.832593 189.668078 
L 255.092036 185.950305 
L 255.351479 187.728268 
L 255.610922 190.708441 
L 255.870365 176.468176 
L 256.129808 174.38621 
L 256.389251 173.416806 
L 256.648694 161.963195 
L 256.908137 156.820846 
L 257.427023 153.225268 
L 257.945909 141.397764 
L 258.205352 126.044822 
L 258.464795 122.853471 
L 258.724238 123.210353 
L 259.243124 122.677245 
L 259.76201 124.89464 
L 260.280896 147.461811 
L 260.540339 146.368073 
L 261.059225 148.763292 
L 261.318668 151.631923 
L 261.837554 161.416416 
L 262.35644 157.709441 
L 262.615883 162.241934 
L 262.875326 163.693052 
L 263.134769 162.524364 
L 263.394212 163.100702 
L 263.913098 157.483797 
L 264.172541 158.874934 
L 264.431984 158.401066 
L 264.691427 159.359574 
L 264.95087 156.390059 
L 265.210313 149.215391 
L 265.469756 136.262956 
L 265.729199 135.529006 
L 265.988642 132.541864 
L 266.248085 132.127808 
L 266.507528 131.323063 
L 266.766971 131.788799 
L 267.026414 133.178425 
L 267.285857 141.71682 
L 267.5453 142.703674 
L 267.804743 148.912929 
L 268.064186 151.293452 
L 268.583072 151.293452 
L 268.842515 149.063624 
L 269.101958 151.462016 
L 269.361401 158.401066 
L 269.620844 160.363204 
L 269.880287 161.416416 
L 270.13973 160.883308 
L 270.399173 159.606087 
L 270.918059 166.583317 
L 271.177502 162.241934 
L 271.436945 151.975853 
L 271.696388 150.47006 
L 272.215274 146.771679 
L 272.474717 147.744242 
L 272.993603 140.876388 
L 273.253046 141.824242 
L 273.512489 147.461811 
L 273.771932 148.912929 
L 274.290818 149.368246 
L 274.550261 153.409886 
L 274.809704 154.749003 
L 275.069147 151.975853 
L 275.32859 147.602559 
L 275.588033 146.771679 
L 275.847476 149.990866 
L 276.106919 150.795611 
L 276.366362 153.783987 
L 276.625805 152.680816 
L 276.885248 156.820846 
L 277.144691 157.260515 
L 277.404134 158.874934 
L 277.663577 153.225268 
L 277.92302 151.462016 
L 278.182463 148.912929 
L 278.701349 139.870389 
L 278.960792 141.397764 
L 279.220235 140.067828 
L 279.479678 141.292464 
L 279.739121 141.292464 
L 279.998564 142.369622 
L 280.776893 155.759771 
L 281.036336 158.168023 
L 281.555222 164.613621 
L 281.814665 165.575734 
L 282.074108 169.529125 
L 282.592994 161.148196 
L 283.11188 158.636684 
L 283.371323 158.874934 
L 283.630766 156.604365 
L 283.890209 155.349696 
L 284.149652 158.401066 
L 284.409095 163.693052 
L 284.668538 163.39482 
L 284.927981 162.810586 
L 285.446866 160.107833 
L 285.706309 161.416416 
L 285.965752 147.461811 
L 286.225195 146.368073 
L 286.484638 147.461811 
L 286.744081 146.90793 
L 287.003524 146.636293 
L 287.52241 151.462016 
L 287.781853 172.489564 
L 288.041296 173.896 
L 288.560182 171.170182 
L 289.079068 180.030305 
L 289.338511 180.030305 
L 289.597954 171.170182 
L 289.857397 168.005391 
L 290.11684 168.376239 
L 290.895169 161.963195 
L 291.154612 161.416416 
L 291.414055 166.583317 
L 291.673498 167.640883 
L 291.932941 168.005391 
L 292.451827 174.38621 
L 292.71127 175.928319 
L 292.970713 176.468176 
L 293.230156 169.927702 
L 293.489599 172.040638 
L 294.267928 169.927702 
L 294.527371 160.62167 
L 294.786814 158.636684 
L 295.046257 157.709441 
L 295.3057 156.177886 
L 295.565143 158.874934 
L 295.824586 156.177886 
L 296.084029 140.876388 
L 296.343472 139.288811 
L 296.602915 140.671355 
L 296.862358 139.288811 
L 297.121801 140.167237 
L 297.381244 139.772352 
L 297.640687 139.098424 
L 297.90013 149.215391 
L 298.159573 153.225268 
L 298.419016 151.462016 
L 298.678459 155.147579 
L 298.937902 154.164769 
L 299.456788 153.783987 
L 299.975674 160.62167 
L 300.235117 155.349696 
L 300.49456 156.177886 
L 300.754003 149.833499 
L 301.013446 147.744242 
L 301.272889 148.32058 
L 301.791775 142.480393 
L 302.051218 144.825965 
L 302.310661 144.702352 
L 302.570104 148.467132 
L 303.08899 149.522205 
L 303.607876 142.149794 
L 304.126762 147.744242 
L 304.645648 149.368246 
L 304.905091 149.368246 
L 305.164534 153.973528 
L 305.423977 160.883308 
L 305.68342 160.883308 
L 306.202306 164.302328 
L 306.461749 163.100702 
L 306.980635 158.636684 
L 307.240078 152.502378 
L 307.499521 152.502378 
L 307.758964 151.293452 
L 308.018407 150.632214 
L 308.537293 151.462016 
L 308.796736 154.94736 
L 309.056179 156.820846 
L 309.315622 169.529125 
L 309.834508 175.401793 
L 310.353394 176.468176 
L 310.612837 174.38621 
L 310.87228 161.148196 
L 311.131723 160.883308 
L 311.391166 160.883308 
L 311.650609 161.688053 
L 312.169495 162.524364 
L 312.428938 162.524364 
L 312.688381 162.810586 
L 312.947824 178.174943 
L 313.207267 185.950305 
L 313.46671 189.668078 
L 313.985596 186.82076 
L 314.245039 183.533773 
L 314.504482 170.747926 
L 314.763925 165.575734 
L 315.282811 164.302328 
L 315.801697 159.855484 
L 316.06114 160.107833 
L 316.320583 159.606087 
L 316.839469 173.896 
L 317.358355 175.401793 
L 317.617798 173.896 
L 318.396127 179.393744 
L 318.65557 182.062624 
L 319.174456 185.950305 
L 319.433899 184.309248 
L 319.693342 163.995514 
L 320.212228 158.636684 
L 320.731114 157.483797 
L 320.990557 157.709441 
L 321.509443 156.177886 
L 321.768886 162.241934 
L 322.028329 163.995514 
L 322.547215 171.170182 
L 322.806658 171.170182 
L 323.066101 169.927702 
L 323.325544 164.929526 
L 323.584987 166.242138 
L 324.103873 167.640883 
L 324.363316 169.137863 
L 324.622759 169.927702 
L 324.882202 167.640883 
L 325.141645 163.995514 
L 325.660531 167.282501 
L 325.919974 168.005391 
L 326.179417 167.640883 
L 326.698303 166.242138 
L 326.957746 167.282501 
L 327.476632 177.022056 
L 327.736075 168.376239 
L 327.995518 167.282501 
L 328.254961 165.575734 
L 328.514404 161.416416 
L 328.773847 161.416416 
L 329.03329 161.148196 
L 329.292733 158.636684 
L 329.811619 155.349696 
L 330.071061 155.967804 
L 330.330504 159.855484 
L 330.589947 161.148196 
L 330.84939 161.416416 
L 331.108833 165.575734 
L 331.627719 182.785514 
L 331.887162 181.36344 
L 332.146605 177.590709 
L 333.184377 173.416806 
L 333.44382 146.368073 
L 333.703263 137.282586 
L 333.962706 134.588124 
L 334.222149 134.819481 
L 334.481592 134.819481 
L 334.741035 134.975126 
L 335.000478 135.448994 
L 335.259921 146.501762 
L 335.778807 159.606087 
L 336.03825 175.401793 
L 336.557136 177.022056 
L 336.816579 177.022056 
L 337.335465 176.468176 
L 337.594908 164.302328 
L 337.854351 161.148196 
L 338.113794 164.613621 
L 338.373237 165.250182 
L 338.63268 166.583317 
L 338.892123 166.242138 
L 339.151566 166.930043 
L 339.411009 161.148196 
L 339.670452 161.688053 
L 340.189338 140.067828 
L 340.448781 136.180147 
L 340.708224 136.097659 
L 340.967667 135.289865 
L 341.22711 137.023072 
L 341.486553 133.983169 
L 341.745996 133.760664 
L 342.005439 139.384646 
L 342.264882 140.876388 
L 342.524325 140.876388 
L 342.783768 141.187681 
L 343.043211 143.620943 
L 343.302654 149.368246 
L 343.562097 147.744242 
L 343.82154 139.384646 
L 344.080983 138.815994 
L 344.340426 138.629763 
L 344.599869 139.003864 
L 345.118755 136.513329 
L 345.637641 143.272327 
L 345.897084 144.702352 
L 346.156527 143.856561 
L 346.41597 143.620943 
L 346.675413 144.457255 
L 346.934856 147.321986 
L 347.194299 151.975853 
L 347.453742 163.100702 
L 348.491514 167.640883 
L 348.750957 170.33387 
L 349.0104 169.137863 
L 349.269843 171.170182 
L 349.788729 170.747926 
L 350.048172 172.489564 
L 350.307615 169.927702 
L 350.567058 171.170182 
L 350.826501 163.39482 
L 351.345387 154.552474 
L 351.60483 153.596116 
L 351.864273 150.47006 
L 352.123716 149.368246 
L 352.383159 143.157377 
L 352.642602 142.480393 
L 352.902045 142.369622 
L 353.420931 137.900694 
L 353.680374 139.003864 
L 353.939817 136.8518 
L 354.19926 139.193405 
L 354.458703 137.811288 
L 354.718146 137.19573 
L 355.237032 144.214943 
L 355.496475 144.094812 
L 355.755918 148.912929 
L 356.274804 148.175028 
L 356.534247 145.075362 
L 356.79369 143.856561 
L 357.053133 143.504103 
L 357.312576 141.71682 
L 357.572019 136.015488 
L 357.831462 133.687009 
L 358.090905 133.322501 
L 358.350348 139.098424 
L 358.609791 141.932208 
L 358.869234 143.043043 
L 359.128677 144.825965 
L 359.38812 151.803194 
L 359.647563 155.147579 
L 359.907006 160.62167 
L 360.425892 156.604365 
L 360.685335 159.115877 
L 360.944778 159.115877 
L 361.204221 153.409886 
L 361.723107 157.039547 
L 361.98255 156.390059 
L 362.501436 144.335754 
L 362.760879 143.975354 
L 363.020322 146.771679 
L 363.279765 145.075362 
L 363.539208 144.457255 
L 363.798651 142.480393 
L 364.57698 152.149921 
L 364.836423 150.309129 
L 365.095866 152.502378 
L 365.355309 145.075362 
L 365.614752 144.094812 
L 365.874195 144.457255 
L 366.133638 146.103185 
L 366.393081 145.971965 
L 366.911967 148.175028 
L 367.17141 146.501762 
L 367.430853 151.293452 
L 367.690296 153.973528 
L 367.949739 153.783987 
L 368.209182 154.35774 
L 368.468625 151.293452 
L 368.728068 142.259425 
L 368.987511 142.369622 
L 369.246954 142.929319 
L 369.506397 145.455014 
L 369.76584 146.636293 
L 370.025283 146.235218 
L 370.284726 146.368073 
L 370.544169 156.390059 
L 370.803612 151.12621 
L 371.063055 152.86076 
L 371.322498 151.803194 
L 371.581941 152.680816 
L 371.841384 148.763292 
L 372.100827 150.309129 
L 372.36027 149.215391 
L 372.619713 158.168023 
L 372.879156 151.803194 
L 373.398042 153.783987 
L 374.176371 154.749003 
L 374.435814 152.680816 
L 374.695257 153.596116 
L 374.954699 153.225268 
L 375.214142 163.693052 
L 375.473585 163.995514 
L 375.733028 155.147579 
L 376.251914 158.636684 
L 376.511357 159.115877 
L 376.7708 156.604365 
L 377.030243 157.039547 
L 377.289686 155.147579 
L 377.808572 159.606087 
L 378.068015 160.107833 
L 379.36523 165.906333 
L 379.624673 165.575734 
L 379.884116 168.376239 
L 380.143559 178.775637 
L 380.403002 180.030305 
L 380.662445 174.887956 
L 380.921888 174.887956 
L 381.181331 172.948145 
L 381.700217 171.170182 
L 382.219103 165.575734 
L 382.478546 171.600968 
L 383.516318 158.168023 
L 383.775761 158.168023 
L 384.035204 158.636684 
L 384.294647 157.937499 
L 384.813533 160.107833 
L 385.072976 155.349696 
L 385.332419 160.62167 
L 385.591862 161.963195 
L 385.851305 161.416416 
L 386.110748 149.677284 
L 386.370191 148.912929 
L 386.629634 148.912929 
L 386.889077 147.744242 
L 387.14852 147.183072 
L 387.407963 146.90793 
L 387.667406 142.040723 
L 387.926849 148.467132 
L 388.186292 150.632214 
L 388.445735 150.96027 
L 388.964621 155.553748 
L 389.224064 156.390059 
L 389.483507 167.640883 
L 389.74295 167.640883 
L 390.002393 162.524364 
L 390.261836 160.62167 
L 390.521279 165.250182 
L 390.780722 164.613621 
L 391.040165 151.293452 
L 392.077937 131.65469 
L 392.077937 131.65469 
" style="fill:none;stroke:#ffc996;stroke-linecap:square;stroke-width:2;"/>
   </g>
   <g id="line2d_51">
    <path clip-path="url(#p4e2fdb204a)" d="M 263.394212 213.094018 
L 323.325544 213.094018 
L 325.401088 210.246701 
L 333.184377 210.246701 
L 333.44382 101.003214 
L 333.703263 89.642802 
L 333.962706 86.25487 
L 334.222149 85.705474 
L 334.481592 85.504965 
L 335.000478 84.80281 
L 335.259921 97.176483 
L 335.778807 131.721639 
L 336.03825 135.529006 
L 336.297693 135.529006 
L 336.816579 142.149794 
L 337.076022 149.833499 
L 337.594908 154.749003 
L 337.854351 158.401066 
L 338.373237 168.005391 
L 338.63268 170.747926 
L 338.892123 175.401793 
L 339.411009 168.376239 
L 339.670452 168.376239 
L 340.708224 145.201163 
L 340.967667 142.369622 
L 341.22711 117.211434 
L 341.486553 110.114517 
L 341.745996 107.462826 
L 342.005439 107.398438 
L 342.264882 105.650498 
L 342.524325 105.650498 
L 342.783768 106.00888 
L 343.302654 128.377254 
L 343.82154 106.271509 
L 344.080983 105.336916 
L 344.599869 104.951314 
L 344.859312 103.636136 
L 345.118755 101.436269 
L 345.897084 121.733207 
L 346.156527 120.748884 
L 346.41597 120.509742 
L 346.675413 122.897756 
L 346.934856 129.983946 
L 347.194299 132.40295 
L 348.232071 169.137863 
L 348.750957 180.030305 
L 349.0104 180.030305 
L 349.269843 166.583317 
L 350.048172 166.583317 
L 350.307615 157.039547 
L 350.826501 154.94736 
L 351.085944 151.293452 
L 351.345387 139.96888 
L 351.60483 137.369798 
L 351.864273 136.8518 
L 352.123716 138.722675 
L 352.383159 137.19573 
L 352.642602 126.990341 
L 352.902045 124.846012 
L 353.161488 127.206274 
L 353.420931 126.776573 
L 353.680374 125.993503 
L 353.939817 125.587334 
L 354.19926 123.849641 
L 354.718146 136.766677 
L 354.977589 134.819481 
L 355.496475 139.384646 
L 356.015361 140.876388 
L 356.274804 139.772352 
L 356.534247 136.346087 
L 356.79369 135.448994 
L 357.053133 135.689937 
L 357.312576 135.60932 
L 357.831462 137.545299 
L 358.090905 134.511559 
L 358.609791 140.468276 
L 358.869234 134.35925 
L 359.128677 134.283501 
L 359.38812 133.178425 
L 359.907006 135.689937 
L 360.166449 135.60932 
L 360.425892 139.384646 
L 360.685335 147.602559 
L 360.944778 147.321986 
L 361.204221 147.602559 
L 361.463664 148.763292 
L 361.723107 156.820846 
L 361.98255 153.409886 
L 362.241993 139.480914 
L 362.501436 136.8518 
L 363.279765 135.933633 
L 363.539208 134.975126 
L 363.798651 131.388977 
L 364.058094 130.547588 
L 364.317537 131.455095 
L 364.57698 131.721639 
L 364.836423 130.232616 
L 365.095866 130.295239 
L 365.355309 128.205982 
L 365.614752 131.65469 
L 365.874195 140.773625 
L 366.393081 142.149794 
L 366.652524 146.90793 
L 366.911967 142.040723 
L 367.17141 140.671355 
L 367.430853 137.900694 
L 367.690296 128.899481 
L 367.949739 128.320011 
L 368.209182 128.377254 
L 368.728068 126.147833 
L 368.987511 127.260601 
L 369.246954 129.314689 
L 369.506397 139.288811 
L 369.76584 140.979648 
L 370.284726 135.689937 
L 370.544169 136.180147 
L 370.803612 141.292464 
L 371.063055 140.876388 
L 371.322498 140.979648 
L 371.581941 137.023072 
L 371.841384 136.429544 
L 372.100827 137.545299 
L 372.36027 135.689937 
L 372.619713 135.933633 
L 372.879156 136.015488 
L 373.398042 138.171182 
L 373.657485 142.259425 
L 373.916928 142.591741 
L 374.435814 145.971965 
L 374.695257 146.103185 
L 374.954699 142.816198 
L 375.473585 140.876388 
L 375.733028 134.511559 
L 375.992471 136.015488 
L 376.251914 136.097659 
L 376.511357 136.429544 
L 376.7708 139.193405 
L 377.030243 138.171182 
L 377.289686 137.722256 
L 377.549129 143.738427 
L 377.808572 133.908743 
L 378.068015 132.541864 
L 378.327458 132.127808 
L 378.586901 132.40295 
L 378.846344 133.394906 
L 379.36523 136.180147 
L 379.624673 141.71682 
L 379.884116 142.816198 
L 380.143559 143.043043 
L 380.403002 142.591741 
L 380.662445 117.726928 
L 380.921888 116.874567 
L 381.181331 114.624601 
L 381.440774 114.836173 
L 381.700217 114.534566 
L 381.95966 113.683286 
L 382.219103 114.897009 
L 382.478546 134.511559 
L 382.737989 136.429544 
L 382.997432 137.457368 
L 383.256875 139.288811 
L 383.516318 143.272327 
L 383.775761 150.149404 
L 384.035204 148.614698 
L 384.55409 143.975354 
L 384.813533 151.803194 
L 385.072976 144.094812 
L 385.332419 143.272327 
L 385.591862 138.629763 
L 386.110748 126.512341 
L 386.370191 126.407558 
L 386.629634 126.147833 
L 387.14852 122.458991 
L 387.407963 122.721165 
L 387.667406 121.317536 
L 387.926849 125.688153 
L 388.186292 126.251344 
L 388.445735 125.537102 
L 388.705178 125.942306 
L 388.964621 129.017289 
L 389.224064 129.254876 
L 389.483507 132.751946 
L 390.261836 122.415607 
L 390.521279 125.537102 
L 390.780722 123.031166 
L 391.040165 105.085483 
L 391.299608 101.178583 
L 391.559051 101.436269 
L 391.818494 100.516612 
L 392.077937 98.335268 
L 392.077937 98.335268 
" style="fill:none;stroke:#ff8474;stroke-linecap:square;stroke-width:2;"/>
   </g>
   <g id="line2d_52">
    <path clip-path="url(#p4e2fdb204a)" d="M 258.205352 213.094018 
L 342.264882 213.094018 
L 343.302654 210.246701 
L 343.562097 142.703674 
L 343.82154 104.553799 
L 344.080983 96.678132 
L 344.599869 95.752269 
L 345.118755 93.007594 
L 345.378198 94.651706 
L 345.897084 118.687435 
L 346.156527 115.894768 
L 346.41597 115.049864 
L 346.934856 121.441389 
L 347.194299 122.200002 
L 348.491514 157.937499 
L 348.750957 159.115877 
L 349.0104 162.241934 
L 349.269843 156.604365 
L 349.529286 156.390059 
L 349.788729 159.606087 
L 350.048172 159.855484 
L 350.567058 142.040723 
L 351.085944 134.435269 
L 351.345387 126.459885 
L 351.864273 124.413283 
L 352.123716 124.652603 
L 352.383159 125.637684 
L 352.642602 119.884842 
L 352.902045 118.470218 
L 353.161488 120.351792 
L 353.420931 118.57855 
L 353.680374 118.113037 
L 353.939817 117.416138 
L 354.19926 117.245415 
L 354.458703 121.482833 
L 354.718146 122.677245 
L 354.977589 121.441389 
L 355.237032 124.556552 
L 355.496475 125.789451 
L 355.755918 127.70027 
L 356.015361 125.891233 
L 356.274804 125.537102 
L 356.534247 124.082684 
L 356.79369 124.749088 
L 357.312576 121.859504 
L 357.572019 119.203047 
L 357.831462 119.808001 
L 358.090905 118.326627 
L 358.609791 123.120571 
L 358.869234 120.909814 
L 359.128677 121.733207 
L 359.38812 125.337352 
L 359.647563 124.223742 
L 359.907006 123.896046 
L 360.166449 123.757132 
L 360.425892 124.652603 
L 360.685335 129.49514 
L 360.944778 129.983946 
L 361.204221 128.78232 
L 361.463664 131.923756 
L 361.723107 139.480914 
L 361.98255 138.537255 
L 362.501436 127.369671 
L 362.760879 126.776573 
L 363.020322 127.5895 
L 363.279765 126.199525 
L 363.798651 122.853471 
L 364.058094 122.677245 
L 364.317537 124.318302 
L 364.57698 124.992229 
L 364.836423 120.748884 
L 365.355309 121.031314 
L 365.614752 122.897756 
L 366.133638 129.135752 
L 366.393081 129.616295 
L 366.652524 138.722675 
L 366.911967 142.040723 
L 367.17141 136.429544 
L 367.949739 128.958304 
L 368.209182 128.78232 
L 368.728068 123.989161 
L 368.987511 128.377254 
L 369.506397 130.107918 
L 369.76584 131.991557 
L 370.025283 131.388977 
L 370.284726 131.721639 
L 370.544169 134.897161 
L 370.803612 130.9318 
L 371.063055 129.49514 
L 371.322498 131.721639 
L 371.581941 128.899481 
L 372.36027 124.035871 
L 372.619713 125.789451 
L 372.879156 126.251344 
L 373.138599 127.260601 
L 373.916928 136.937264 
L 374.435814 127.479302 
L 374.695257 128.6658 
L 374.954699 124.318302 
L 375.214142 123.075822 
L 375.473585 120.990737 
L 375.733028 117.692171 
L 375.992471 120.509742 
L 376.251914 124.846012 
L 376.511357 124.270969 
L 377.289686 127.53433 
L 377.549129 131.721639 
L 377.808572 128.549913 
L 378.068015 126.883189 
L 378.586901 133.540457 
L 378.846344 134.511559 
L 379.105787 136.937264 
L 379.36523 140.468276 
L 379.624673 146.90793 
L 379.884116 148.32058 
L 380.403002 138.262113 
L 380.662445 120.470145 
L 380.921888 117.008676 
L 381.181331 116.216391 
L 381.440774 117.008676 
L 381.700217 115.142106 
L 381.95966 115.203823 
L 382.219103 117.008676 
L 382.478546 130.9318 
L 383.256875 134.35925 
L 383.516318 133.760664 
L 383.775761 142.929319 
L 384.035204 144.825965 
L 384.294647 144.950299 
L 384.55409 144.335754 
L 384.813533 150.632214 
L 385.072976 146.235218 
L 385.332419 148.467132 
L 385.591862 147.461811 
L 385.851305 144.335754 
L 386.110748 137.457368 
L 386.370191 136.597445 
L 386.629634 135.053376 
L 386.889077 127.479302 
L 387.14852 126.829814 
L 387.407963 124.508689 
L 387.667406 118.326627 
L 387.926849 120.273253 
L 388.186292 120.078163 
L 388.445735 118.870154 
L 388.705178 123.711028 
L 389.224064 125.238174 
L 389.483507 134.742083 
L 389.74295 133.983169 
L 390.002393 131.788799 
L 390.521279 135.60932 
L 390.780722 131.788799 
L 391.040165 106.578618 
L 391.299608 100.532137 
L 391.559051 99.545829 
L 391.818494 99.265935 
L 392.077937 98.489938 
L 392.077937 98.489938 
" style="fill:none;stroke:#9f5f80;stroke-linecap:square;stroke-width:2;"/>
   </g>
   <g id="line2d_53">
    <path clip-path="url(#p4e2fdb204a)" d="M 228.888294 213.094018 
L 237.709356 213.094018 
L 266.507528 213.094018 
L 285.965752 213.094018 
L 297.90013 213.094018 
L 333.44382 213.094018 
L 333.703263 210.246701 
L 339.411009 210.246701 
L 344.080983 210.246701 
L 345.118755 210.246701 
L 351.60483 210.246701 
L 356.015361 210.246701 
L 362.241993 210.246701 
L 362.501436 213.094018 
L 363.798651 213.094018 
L 365.095866 213.094018 
L 366.911967 213.094018 
L 367.430853 213.094018 
L 368.468625 213.094018 
L 369.506397 213.094018 
L 374.176371 213.094018 
L 377.808572 213.094018 
L 379.624673 213.094018 
L 380.662445 213.094018 
L 381.95966 213.094018 
L 382.478546 213.094018 
L 385.332419 210.246701 
L 385.851305 210.246701 
L 386.110748 210.246701 
L 386.370191 210.246701 
L 386.889077 207.735188 
L 387.14852 207.735188 
L 387.667406 207.735188 
L 387.926849 210.246701 
L 388.186292 210.246701 
L 388.705178 205.488564 
L 388.964621 205.488564 
L 389.224064 207.735188 
L 389.483507 205.488564 
L 390.521279 203.456245 
L 390.780722 187.728268 
L 391.040165 60.699499 
L 391.299608 44.393616 
L 391.559051 41.478727 
L 391.818494 38.704318 
L 392.077937 36.175145 
" style="fill:none;stroke:#583d72;stroke-linecap:square;stroke-width:2;"/>
   </g>
   <g id="patch_3">
    <path d="M 55.645234 221.939962 
L 55.645234 16.7 
" style="fill:none;stroke:#000000;stroke-linecap:square;stroke-linejoin:miter;stroke-width:0.8;"/>
   </g>
   <g id="patch_4">
    <path d="M 55.645234 221.939962 
L 408.098542 221.939962 
" style="fill:none;stroke:#000000;stroke-linecap:square;stroke-linejoin:miter;stroke-width:0.8;"/>
   </g>
   <g id="text_15">
    <!-- #WissZeitVG -->
    <g style="fill:#808080;" transform="translate(65.179764 158.401066)scale(0.12 -0.12)">
     <defs>
      <path d="M 51.125 44 
L 36.921875 44 
L 32.8125 27.6875 
L 47.125 27.6875 
z
M 43.796875 71.78125 
L 38.71875 51.515625 
L 52.984375 51.515625 
L 58.109375 71.78125 
L 65.921875 71.78125 
L 60.890625 51.515625 
L 76.125 51.515625 
L 76.125 44 
L 58.984375 44 
L 54.984375 27.6875 
L 70.515625 27.6875 
L 70.515625 20.21875 
L 53.078125 20.21875 
L 48 0 
L 40.1875 0 
L 45.21875 20.21875 
L 30.90625 20.21875 
L 25.875 0 
L 18.015625 0 
L 23.09375 20.21875 
L 7.71875 20.21875 
L 7.71875 27.6875 
L 24.90625 27.6875 
L 29 44 
L 13.28125 44 
L 13.28125 51.515625 
L 30.90625 51.515625 
L 35.890625 71.78125 
z
" id="DejaVuSans-35"/>
      <path d="M 3.328125 72.90625 
L 13.28125 72.90625 
L 28.609375 11.28125 
L 43.890625 72.90625 
L 54.984375 72.90625 
L 70.3125 11.28125 
L 85.59375 72.90625 
L 95.609375 72.90625 
L 77.296875 0 
L 64.890625 0 
L 49.515625 63.28125 
L 33.984375 0 
L 21.578125 0 
z
" id="DejaVuSans-87"/>
      <path d="M 9.421875 54.6875 
L 18.40625 54.6875 
L 18.40625 0 
L 9.421875 0 
z
M 9.421875 75.984375 
L 18.40625 75.984375 
L 18.40625 64.59375 
L 9.421875 64.59375 
z
" id="DejaVuSans-105"/>
      <path d="M 5.609375 72.90625 
L 62.890625 72.90625 
L 62.890625 65.375 
L 16.796875 8.296875 
L 64.015625 8.296875 
L 64.015625 0 
L 4.5 0 
L 4.5 7.515625 
L 50.59375 64.59375 
L 5.609375 64.59375 
z
" id="DejaVuSans-90"/>
      <path d="M 28.609375 0 
L 0.78125 72.90625 
L 11.078125 72.90625 
L 34.1875 11.53125 
L 57.328125 72.90625 
L 67.578125 72.90625 
L 39.796875 0 
z
" id="DejaVuSans-86"/>
      <path d="M 59.515625 10.40625 
L 59.515625 29.984375 
L 43.40625 29.984375 
L 43.40625 38.09375 
L 69.28125 38.09375 
L 69.28125 6.78125 
Q 63.578125 2.734375 56.6875 0.65625 
Q 49.8125 -1.421875 42 -1.421875 
Q 24.90625 -1.421875 15.25 8.5625 
Q 5.609375 18.5625 5.609375 36.375 
Q 5.609375 54.25 15.25 64.234375 
Q 24.90625 74.21875 42 74.21875 
Q 49.125 74.21875 55.546875 72.453125 
Q 61.96875 70.703125 67.390625 67.28125 
L 67.390625 56.78125 
Q 61.921875 61.421875 55.765625 63.765625 
Q 49.609375 66.109375 42.828125 66.109375 
Q 29.4375 66.109375 22.71875 58.640625 
Q 16.015625 51.171875 16.015625 36.375 
Q 16.015625 21.625 22.71875 14.15625 
Q 29.4375 6.6875 42.828125 6.6875 
Q 48.046875 6.6875 52.140625 7.59375 
Q 56.25 8.5 59.515625 10.40625 
z
" id="DejaVuSans-71"/>
     </defs>
     <use xlink:href="#DejaVuSans-35"/>
     <use x="83.789062" xlink:href="#DejaVuSans-87"/>
     <use x="180.416016" xlink:href="#DejaVuSans-105"/>
     <use x="208.199219" xlink:href="#DejaVuSans-115"/>
     <use x="260.298828" xlink:href="#DejaVuSans-115"/>
     <use x="312.398438" xlink:href="#DejaVuSans-90"/>
     <use x="380.904297" xlink:href="#DejaVuSans-101"/>
     <use x="442.427734" xlink:href="#DejaVuSans-105"/>
     <use x="470.210938" xlink:href="#DejaVuSans-116"/>
     <use x="509.419922" xlink:href="#DejaVuSans-86"/>
     <use x="577.828125" xlink:href="#DejaVuSans-71"/>
    </g>
   </g>
   <g id="text_16">
    <!-- #FristIstFrust -->
    <g style="fill:#ffc996;" transform="translate(96.312924 129.677132)scale(0.12 -0.12)">
     <defs>
      <path d="M 9.8125 72.90625 
L 51.703125 72.90625 
L 51.703125 64.59375 
L 19.671875 64.59375 
L 19.671875 43.109375 
L 48.578125 43.109375 
L 48.578125 34.8125 
L 19.671875 34.8125 
L 19.671875 0 
L 9.8125 0 
z
" id="DejaVuSans-70"/>
      <path d="M 41.109375 46.296875 
Q 39.59375 47.171875 37.8125 47.578125 
Q 36.03125 48 33.890625 48 
Q 26.265625 48 22.1875 43.046875 
Q 18.109375 38.09375 18.109375 28.8125 
L 18.109375 0 
L 9.078125 0 
L 9.078125 54.6875 
L 18.109375 54.6875 
L 18.109375 46.1875 
Q 20.953125 51.171875 25.484375 53.578125 
Q 30.03125 56 36.53125 56 
Q 37.453125 56 38.578125 55.875 
Q 39.703125 55.765625 41.0625 55.515625 
z
" id="DejaVuSans-114"/>
      <path d="M 9.8125 72.90625 
L 19.671875 72.90625 
L 19.671875 0 
L 9.8125 0 
z
" id="DejaVuSans-73"/>
      <path d="M 8.5 21.578125 
L 8.5 54.6875 
L 17.484375 54.6875 
L 17.484375 21.921875 
Q 17.484375 14.15625 20.5 10.265625 
Q 23.53125 6.390625 29.59375 6.390625 
Q 36.859375 6.390625 41.078125 11.03125 
Q 45.3125 15.671875 45.3125 23.6875 
L 45.3125 54.6875 
L 54.296875 54.6875 
L 54.296875 0 
L 45.3125 0 
L 45.3125 8.40625 
Q 42.046875 3.421875 37.71875 1 
Q 33.40625 -1.421875 27.6875 -1.421875 
Q 18.265625 -1.421875 13.375 4.4375 
Q 8.5 10.296875 8.5 21.578125 
z
M 31.109375 56 
z
" id="DejaVuSans-117"/>
     </defs>
     <use xlink:href="#DejaVuSans-35"/>
     <use x="83.789062" xlink:href="#DejaVuSans-70"/>
     <use x="134.058594" xlink:href="#DejaVuSans-114"/>
     <use x="175.171875" xlink:href="#DejaVuSans-105"/>
     <use x="202.955078" xlink:href="#DejaVuSans-115"/>
     <use x="255.054688" xlink:href="#DejaVuSans-116"/>
     <use x="294.263672" xlink:href="#DejaVuSans-73"/>
     <use x="323.755859" xlink:href="#DejaVuSans-115"/>
     <use x="375.855469" xlink:href="#DejaVuSans-116"/>
     <use x="415.064453" xlink:href="#DejaVuSans-70"/>
     <use x="465.333984" xlink:href="#DejaVuSans-114"/>
     <use x="506.447266" xlink:href="#DejaVuSans-117"/>
     <use x="569.826172" xlink:href="#DejaVuSans-115"/>
     <use x="621.925781" xlink:href="#DejaVuSans-116"/>
    </g>
   </g>
   <g id="text_17">
    <!-- #95vsWissZeitVG -->
    <g style="fill:#ff8474;" transform="translate(222.921105 111.009328)scale(0.12 -0.12)">
     <defs>
      <path d="M 10.796875 72.90625 
L 49.515625 72.90625 
L 49.515625 64.59375 
L 19.828125 64.59375 
L 19.828125 46.734375 
Q 21.96875 47.46875 24.109375 47.828125 
Q 26.265625 48.1875 28.421875 48.1875 
Q 40.625 48.1875 47.75 41.5 
Q 54.890625 34.8125 54.890625 23.390625 
Q 54.890625 11.625 47.5625 5.09375 
Q 40.234375 -1.421875 26.90625 -1.421875 
Q 22.3125 -1.421875 17.546875 -0.640625 
Q 12.796875 0.140625 7.71875 1.703125 
L 7.71875 11.625 
Q 12.109375 9.234375 16.796875 8.0625 
Q 21.484375 6.890625 26.703125 6.890625 
Q 35.15625 6.890625 40.078125 11.328125 
Q 45.015625 15.765625 45.015625 23.390625 
Q 45.015625 31 40.078125 35.4375 
Q 35.15625 39.890625 26.703125 39.890625 
Q 22.75 39.890625 18.8125 39.015625 
Q 14.890625 38.140625 10.796875 36.28125 
z
" id="DejaVuSans-53"/>
      <path d="M 2.984375 54.6875 
L 12.5 54.6875 
L 29.59375 8.796875 
L 46.6875 54.6875 
L 56.203125 54.6875 
L 35.6875 0 
L 23.484375 0 
z
" id="DejaVuSans-118"/>
     </defs>
     <use xlink:href="#DejaVuSans-35"/>
     <use x="83.789062" xlink:href="#DejaVuSans-57"/>
     <use x="147.412109" xlink:href="#DejaVuSans-53"/>
     <use x="211.035156" xlink:href="#DejaVuSans-118"/>
     <use x="270.214844" xlink:href="#DejaVuSans-115"/>
     <use x="322.314453" xlink:href="#DejaVuSans-87"/>
     <use x="418.941406" xlink:href="#DejaVuSans-105"/>
     <use x="446.724609" xlink:href="#DejaVuSans-115"/>
     <use x="498.824219" xlink:href="#DejaVuSans-115"/>
     <use x="550.923828" xlink:href="#DejaVuSans-90"/>
     <use x="619.429688" xlink:href="#DejaVuSans-101"/>
     <use x="680.953125" xlink:href="#DejaVuSans-105"/>
     <use x="708.736328" xlink:href="#DejaVuSans-116"/>
     <use x="747.945312" xlink:href="#DejaVuSans-86"/>
     <use x="816.353516" xlink:href="#DejaVuSans-71"/>
    </g>
   </g>
   <g id="text_18">
    <!-- #ACertainDegreeOfFlexibility -->
    <g style="fill:#9f5f80;" transform="translate(167.91919 76.690946)scale(0.12 -0.12)">
     <defs>
      <path d="M 64.40625 67.28125 
L 64.40625 56.890625 
Q 59.421875 61.53125 53.78125 63.8125 
Q 48.140625 66.109375 41.796875 66.109375 
Q 29.296875 66.109375 22.65625 58.46875 
Q 16.015625 50.828125 16.015625 36.375 
Q 16.015625 21.96875 22.65625 14.328125 
Q 29.296875 6.6875 41.796875 6.6875 
Q 48.140625 6.6875 53.78125 8.984375 
Q 59.421875 11.28125 64.40625 15.921875 
L 64.40625 5.609375 
Q 59.234375 2.09375 53.4375 0.328125 
Q 47.65625 -1.421875 41.21875 -1.421875 
Q 24.65625 -1.421875 15.125 8.703125 
Q 5.609375 18.84375 5.609375 36.375 
Q 5.609375 53.953125 15.125 64.078125 
Q 24.65625 74.21875 41.21875 74.21875 
Q 47.75 74.21875 53.53125 72.484375 
Q 59.328125 70.75 64.40625 67.28125 
z
" id="DejaVuSans-67"/>
      <path d="M 19.671875 64.796875 
L 19.671875 8.109375 
L 31.59375 8.109375 
Q 46.6875 8.109375 53.6875 14.9375 
Q 60.6875 21.78125 60.6875 36.53125 
Q 60.6875 51.171875 53.6875 57.984375 
Q 46.6875 64.796875 31.59375 64.796875 
z
M 9.8125 72.90625 
L 30.078125 72.90625 
Q 51.265625 72.90625 61.171875 64.09375 
Q 71.09375 55.28125 71.09375 36.53125 
Q 71.09375 17.671875 61.125 8.828125 
Q 51.171875 0 30.078125 0 
L 9.8125 0 
z
" id="DejaVuSans-68"/>
      <path d="M 39.40625 66.21875 
Q 28.65625 66.21875 22.328125 58.203125 
Q 16.015625 50.203125 16.015625 36.375 
Q 16.015625 22.609375 22.328125 14.59375 
Q 28.65625 6.59375 39.40625 6.59375 
Q 50.140625 6.59375 56.421875 14.59375 
Q 62.703125 22.609375 62.703125 36.375 
Q 62.703125 50.203125 56.421875 58.203125 
Q 50.140625 66.21875 39.40625 66.21875 
z
M 39.40625 74.21875 
Q 54.734375 74.21875 63.90625 63.9375 
Q 73.09375 53.65625 73.09375 36.375 
Q 73.09375 19.140625 63.90625 8.859375 
Q 54.734375 -1.421875 39.40625 -1.421875 
Q 24.03125 -1.421875 14.8125 8.828125 
Q 5.609375 19.09375 5.609375 36.375 
Q 5.609375 53.65625 14.8125 63.9375 
Q 24.03125 74.21875 39.40625 74.21875 
z
" id="DejaVuSans-79"/>
      <path d="M 37.109375 75.984375 
L 37.109375 68.5 
L 28.515625 68.5 
Q 23.6875 68.5 21.796875 66.546875 
Q 19.921875 64.59375 19.921875 59.515625 
L 19.921875 54.6875 
L 34.71875 54.6875 
L 34.71875 47.703125 
L 19.921875 47.703125 
L 19.921875 0 
L 10.890625 0 
L 10.890625 47.703125 
L 2.296875 47.703125 
L 2.296875 54.6875 
L 10.890625 54.6875 
L 10.890625 58.5 
Q 10.890625 67.625 15.140625 71.796875 
Q 19.390625 75.984375 28.609375 75.984375 
z
" id="DejaVuSans-102"/>
      <path d="M 54.890625 54.6875 
L 35.109375 28.078125 
L 55.90625 0 
L 45.3125 0 
L 29.390625 21.484375 
L 13.484375 0 
L 2.875 0 
L 24.125 28.609375 
L 4.6875 54.6875 
L 15.28125 54.6875 
L 29.78125 35.203125 
L 44.28125 54.6875 
z
" id="DejaVuSans-120"/>
      <path d="M 48.6875 27.296875 
Q 48.6875 37.203125 44.609375 42.84375 
Q 40.53125 48.484375 33.40625 48.484375 
Q 26.265625 48.484375 22.1875 42.84375 
Q 18.109375 37.203125 18.109375 27.296875 
Q 18.109375 17.390625 22.1875 11.75 
Q 26.265625 6.109375 33.40625 6.109375 
Q 40.53125 6.109375 44.609375 11.75 
Q 48.6875 17.390625 48.6875 27.296875 
z
M 18.109375 46.390625 
Q 20.953125 51.265625 25.265625 53.625 
Q 29.59375 56 35.59375 56 
Q 45.5625 56 51.78125 48.09375 
Q 58.015625 40.1875 58.015625 27.296875 
Q 58.015625 14.40625 51.78125 6.484375 
Q 45.5625 -1.421875 35.59375 -1.421875 
Q 29.59375 -1.421875 25.265625 0.953125 
Q 20.953125 3.328125 18.109375 8.203125 
L 18.109375 0 
L 9.078125 0 
L 9.078125 75.984375 
L 18.109375 75.984375 
z
" id="DejaVuSans-98"/>
      <path d="M 32.171875 -5.078125 
Q 28.375 -14.84375 24.75 -17.8125 
Q 21.140625 -20.796875 15.09375 -20.796875 
L 7.90625 -20.796875 
L 7.90625 -13.28125 
L 13.1875 -13.28125 
Q 16.890625 -13.28125 18.9375 -11.515625 
Q 21 -9.765625 23.484375 -3.21875 
L 25.09375 0.875 
L 2.984375 54.6875 
L 12.5 54.6875 
L 29.59375 11.921875 
L 46.6875 54.6875 
L 56.203125 54.6875 
z
" id="DejaVuSans-121"/>
     </defs>
     <use xlink:href="#DejaVuSans-35"/>
     <use x="83.789062" xlink:href="#DejaVuSans-65"/>
     <use x="150.447266" xlink:href="#DejaVuSans-67"/>
     <use x="220.271484" xlink:href="#DejaVuSans-101"/>
     <use x="281.794922" xlink:href="#DejaVuSans-114"/>
     <use x="322.908203" xlink:href="#DejaVuSans-116"/>
     <use x="362.117188" xlink:href="#DejaVuSans-97"/>
     <use x="423.396484" xlink:href="#DejaVuSans-105"/>
     <use x="451.179688" xlink:href="#DejaVuSans-110"/>
     <use x="514.558594" xlink:href="#DejaVuSans-68"/>
     <use x="591.560547" xlink:href="#DejaVuSans-101"/>
     <use x="653.083984" xlink:href="#DejaVuSans-103"/>
     <use x="716.560547" xlink:href="#DejaVuSans-114"/>
     <use x="755.423828" xlink:href="#DejaVuSans-101"/>
     <use x="816.947266" xlink:href="#DejaVuSans-101"/>
     <use x="878.470703" xlink:href="#DejaVuSans-79"/>
     <use x="957.181641" xlink:href="#DejaVuSans-102"/>
     <use x="992.386719" xlink:href="#DejaVuSans-70"/>
     <use x="1049.90625" xlink:href="#DejaVuSans-108"/>
     <use x="1077.689453" xlink:href="#DejaVuSans-101"/>
     <use x="1137.462891" xlink:href="#DejaVuSans-120"/>
     <use x="1196.642578" xlink:href="#DejaVuSans-105"/>
     <use x="1224.425781" xlink:href="#DejaVuSans-98"/>
     <use x="1287.902344" xlink:href="#DejaVuSans-105"/>
     <use x="1315.685547" xlink:href="#DejaVuSans-108"/>
     <use x="1343.46875" xlink:href="#DejaVuSans-105"/>
     <use x="1371.251953" xlink:href="#DejaVuSans-116"/>
     <use x="1410.460938" xlink:href="#DejaVuSans-121"/>
    </g>
   </g>
   <g id="text_19">
    <!-- #IchBinHanna -->
    <g style="fill:#583d72;" transform="translate(289.597954 51.018382)scale(0.12 -0.12)">
     <defs>
      <path d="M 48.78125 52.59375 
L 48.78125 44.1875 
Q 44.96875 46.296875 41.140625 47.34375 
Q 37.3125 48.390625 33.40625 48.390625 
Q 24.65625 48.390625 19.8125 42.84375 
Q 14.984375 37.3125 14.984375 27.296875 
Q 14.984375 17.28125 19.8125 11.734375 
Q 24.65625 6.203125 33.40625 6.203125 
Q 37.3125 6.203125 41.140625 7.25 
Q 44.96875 8.296875 48.78125 10.40625 
L 48.78125 2.09375 
Q 45.015625 0.34375 40.984375 -0.53125 
Q 36.96875 -1.421875 32.421875 -1.421875 
Q 20.0625 -1.421875 12.78125 6.34375 
Q 5.515625 14.109375 5.515625 27.296875 
Q 5.515625 40.671875 12.859375 48.328125 
Q 20.21875 56 33.015625 56 
Q 37.15625 56 41.109375 55.140625 
Q 45.0625 54.296875 48.78125 52.59375 
z
" id="DejaVuSans-99"/>
      <path d="M 19.671875 34.8125 
L 19.671875 8.109375 
L 35.5 8.109375 
Q 43.453125 8.109375 47.28125 11.40625 
Q 51.125 14.703125 51.125 21.484375 
Q 51.125 28.328125 47.28125 31.5625 
Q 43.453125 34.8125 35.5 34.8125 
z
M 19.671875 64.796875 
L 19.671875 42.828125 
L 34.28125 42.828125 
Q 41.5 42.828125 45.03125 45.53125 
Q 48.578125 48.25 48.578125 53.8125 
Q 48.578125 59.328125 45.03125 62.0625 
Q 41.5 64.796875 34.28125 64.796875 
z
M 9.8125 72.90625 
L 35.015625 72.90625 
Q 46.296875 72.90625 52.390625 68.21875 
Q 58.5 63.53125 58.5 54.890625 
Q 58.5 48.1875 55.375 44.234375 
Q 52.25 40.28125 46.1875 39.3125 
Q 53.46875 37.75 57.5 32.78125 
Q 61.53125 27.828125 61.53125 20.40625 
Q 61.53125 10.640625 54.890625 5.3125 
Q 48.25 0 35.984375 0 
L 9.8125 0 
z
" id="DejaVuSans-66"/>
      <path d="M 9.8125 72.90625 
L 19.671875 72.90625 
L 19.671875 43.015625 
L 55.515625 43.015625 
L 55.515625 72.90625 
L 65.375 72.90625 
L 65.375 0 
L 55.515625 0 
L 55.515625 34.71875 
L 19.671875 34.71875 
L 19.671875 0 
L 9.8125 0 
z
" id="DejaVuSans-72"/>
     </defs>
     <use xlink:href="#DejaVuSans-35"/>
     <use x="83.789062" xlink:href="#DejaVuSans-73"/>
     <use x="113.28125" xlink:href="#DejaVuSans-99"/>
     <use x="168.261719" xlink:href="#DejaVuSans-104"/>
     <use x="231.640625" xlink:href="#DejaVuSans-66"/>
     <use x="300.244141" xlink:href="#DejaVuSans-105"/>
     <use x="328.027344" xlink:href="#DejaVuSans-110"/>
     <use x="391.40625" xlink:href="#DejaVuSans-72"/>
     <use x="466.601562" xlink:href="#DejaVuSans-97"/>
     <use x="527.880859" xlink:href="#DejaVuSans-110"/>
     <use x="591.259766" xlink:href="#DejaVuSans-110"/>
     <use x="654.638672" xlink:href="#DejaVuSans-97"/>
    </g>
   </g>
   <g id="text_20">
    <!-- Tweets gesammelt -->
    <g style="fill:#808080;" transform="translate(65.179764 42.067194)scale(0.1 -0.1)">
     <defs>
      <path d="M 52 44.1875 
Q 55.375 50.25 60.0625 53.125 
Q 64.75 56 71.09375 56 
Q 79.640625 56 84.28125 50.015625 
Q 88.921875 44.046875 88.921875 33.015625 
L 88.921875 0 
L 79.890625 0 
L 79.890625 32.71875 
Q 79.890625 40.578125 77.09375 44.375 
Q 74.3125 48.1875 68.609375 48.1875 
Q 61.625 48.1875 57.5625 43.546875 
Q 53.515625 38.921875 53.515625 30.90625 
L 53.515625 0 
L 44.484375 0 
L 44.484375 32.71875 
Q 44.484375 40.625 41.703125 44.40625 
Q 38.921875 48.1875 33.109375 48.1875 
Q 26.21875 48.1875 22.15625 43.53125 
Q 18.109375 38.875 18.109375 30.90625 
L 18.109375 0 
L 9.078125 0 
L 9.078125 54.6875 
L 18.109375 54.6875 
L 18.109375 46.1875 
Q 21.1875 51.21875 25.484375 53.609375 
Q 29.78125 56 35.6875 56 
Q 41.65625 56 45.828125 52.96875 
Q 50 49.953125 52 44.1875 
z
" id="DejaVuSans-109"/>
     </defs>
     <use xlink:href="#DejaVuSans-84"/>
     <use x="44.583984" xlink:href="#DejaVuSans-119"/>
     <use x="126.371094" xlink:href="#DejaVuSans-101"/>
     <use x="187.894531" xlink:href="#DejaVuSans-101"/>
     <use x="249.417969" xlink:href="#DejaVuSans-116"/>
     <use x="288.626953" xlink:href="#DejaVuSans-115"/>
     <use x="340.726562" xlink:href="#DejaVuSans-32"/>
     <use x="372.513672" xlink:href="#DejaVuSans-103"/>
     <use x="435.990234" xlink:href="#DejaVuSans-101"/>
     <use x="497.513672" xlink:href="#DejaVuSans-115"/>
     <use x="549.613281" xlink:href="#DejaVuSans-97"/>
     <use x="610.892578" xlink:href="#DejaVuSans-109"/>
     <use x="708.304688" xlink:href="#DejaVuSans-109"/>
     <use x="805.716797" xlink:href="#DejaVuSans-101"/>
     <use x="867.240234" xlink:href="#DejaVuSans-108"/>
     <use x="895.023438" xlink:href="#DejaVuSans-116"/>
    </g>
    <!-- ab 2018-01-01. -->
    <g style="fill:#808080;" transform="translate(65.179764 53.265006)scale(0.1 -0.1)">
     <defs>
      <path d="M 10.6875 12.40625 
L 21 12.40625 
L 21 0 
L 10.6875 0 
z
" id="DejaVuSans-46"/>
     </defs>
     <use xlink:href="#DejaVuSans-97"/>
     <use x="61.279297" xlink:href="#DejaVuSans-98"/>
     <use x="124.755859" xlink:href="#DejaVuSans-32"/>
     <use x="156.542969" xlink:href="#DejaVuSans-50"/>
     <use x="220.166016" xlink:href="#DejaVuSans-48"/>
     <use x="283.789062" xlink:href="#DejaVuSans-49"/>
     <use x="347.412109" xlink:href="#DejaVuSans-56"/>
     <use x="411.035156" xlink:href="#DejaVuSans-45"/>
     <use x="447.119141" xlink:href="#DejaVuSans-48"/>
     <use x="510.742188" xlink:href="#DejaVuSans-49"/>
     <use x="574.365234" xlink:href="#DejaVuSans-45"/>
     <use x="610.449219" xlink:href="#DejaVuSans-48"/>
     <use x="674.072266" xlink:href="#DejaVuSans-49"/>
     <use x="737.695312" xlink:href="#DejaVuSans-46"/>
    </g>
   </g>
   <g id="text_21">
    <!-- Anzahl gemittelt -->
    <g style="fill:#808080;" transform="translate(65.179764 90.012812)scale(0.1 -0.1)">
     <use xlink:href="#DejaVuSans-65"/>
     <use x="68.408203" xlink:href="#DejaVuSans-110"/>
     <use x="131.787109" xlink:href="#DejaVuSans-122"/>
     <use x="184.277344" xlink:href="#DejaVuSans-97"/>
     <use x="245.556641" xlink:href="#DejaVuSans-104"/>
     <use x="308.935547" xlink:href="#DejaVuSans-108"/>
     <use x="336.71875" xlink:href="#DejaVuSans-32"/>
     <use x="368.505859" xlink:href="#DejaVuSans-103"/>
     <use x="431.982422" xlink:href="#DejaVuSans-101"/>
     <use x="493.505859" xlink:href="#DejaVuSans-109"/>
     <use x="590.917969" xlink:href="#DejaVuSans-105"/>
     <use x="618.701172" xlink:href="#DejaVuSans-116"/>
     <use x="657.910156" xlink:href="#DejaVuSans-116"/>
     <use x="697.119141" xlink:href="#DejaVuSans-101"/>
     <use x="758.642578" xlink:href="#DejaVuSans-108"/>
     <use x="786.425781" xlink:href="#DejaVuSans-116"/>
    </g>
    <!-- ber 7 Tage. -->
    <g style="fill:#808080;" transform="translate(65.179764 101.210624)scale(0.1 -0.1)">
     <defs>
      <path d="M 8.5 21.578125 
L 8.5 54.6875 
L 17.484375 54.6875 
L 17.484375 21.921875 
Q 17.484375 14.15625 20.5 10.265625 
Q 23.53125 6.390625 29.59375 6.390625 
Q 36.859375 6.390625 41.078125 11.03125 
Q 45.3125 15.671875 45.3125 23.6875 
L 45.3125 54.6875 
L 54.296875 54.6875 
L 54.296875 0 
L 45.3125 0 
L 45.3125 8.40625 
Q 42.046875 3.421875 37.71875 1 
Q 33.40625 -1.421875 27.6875 -1.421875 
Q 18.265625 -1.421875 13.375 4.4375 
Q 8.5 10.296875 8.5 21.578125 
z
M 31.109375 56 
z
M 35.59375 75.78125 
L 45.515625 75.78125 
L 45.515625 65.921875 
L 35.59375 65.921875 
z
M 16.5 75.78125 
L 26.421875 75.78125 
L 26.421875 65.921875 
L 16.5 65.921875 
z
" id="DejaVuSans-252"/>
     </defs>
     <use xlink:href="#DejaVuSans-252"/>
     <use x="63.378906" xlink:href="#DejaVuSans-98"/>
     <use x="126.855469" xlink:href="#DejaVuSans-101"/>
     <use x="188.378906" xlink:href="#DejaVuSans-114"/>
     <use x="229.492188" xlink:href="#DejaVuSans-32"/>
     <use x="261.279297" xlink:href="#DejaVuSans-55"/>
     <use x="324.902344" xlink:href="#DejaVuSans-32"/>
     <use x="356.689453" xlink:href="#DejaVuSans-84"/>
     <use x="401.273438" xlink:href="#DejaVuSans-97"/>
     <use x="462.552734" xlink:href="#DejaVuSans-103"/>
     <use x="526.029297" xlink:href="#DejaVuSans-101"/>
     <use x="587.552734" xlink:href="#DejaVuSans-46"/>
    </g>
   </g>
  </g>
 </g>
 <defs>
  <clipPath id="p4e2fdb204a">
   <rect height="205.239962" width="352.453308" x="55.645234" y="16.7"/>
  </clipPath>
 </defs>
</svg>
