<?xml version="1.0" encoding="utf-8" standalone="no"?>
<!DOCTYPE svg PUBLIC "-//W3C//DTD SVG 1.1//EN"
  "http://www.w3.org/Graphics/SVG/1.1/DTD/svg11.dtd">
<!-- Created with matplotlib (https://matplotlib.org/) -->
<svg height="288pt" version="1.1" viewBox="0 0 432 288" width="432pt" xmlns="http://www.w3.org/2000/svg" xmlns:xlink="http://www.w3.org/1999/xlink">
 <metadata>
  <rdf:RDF xmlns:cc="http://creativecommons.org/ns#" xmlns:dc="http://purl.org/dc/elements/1.1/" xmlns:rdf="http://www.w3.org/1999/02/22-rdf-syntax-ns#">
   <cc:Work>
    <dc:type rdf:resource="http://purl.org/dc/dcmitype/StillImage"/>
    <dc:date>2021-06-14T07:39:42.635339</dc:date>
    <dc:format>image/svg+xml</dc:format>
    <dc:creator>
     <cc:Agent>
      <dc:title>Matplotlib v3.3.4, https://matplotlib.org/</dc:title>
     </cc:Agent>
    </dc:creator>
   </cc:Work>
  </rdf:RDF>
 </metadata>
 <defs>
  <style type="text/css">*{stroke-linecap:butt;stroke-linejoin:round;}</style>
 </defs>
 <g id="figure_1">
  <g id="patch_1">
   <path d="M 0 288 
L 432 288 
L 432 0 
L 0 0 
z
" style="fill:none;"/>
  </g>
  <g id="axes_1">
   <g id="patch_2">
    <path d="M 55.645234 221.939962 
L 397.069981 221.939962 
L 397.069981 16.7 
L 55.645234 16.7 
z
" style="fill:#ffffff;"/>
   </g>
   <g id="matplotlib.axis_1">
    <g id="xtick_1">
     <g id="line2d_1">
      <defs>
       <path d="M 0 0 
L 0 3.5 
" id="m5f3fde1cbf" style="stroke:#000000;stroke-width:0.8;"/>
      </defs>
      <g>
       <use style="stroke:#000000;stroke-width:0.8;" x="131.540504" xlink:href="#m5f3fde1cbf" y="221.939962"/>
      </g>
     </g>
     <g id="text_1">
      <!-- 2018-01-01 -->
      <g transform="translate(112.9447 275.406821)rotate(-45)scale(0.1 -0.1)">
       <defs>
        <path d="M 19.1875 8.296875 
L 53.609375 8.296875 
L 53.609375 0 
L 7.328125 0 
L 7.328125 8.296875 
Q 12.9375 14.109375 22.625 23.890625 
Q 32.328125 33.6875 34.8125 36.53125 
Q 39.546875 41.84375 41.421875 45.53125 
Q 43.3125 49.21875 43.3125 52.78125 
Q 43.3125 58.59375 39.234375 62.25 
Q 35.15625 65.921875 28.609375 65.921875 
Q 23.96875 65.921875 18.8125 64.3125 
Q 13.671875 62.703125 7.8125 59.421875 
L 7.8125 69.390625 
Q 13.765625 71.78125 18.9375 73 
Q 24.125 74.21875 28.421875 74.21875 
Q 39.75 74.21875 46.484375 68.546875 
Q 53.21875 62.890625 53.21875 53.421875 
Q 53.21875 48.921875 51.53125 44.890625 
Q 49.859375 40.875 45.40625 35.40625 
Q 44.1875 33.984375 37.640625 27.21875 
Q 31.109375 20.453125 19.1875 8.296875 
z
" id="DejaVuSans-50"/>
        <path d="M 31.78125 66.40625 
Q 24.171875 66.40625 20.328125 58.90625 
Q 16.5 51.421875 16.5 36.375 
Q 16.5 21.390625 20.328125 13.890625 
Q 24.171875 6.390625 31.78125 6.390625 
Q 39.453125 6.390625 43.28125 13.890625 
Q 47.125 21.390625 47.125 36.375 
Q 47.125 51.421875 43.28125 58.90625 
Q 39.453125 66.40625 31.78125 66.40625 
z
M 31.78125 74.21875 
Q 44.046875 74.21875 50.515625 64.515625 
Q 56.984375 54.828125 56.984375 36.375 
Q 56.984375 17.96875 50.515625 8.265625 
Q 44.046875 -1.421875 31.78125 -1.421875 
Q 19.53125 -1.421875 13.0625 8.265625 
Q 6.59375 17.96875 6.59375 36.375 
Q 6.59375 54.828125 13.0625 64.515625 
Q 19.53125 74.21875 31.78125 74.21875 
z
" id="DejaVuSans-48"/>
        <path d="M 12.40625 8.296875 
L 28.515625 8.296875 
L 28.515625 63.921875 
L 10.984375 60.40625 
L 10.984375 69.390625 
L 28.421875 72.90625 
L 38.28125 72.90625 
L 38.28125 8.296875 
L 54.390625 8.296875 
L 54.390625 0 
L 12.40625 0 
z
" id="DejaVuSans-49"/>
        <path d="M 31.78125 34.625 
Q 24.75 34.625 20.71875 30.859375 
Q 16.703125 27.09375 16.703125 20.515625 
Q 16.703125 13.921875 20.71875 10.15625 
Q 24.75 6.390625 31.78125 6.390625 
Q 38.8125 6.390625 42.859375 10.171875 
Q 46.921875 13.96875 46.921875 20.515625 
Q 46.921875 27.09375 42.890625 30.859375 
Q 38.875 34.625 31.78125 34.625 
z
M 21.921875 38.8125 
Q 15.578125 40.375 12.03125 44.71875 
Q 8.5 49.078125 8.5 55.328125 
Q 8.5 64.0625 14.71875 69.140625 
Q 20.953125 74.21875 31.78125 74.21875 
Q 42.671875 74.21875 48.875 69.140625 
Q 55.078125 64.0625 55.078125 55.328125 
Q 55.078125 49.078125 51.53125 44.71875 
Q 48 40.375 41.703125 38.8125 
Q 48.828125 37.15625 52.796875 32.3125 
Q 56.78125 27.484375 56.78125 20.515625 
Q 56.78125 9.90625 50.3125 4.234375 
Q 43.84375 -1.421875 31.78125 -1.421875 
Q 19.734375 -1.421875 13.25 4.234375 
Q 6.78125 9.90625 6.78125 20.515625 
Q 6.78125 27.484375 10.78125 32.3125 
Q 14.796875 37.15625 21.921875 38.8125 
z
M 18.3125 54.390625 
Q 18.3125 48.734375 21.84375 45.5625 
Q 25.390625 42.390625 31.78125 42.390625 
Q 38.140625 42.390625 41.71875 45.5625 
Q 45.3125 48.734375 45.3125 54.390625 
Q 45.3125 60.0625 41.71875 63.234375 
Q 38.140625 66.40625 31.78125 66.40625 
Q 25.390625 66.40625 21.84375 63.234375 
Q 18.3125 60.0625 18.3125 54.390625 
z
" id="DejaVuSans-56"/>
        <path d="M 4.890625 31.390625 
L 31.203125 31.390625 
L 31.203125 23.390625 
L 4.890625 23.390625 
z
" id="DejaVuSans-45"/>
       </defs>
       <use xlink:href="#DejaVuSans-50"/>
       <use x="63.623047" xlink:href="#DejaVuSans-48"/>
       <use x="127.246094" xlink:href="#DejaVuSans-49"/>
       <use x="190.869141" xlink:href="#DejaVuSans-56"/>
       <use x="254.492188" xlink:href="#DejaVuSans-45"/>
       <use x="290.576172" xlink:href="#DejaVuSans-48"/>
       <use x="354.199219" xlink:href="#DejaVuSans-49"/>
       <use x="417.822266" xlink:href="#DejaVuSans-45"/>
       <use x="453.90625" xlink:href="#DejaVuSans-48"/>
       <use x="517.529297" xlink:href="#DejaVuSans-49"/>
      </g>
     </g>
    </g>
    <g id="xtick_2">
     <g id="line2d_2">
      <g>
       <use style="stroke:#000000;stroke-width:0.8;" x="169.17624" xlink:href="#m5f3fde1cbf" y="221.939962"/>
      </g>
     </g>
     <g id="text_2">
      <!-- 2018-07-01 -->
      <g transform="translate(150.580437 275.406821)rotate(-45)scale(0.1 -0.1)">
       <defs>
        <path d="M 8.203125 72.90625 
L 55.078125 72.90625 
L 55.078125 68.703125 
L 28.609375 0 
L 18.3125 0 
L 43.21875 64.59375 
L 8.203125 64.59375 
z
" id="DejaVuSans-55"/>
       </defs>
       <use xlink:href="#DejaVuSans-50"/>
       <use x="63.623047" xlink:href="#DejaVuSans-48"/>
       <use x="127.246094" xlink:href="#DejaVuSans-49"/>
       <use x="190.869141" xlink:href="#DejaVuSans-56"/>
       <use x="254.492188" xlink:href="#DejaVuSans-45"/>
       <use x="290.576172" xlink:href="#DejaVuSans-48"/>
       <use x="354.199219" xlink:href="#DejaVuSans-55"/>
       <use x="417.822266" xlink:href="#DejaVuSans-45"/>
       <use x="453.90625" xlink:href="#DejaVuSans-48"/>
       <use x="517.529297" xlink:href="#DejaVuSans-49"/>
      </g>
     </g>
    </g>
    <g id="xtick_3">
     <g id="line2d_3">
      <g>
       <use style="stroke:#000000;stroke-width:0.8;" x="207.435773" xlink:href="#m5f3fde1cbf" y="221.939962"/>
      </g>
     </g>
     <g id="text_3">
      <!-- 2019-01-01 -->
      <g transform="translate(188.83997 275.406821)rotate(-45)scale(0.1 -0.1)">
       <defs>
        <path d="M 10.984375 1.515625 
L 10.984375 10.5 
Q 14.703125 8.734375 18.5 7.8125 
Q 22.3125 6.890625 25.984375 6.890625 
Q 35.75 6.890625 40.890625 13.453125 
Q 46.046875 20.015625 46.78125 33.40625 
Q 43.953125 29.203125 39.59375 26.953125 
Q 35.25 24.703125 29.984375 24.703125 
Q 19.046875 24.703125 12.671875 31.3125 
Q 6.296875 37.9375 6.296875 49.421875 
Q 6.296875 60.640625 12.9375 67.421875 
Q 19.578125 74.21875 30.609375 74.21875 
Q 43.265625 74.21875 49.921875 64.515625 
Q 56.59375 54.828125 56.59375 36.375 
Q 56.59375 19.140625 48.40625 8.859375 
Q 40.234375 -1.421875 26.421875 -1.421875 
Q 22.703125 -1.421875 18.890625 -0.6875 
Q 15.09375 0.046875 10.984375 1.515625 
z
M 30.609375 32.421875 
Q 37.25 32.421875 41.125 36.953125 
Q 45.015625 41.5 45.015625 49.421875 
Q 45.015625 57.28125 41.125 61.84375 
Q 37.25 66.40625 30.609375 66.40625 
Q 23.96875 66.40625 20.09375 61.84375 
Q 16.21875 57.28125 16.21875 49.421875 
Q 16.21875 41.5 20.09375 36.953125 
Q 23.96875 32.421875 30.609375 32.421875 
z
" id="DejaVuSans-57"/>
       </defs>
       <use xlink:href="#DejaVuSans-50"/>
       <use x="63.623047" xlink:href="#DejaVuSans-48"/>
       <use x="127.246094" xlink:href="#DejaVuSans-49"/>
       <use x="190.869141" xlink:href="#DejaVuSans-57"/>
       <use x="254.492188" xlink:href="#DejaVuSans-45"/>
       <use x="290.576172" xlink:href="#DejaVuSans-48"/>
       <use x="354.199219" xlink:href="#DejaVuSans-49"/>
       <use x="417.822266" xlink:href="#DejaVuSans-45"/>
       <use x="453.90625" xlink:href="#DejaVuSans-48"/>
       <use x="517.529297" xlink:href="#DejaVuSans-49"/>
      </g>
     </g>
    </g>
    <g id="xtick_4">
     <g id="line2d_4">
      <g>
       <use style="stroke:#000000;stroke-width:0.8;" x="245.07151" xlink:href="#m5f3fde1cbf" y="221.939962"/>
      </g>
     </g>
     <g id="text_4">
      <!-- 2019-07-01 -->
      <g transform="translate(226.475706 275.406821)rotate(-45)scale(0.1 -0.1)">
       <use xlink:href="#DejaVuSans-50"/>
       <use x="63.623047" xlink:href="#DejaVuSans-48"/>
       <use x="127.246094" xlink:href="#DejaVuSans-49"/>
       <use x="190.869141" xlink:href="#DejaVuSans-57"/>
       <use x="254.492188" xlink:href="#DejaVuSans-45"/>
       <use x="290.576172" xlink:href="#DejaVuSans-48"/>
       <use x="354.199219" xlink:href="#DejaVuSans-55"/>
       <use x="417.822266" xlink:href="#DejaVuSans-45"/>
       <use x="453.90625" xlink:href="#DejaVuSans-48"/>
       <use x="517.529297" xlink:href="#DejaVuSans-49"/>
      </g>
     </g>
    </g>
    <g id="xtick_5">
     <g id="line2d_5">
      <g>
       <use style="stroke:#000000;stroke-width:0.8;" x="283.331043" xlink:href="#m5f3fde1cbf" y="221.939962"/>
      </g>
     </g>
     <g id="text_5">
      <!-- 2020-01-01 -->
      <g transform="translate(264.735239 275.406821)rotate(-45)scale(0.1 -0.1)">
       <use xlink:href="#DejaVuSans-50"/>
       <use x="63.623047" xlink:href="#DejaVuSans-48"/>
       <use x="127.246094" xlink:href="#DejaVuSans-50"/>
       <use x="190.869141" xlink:href="#DejaVuSans-48"/>
       <use x="254.492188" xlink:href="#DejaVuSans-45"/>
       <use x="290.576172" xlink:href="#DejaVuSans-48"/>
       <use x="354.199219" xlink:href="#DejaVuSans-49"/>
       <use x="417.822266" xlink:href="#DejaVuSans-45"/>
       <use x="453.90625" xlink:href="#DejaVuSans-48"/>
       <use x="517.529297" xlink:href="#DejaVuSans-49"/>
      </g>
     </g>
    </g>
    <g id="xtick_6">
     <g id="line2d_6">
      <g>
       <use style="stroke:#000000;stroke-width:0.8;" x="321.174712" xlink:href="#m5f3fde1cbf" y="221.939962"/>
      </g>
     </g>
     <g id="text_6">
      <!-- 2020-07-01 -->
      <g transform="translate(302.578908 275.406821)rotate(-45)scale(0.1 -0.1)">
       <use xlink:href="#DejaVuSans-50"/>
       <use x="63.623047" xlink:href="#DejaVuSans-48"/>
       <use x="127.246094" xlink:href="#DejaVuSans-50"/>
       <use x="190.869141" xlink:href="#DejaVuSans-48"/>
       <use x="254.492188" xlink:href="#DejaVuSans-45"/>
       <use x="290.576172" xlink:href="#DejaVuSans-48"/>
       <use x="354.199219" xlink:href="#DejaVuSans-55"/>
       <use x="417.822266" xlink:href="#DejaVuSans-45"/>
       <use x="453.90625" xlink:href="#DejaVuSans-48"/>
       <use x="517.529297" xlink:href="#DejaVuSans-49"/>
      </g>
     </g>
    </g>
    <g id="xtick_7">
     <g id="line2d_7">
      <g>
       <use style="stroke:#000000;stroke-width:0.8;" x="359.434245" xlink:href="#m5f3fde1cbf" y="221.939962"/>
      </g>
     </g>
     <g id="text_7">
      <!-- 2021-01-01 -->
      <g transform="translate(340.838441 275.406821)rotate(-45)scale(0.1 -0.1)">
       <use xlink:href="#DejaVuSans-50"/>
       <use x="63.623047" xlink:href="#DejaVuSans-48"/>
       <use x="127.246094" xlink:href="#DejaVuSans-50"/>
       <use x="190.869141" xlink:href="#DejaVuSans-49"/>
       <use x="254.492188" xlink:href="#DejaVuSans-45"/>
       <use x="290.576172" xlink:href="#DejaVuSans-48"/>
       <use x="354.199219" xlink:href="#DejaVuSans-49"/>
       <use x="417.822266" xlink:href="#DejaVuSans-45"/>
       <use x="453.90625" xlink:href="#DejaVuSans-48"/>
       <use x="517.529297" xlink:href="#DejaVuSans-49"/>
      </g>
     </g>
    </g>
    <g id="xtick_8">
     <g id="line2d_8">
      <g>
       <use style="stroke:#000000;stroke-width:0.8;" x="397.069981" xlink:href="#m5f3fde1cbf" y="221.939962"/>
      </g>
     </g>
     <g id="text_8">
      <!-- 2021-07-01 -->
      <g transform="translate(378.474178 275.406821)rotate(-45)scale(0.1 -0.1)">
       <use xlink:href="#DejaVuSans-50"/>
       <use x="63.623047" xlink:href="#DejaVuSans-48"/>
       <use x="127.246094" xlink:href="#DejaVuSans-50"/>
       <use x="190.869141" xlink:href="#DejaVuSans-49"/>
       <use x="254.492188" xlink:href="#DejaVuSans-45"/>
       <use x="290.576172" xlink:href="#DejaVuSans-48"/>
       <use x="354.199219" xlink:href="#DejaVuSans-55"/>
       <use x="417.822266" xlink:href="#DejaVuSans-45"/>
       <use x="453.90625" xlink:href="#DejaVuSans-48"/>
       <use x="517.529297" xlink:href="#DejaVuSans-49"/>
      </g>
     </g>
    </g>
   </g>
   <g id="matplotlib.axis_2">
    <g id="ytick_1">
     <g id="line2d_9">
      <defs>
       <path d="M 0 0 
L -3.5 0 
" id="mfb27199a9a" style="stroke:#000000;stroke-width:0.8;"/>
      </defs>
      <g>
       <use style="stroke:#000000;stroke-width:0.8;" x="55.645234" xlink:href="#mfb27199a9a" y="213.345298"/>
      </g>
     </g>
     <g id="text_9">
      <!-- $\mathdefault{10^{0}}$ -->
      <g transform="translate(31.045234 217.144517)scale(0.1 -0.1)">
       <use transform="translate(0 0.765625)" xlink:href="#DejaVuSans-49"/>
       <use transform="translate(63.623047 0.765625)" xlink:href="#DejaVuSans-48"/>
       <use transform="translate(128.203125 39.046875)scale(0.7)" xlink:href="#DejaVuSans-48"/>
      </g>
     </g>
    </g>
    <g id="ytick_2">
     <g id="line2d_10">
      <g>
       <use style="stroke:#000000;stroke-width:0.8;" x="55.645234" xlink:href="#mfb27199a9a" y="164.183973"/>
      </g>
     </g>
     <g id="text_10">
      <!-- $\mathdefault{10^{1}}$ -->
      <g transform="translate(31.045234 167.983192)scale(0.1 -0.1)">
       <use transform="translate(0 0.684375)" xlink:href="#DejaVuSans-49"/>
       <use transform="translate(63.623047 0.684375)" xlink:href="#DejaVuSans-48"/>
       <use transform="translate(128.203125 38.965625)scale(0.7)" xlink:href="#DejaVuSans-49"/>
      </g>
     </g>
    </g>
    <g id="ytick_3">
     <g id="line2d_11">
      <g>
       <use style="stroke:#000000;stroke-width:0.8;" x="55.645234" xlink:href="#mfb27199a9a" y="115.022649"/>
      </g>
     </g>
     <g id="text_11">
      <!-- $\mathdefault{10^{2}}$ -->
      <g transform="translate(31.045234 118.821868)scale(0.1 -0.1)">
       <use transform="translate(0 0.765625)" xlink:href="#DejaVuSans-49"/>
       <use transform="translate(63.623047 0.765625)" xlink:href="#DejaVuSans-48"/>
       <use transform="translate(128.203125 39.046875)scale(0.7)" xlink:href="#DejaVuSans-50"/>
      </g>
     </g>
    </g>
    <g id="ytick_4">
     <g id="line2d_12">
      <g>
       <use style="stroke:#000000;stroke-width:0.8;" x="55.645234" xlink:href="#mfb27199a9a" y="65.861324"/>
      </g>
     </g>
     <g id="text_12">
      <!-- $\mathdefault{10^{3}}$ -->
      <g transform="translate(31.045234 69.660543)scale(0.1 -0.1)">
       <defs>
        <path d="M 40.578125 39.3125 
Q 47.65625 37.796875 51.625 33 
Q 55.609375 28.21875 55.609375 21.1875 
Q 55.609375 10.40625 48.1875 4.484375 
Q 40.765625 -1.421875 27.09375 -1.421875 
Q 22.515625 -1.421875 17.65625 -0.515625 
Q 12.796875 0.390625 7.625 2.203125 
L 7.625 11.71875 
Q 11.71875 9.328125 16.59375 8.109375 
Q 21.484375 6.890625 26.8125 6.890625 
Q 36.078125 6.890625 40.9375 10.546875 
Q 45.796875 14.203125 45.796875 21.1875 
Q 45.796875 27.640625 41.28125 31.265625 
Q 36.765625 34.90625 28.71875 34.90625 
L 20.21875 34.90625 
L 20.21875 43.015625 
L 29.109375 43.015625 
Q 36.375 43.015625 40.234375 45.921875 
Q 44.09375 48.828125 44.09375 54.296875 
Q 44.09375 59.90625 40.109375 62.90625 
Q 36.140625 65.921875 28.71875 65.921875 
Q 24.65625 65.921875 20.015625 65.03125 
Q 15.375 64.15625 9.8125 62.3125 
L 9.8125 71.09375 
Q 15.4375 72.65625 20.34375 73.4375 
Q 25.25 74.21875 29.59375 74.21875 
Q 40.828125 74.21875 47.359375 69.109375 
Q 53.90625 64.015625 53.90625 55.328125 
Q 53.90625 49.265625 50.4375 45.09375 
Q 46.96875 40.921875 40.578125 39.3125 
z
" id="DejaVuSans-51"/>
       </defs>
       <use transform="translate(0 0.765625)" xlink:href="#DejaVuSans-49"/>
       <use transform="translate(63.623047 0.765625)" xlink:href="#DejaVuSans-48"/>
       <use transform="translate(128.203125 39.046875)scale(0.7)" xlink:href="#DejaVuSans-51"/>
      </g>
     </g>
    </g>
    <g id="ytick_5">
     <g id="line2d_13">
      <g>
       <use style="stroke:#000000;stroke-width:0.8;" x="55.645234" xlink:href="#mfb27199a9a" y="16.7"/>
      </g>
     </g>
     <g id="text_13">
      <!-- $\mathdefault{10^{4}}$ -->
      <g transform="translate(31.045234 20.499219)scale(0.1 -0.1)">
       <defs>
        <path d="M 37.796875 64.3125 
L 12.890625 25.390625 
L 37.796875 25.390625 
z
M 35.203125 72.90625 
L 47.609375 72.90625 
L 47.609375 25.390625 
L 58.015625 25.390625 
L 58.015625 17.1875 
L 47.609375 17.1875 
L 47.609375 0 
L 37.796875 0 
L 37.796875 17.1875 
L 4.890625 17.1875 
L 4.890625 26.703125 
z
" id="DejaVuSans-52"/>
       </defs>
       <use transform="translate(0 0.684375)" xlink:href="#DejaVuSans-49"/>
       <use transform="translate(63.623047 0.684375)" xlink:href="#DejaVuSans-48"/>
       <use transform="translate(128.203125 38.965625)scale(0.7)" xlink:href="#DejaVuSans-52"/>
      </g>
     </g>
    </g>
    <g id="ytick_6">
     <g id="line2d_14">
      <defs>
       <path d="M 0 0 
L -2 0 
" id="m3a5af36c80" style="stroke:#000000;stroke-width:0.6;"/>
      </defs>
      <g>
       <use style="stroke:#000000;stroke-width:0.6;" x="55.645234" xlink:href="#m3a5af36c80" y="220.960483"/>
      </g>
     </g>
    </g>
    <g id="ytick_7">
     <g id="line2d_15">
      <g>
       <use style="stroke:#000000;stroke-width:0.6;" x="55.645234" xlink:href="#m3a5af36c80" y="218.109523"/>
      </g>
     </g>
    </g>
    <g id="ytick_8">
     <g id="line2d_16">
      <g>
       <use style="stroke:#000000;stroke-width:0.6;" x="55.645234" xlink:href="#m3a5af36c80" y="215.594797"/>
      </g>
     </g>
    </g>
    <g id="ytick_9">
     <g id="line2d_17">
      <g>
       <use style="stroke:#000000;stroke-width:0.6;" x="55.645234" xlink:href="#m3a5af36c80" y="198.546265"/>
      </g>
     </g>
    </g>
    <g id="ytick_10">
     <g id="line2d_18">
      <g>
       <use style="stroke:#000000;stroke-width:0.6;" x="55.645234" xlink:href="#m3a5af36c80" y="189.889385"/>
      </g>
     </g>
    </g>
    <g id="ytick_11">
     <g id="line2d_19">
      <g>
       <use style="stroke:#000000;stroke-width:0.6;" x="55.645234" xlink:href="#m3a5af36c80" y="183.747231"/>
      </g>
     </g>
    </g>
    <g id="ytick_12">
     <g id="line2d_20">
      <g>
       <use style="stroke:#000000;stroke-width:0.6;" x="55.645234" xlink:href="#m3a5af36c80" y="178.983007"/>
      </g>
     </g>
    </g>
    <g id="ytick_13">
     <g id="line2d_21">
      <g>
       <use style="stroke:#000000;stroke-width:0.6;" x="55.645234" xlink:href="#m3a5af36c80" y="175.090352"/>
      </g>
     </g>
    </g>
    <g id="ytick_14">
     <g id="line2d_22">
      <g>
       <use style="stroke:#000000;stroke-width:0.6;" x="55.645234" xlink:href="#m3a5af36c80" y="171.799159"/>
      </g>
     </g>
    </g>
    <g id="ytick_15">
     <g id="line2d_23">
      <g>
       <use style="stroke:#000000;stroke-width:0.6;" x="55.645234" xlink:href="#m3a5af36c80" y="168.948198"/>
      </g>
     </g>
    </g>
    <g id="ytick_16">
     <g id="line2d_24">
      <g>
       <use style="stroke:#000000;stroke-width:0.6;" x="55.645234" xlink:href="#m3a5af36c80" y="166.433472"/>
      </g>
     </g>
    </g>
    <g id="ytick_17">
     <g id="line2d_25">
      <g>
       <use style="stroke:#000000;stroke-width:0.6;" x="55.645234" xlink:href="#m3a5af36c80" y="149.38494"/>
      </g>
     </g>
    </g>
    <g id="ytick_18">
     <g id="line2d_26">
      <g>
       <use style="stroke:#000000;stroke-width:0.6;" x="55.645234" xlink:href="#m3a5af36c80" y="140.728061"/>
      </g>
     </g>
    </g>
    <g id="ytick_19">
     <g id="line2d_27">
      <g>
       <use style="stroke:#000000;stroke-width:0.6;" x="55.645234" xlink:href="#m3a5af36c80" y="134.585907"/>
      </g>
     </g>
    </g>
    <g id="ytick_20">
     <g id="line2d_28">
      <g>
       <use style="stroke:#000000;stroke-width:0.6;" x="55.645234" xlink:href="#m3a5af36c80" y="129.821682"/>
      </g>
     </g>
    </g>
    <g id="ytick_21">
     <g id="line2d_29">
      <g>
       <use style="stroke:#000000;stroke-width:0.6;" x="55.645234" xlink:href="#m3a5af36c80" y="125.929027"/>
      </g>
     </g>
    </g>
    <g id="ytick_22">
     <g id="line2d_30">
      <g>
       <use style="stroke:#000000;stroke-width:0.6;" x="55.645234" xlink:href="#m3a5af36c80" y="122.637834"/>
      </g>
     </g>
    </g>
    <g id="ytick_23">
     <g id="line2d_31">
      <g>
       <use style="stroke:#000000;stroke-width:0.6;" x="55.645234" xlink:href="#m3a5af36c80" y="119.786874"/>
      </g>
     </g>
    </g>
    <g id="ytick_24">
     <g id="line2d_32">
      <g>
       <use style="stroke:#000000;stroke-width:0.6;" x="55.645234" xlink:href="#m3a5af36c80" y="117.272148"/>
      </g>
     </g>
    </g>
    <g id="ytick_25">
     <g id="line2d_33">
      <g>
       <use style="stroke:#000000;stroke-width:0.6;" x="55.645234" xlink:href="#m3a5af36c80" y="100.223616"/>
      </g>
     </g>
    </g>
    <g id="ytick_26">
     <g id="line2d_34">
      <g>
       <use style="stroke:#000000;stroke-width:0.6;" x="55.645234" xlink:href="#m3a5af36c80" y="91.566736"/>
      </g>
     </g>
    </g>
    <g id="ytick_27">
     <g id="line2d_35">
      <g>
       <use style="stroke:#000000;stroke-width:0.6;" x="55.645234" xlink:href="#m3a5af36c80" y="85.424582"/>
      </g>
     </g>
    </g>
    <g id="ytick_28">
     <g id="line2d_36">
      <g>
       <use style="stroke:#000000;stroke-width:0.6;" x="55.645234" xlink:href="#m3a5af36c80" y="80.660358"/>
      </g>
     </g>
    </g>
    <g id="ytick_29">
     <g id="line2d_37">
      <g>
       <use style="stroke:#000000;stroke-width:0.6;" x="55.645234" xlink:href="#m3a5af36c80" y="76.767703"/>
      </g>
     </g>
    </g>
    <g id="ytick_30">
     <g id="line2d_38">
      <g>
       <use style="stroke:#000000;stroke-width:0.6;" x="55.645234" xlink:href="#m3a5af36c80" y="73.47651"/>
      </g>
     </g>
    </g>
    <g id="ytick_31">
     <g id="line2d_39">
      <g>
       <use style="stroke:#000000;stroke-width:0.6;" x="55.645234" xlink:href="#m3a5af36c80" y="70.625549"/>
      </g>
     </g>
    </g>
    <g id="ytick_32">
     <g id="line2d_40">
      <g>
       <use style="stroke:#000000;stroke-width:0.6;" x="55.645234" xlink:href="#m3a5af36c80" y="68.110823"/>
      </g>
     </g>
    </g>
    <g id="ytick_33">
     <g id="line2d_41">
      <g>
       <use style="stroke:#000000;stroke-width:0.6;" x="55.645234" xlink:href="#m3a5af36c80" y="51.062291"/>
      </g>
     </g>
    </g>
    <g id="ytick_34">
     <g id="line2d_42">
      <g>
       <use style="stroke:#000000;stroke-width:0.6;" x="55.645234" xlink:href="#m3a5af36c80" y="42.405412"/>
      </g>
     </g>
    </g>
    <g id="ytick_35">
     <g id="line2d_43">
      <g>
       <use style="stroke:#000000;stroke-width:0.6;" x="55.645234" xlink:href="#m3a5af36c80" y="36.263258"/>
      </g>
     </g>
    </g>
    <g id="ytick_36">
     <g id="line2d_44">
      <g>
       <use style="stroke:#000000;stroke-width:0.6;" x="55.645234" xlink:href="#m3a5af36c80" y="31.499033"/>
      </g>
     </g>
    </g>
    <g id="ytick_37">
     <g id="line2d_45">
      <g>
       <use style="stroke:#000000;stroke-width:0.6;" x="55.645234" xlink:href="#m3a5af36c80" y="27.606378"/>
      </g>
     </g>
    </g>
    <g id="ytick_38">
     <g id="line2d_46">
      <g>
       <use style="stroke:#000000;stroke-width:0.6;" x="55.645234" xlink:href="#m3a5af36c80" y="24.315186"/>
      </g>
     </g>
    </g>
    <g id="ytick_39">
     <g id="line2d_47">
      <g>
       <use style="stroke:#000000;stroke-width:0.6;" x="55.645234" xlink:href="#m3a5af36c80" y="21.464225"/>
      </g>
     </g>
    </g>
    <g id="ytick_40">
     <g id="line2d_48">
      <g>
       <use style="stroke:#000000;stroke-width:0.6;" x="55.645234" xlink:href="#m3a5af36c80" y="18.949499"/>
      </g>
     </g>
    </g>
    <g id="text_14">
     <!-- log(Anzahl Tweets / Tag) -->
     <g transform="translate(23.717734 215.822481)rotate(-90)scale(0.16 -0.16)">
      <defs>
       <path d="M 9.421875 75.984375 
L 18.40625 75.984375 
L 18.40625 0 
L 9.421875 0 
z
" id="DejaVuSans-108"/>
       <path d="M 30.609375 48.390625 
Q 23.390625 48.390625 19.1875 42.75 
Q 14.984375 37.109375 14.984375 27.296875 
Q 14.984375 17.484375 19.15625 11.84375 
Q 23.34375 6.203125 30.609375 6.203125 
Q 37.796875 6.203125 41.984375 11.859375 
Q 46.1875 17.53125 46.1875 27.296875 
Q 46.1875 37.015625 41.984375 42.703125 
Q 37.796875 48.390625 30.609375 48.390625 
z
M 30.609375 56 
Q 42.328125 56 49.015625 48.375 
Q 55.71875 40.765625 55.71875 27.296875 
Q 55.71875 13.875 49.015625 6.21875 
Q 42.328125 -1.421875 30.609375 -1.421875 
Q 18.84375 -1.421875 12.171875 6.21875 
Q 5.515625 13.875 5.515625 27.296875 
Q 5.515625 40.765625 12.171875 48.375 
Q 18.84375 56 30.609375 56 
z
" id="DejaVuSans-111"/>
       <path d="M 45.40625 27.984375 
Q 45.40625 37.75 41.375 43.109375 
Q 37.359375 48.484375 30.078125 48.484375 
Q 22.859375 48.484375 18.828125 43.109375 
Q 14.796875 37.75 14.796875 27.984375 
Q 14.796875 18.265625 18.828125 12.890625 
Q 22.859375 7.515625 30.078125 7.515625 
Q 37.359375 7.515625 41.375 12.890625 
Q 45.40625 18.265625 45.40625 27.984375 
z
M 54.390625 6.78125 
Q 54.390625 -7.171875 48.1875 -13.984375 
Q 42 -20.796875 29.203125 -20.796875 
Q 24.46875 -20.796875 20.265625 -20.09375 
Q 16.0625 -19.390625 12.109375 -17.921875 
L 12.109375 -9.1875 
Q 16.0625 -11.328125 19.921875 -12.34375 
Q 23.78125 -13.375 27.78125 -13.375 
Q 36.625 -13.375 41.015625 -8.765625 
Q 45.40625 -4.15625 45.40625 5.171875 
L 45.40625 9.625 
Q 42.625 4.78125 38.28125 2.390625 
Q 33.9375 0 27.875 0 
Q 17.828125 0 11.671875 7.65625 
Q 5.515625 15.328125 5.515625 27.984375 
Q 5.515625 40.671875 11.671875 48.328125 
Q 17.828125 56 27.875 56 
Q 33.9375 56 38.28125 53.609375 
Q 42.625 51.21875 45.40625 46.390625 
L 45.40625 54.6875 
L 54.390625 54.6875 
z
" id="DejaVuSans-103"/>
       <path d="M 31 75.875 
Q 24.46875 64.65625 21.28125 53.65625 
Q 18.109375 42.671875 18.109375 31.390625 
Q 18.109375 20.125 21.3125 9.0625 
Q 24.515625 -2 31 -13.1875 
L 23.1875 -13.1875 
Q 15.875 -1.703125 12.234375 9.375 
Q 8.59375 20.453125 8.59375 31.390625 
Q 8.59375 42.28125 12.203125 53.3125 
Q 15.828125 64.359375 23.1875 75.875 
z
" id="DejaVuSans-40"/>
       <path d="M 34.1875 63.1875 
L 20.796875 26.90625 
L 47.609375 26.90625 
z
M 28.609375 72.90625 
L 39.796875 72.90625 
L 67.578125 0 
L 57.328125 0 
L 50.6875 18.703125 
L 17.828125 18.703125 
L 11.1875 0 
L 0.78125 0 
z
" id="DejaVuSans-65"/>
       <path d="M 54.890625 33.015625 
L 54.890625 0 
L 45.90625 0 
L 45.90625 32.71875 
Q 45.90625 40.484375 42.875 44.328125 
Q 39.84375 48.1875 33.796875 48.1875 
Q 26.515625 48.1875 22.3125 43.546875 
Q 18.109375 38.921875 18.109375 30.90625 
L 18.109375 0 
L 9.078125 0 
L 9.078125 54.6875 
L 18.109375 54.6875 
L 18.109375 46.1875 
Q 21.34375 51.125 25.703125 53.5625 
Q 30.078125 56 35.796875 56 
Q 45.21875 56 50.046875 50.171875 
Q 54.890625 44.34375 54.890625 33.015625 
z
" id="DejaVuSans-110"/>
       <path d="M 5.515625 54.6875 
L 48.1875 54.6875 
L 48.1875 46.484375 
L 14.40625 7.171875 
L 48.1875 7.171875 
L 48.1875 0 
L 4.296875 0 
L 4.296875 8.203125 
L 38.09375 47.515625 
L 5.515625 47.515625 
z
" id="DejaVuSans-122"/>
       <path d="M 34.28125 27.484375 
Q 23.390625 27.484375 19.1875 25 
Q 14.984375 22.515625 14.984375 16.5 
Q 14.984375 11.71875 18.140625 8.90625 
Q 21.296875 6.109375 26.703125 6.109375 
Q 34.1875 6.109375 38.703125 11.40625 
Q 43.21875 16.703125 43.21875 25.484375 
L 43.21875 27.484375 
z
M 52.203125 31.203125 
L 52.203125 0 
L 43.21875 0 
L 43.21875 8.296875 
Q 40.140625 3.328125 35.546875 0.953125 
Q 30.953125 -1.421875 24.3125 -1.421875 
Q 15.921875 -1.421875 10.953125 3.296875 
Q 6 8.015625 6 15.921875 
Q 6 25.140625 12.171875 29.828125 
Q 18.359375 34.515625 30.609375 34.515625 
L 43.21875 34.515625 
L 43.21875 35.40625 
Q 43.21875 41.609375 39.140625 45 
Q 35.0625 48.390625 27.6875 48.390625 
Q 23 48.390625 18.546875 47.265625 
Q 14.109375 46.140625 10.015625 43.890625 
L 10.015625 52.203125 
Q 14.9375 54.109375 19.578125 55.046875 
Q 24.21875 56 28.609375 56 
Q 40.484375 56 46.34375 49.84375 
Q 52.203125 43.703125 52.203125 31.203125 
z
" id="DejaVuSans-97"/>
       <path d="M 54.890625 33.015625 
L 54.890625 0 
L 45.90625 0 
L 45.90625 32.71875 
Q 45.90625 40.484375 42.875 44.328125 
Q 39.84375 48.1875 33.796875 48.1875 
Q 26.515625 48.1875 22.3125 43.546875 
Q 18.109375 38.921875 18.109375 30.90625 
L 18.109375 0 
L 9.078125 0 
L 9.078125 75.984375 
L 18.109375 75.984375 
L 18.109375 46.1875 
Q 21.34375 51.125 25.703125 53.5625 
Q 30.078125 56 35.796875 56 
Q 45.21875 56 50.046875 50.171875 
Q 54.890625 44.34375 54.890625 33.015625 
z
" id="DejaVuSans-104"/>
       <path id="DejaVuSans-32"/>
       <path d="M -0.296875 72.90625 
L 61.375 72.90625 
L 61.375 64.59375 
L 35.5 64.59375 
L 35.5 0 
L 25.59375 0 
L 25.59375 64.59375 
L -0.296875 64.59375 
z
" id="DejaVuSans-84"/>
       <path d="M 4.203125 54.6875 
L 13.1875 54.6875 
L 24.421875 12.015625 
L 35.59375 54.6875 
L 46.1875 54.6875 
L 57.421875 12.015625 
L 68.609375 54.6875 
L 77.59375 54.6875 
L 63.28125 0 
L 52.6875 0 
L 40.921875 44.828125 
L 29.109375 0 
L 18.5 0 
z
" id="DejaVuSans-119"/>
       <path d="M 56.203125 29.59375 
L 56.203125 25.203125 
L 14.890625 25.203125 
Q 15.484375 15.921875 20.484375 11.0625 
Q 25.484375 6.203125 34.421875 6.203125 
Q 39.59375 6.203125 44.453125 7.46875 
Q 49.3125 8.734375 54.109375 11.28125 
L 54.109375 2.78125 
Q 49.265625 0.734375 44.1875 -0.34375 
Q 39.109375 -1.421875 33.890625 -1.421875 
Q 20.796875 -1.421875 13.15625 6.1875 
Q 5.515625 13.8125 5.515625 26.8125 
Q 5.515625 40.234375 12.765625 48.109375 
Q 20.015625 56 32.328125 56 
Q 43.359375 56 49.78125 48.890625 
Q 56.203125 41.796875 56.203125 29.59375 
z
M 47.21875 32.234375 
Q 47.125 39.59375 43.09375 43.984375 
Q 39.0625 48.390625 32.421875 48.390625 
Q 24.90625 48.390625 20.390625 44.140625 
Q 15.875 39.890625 15.1875 32.171875 
z
" id="DejaVuSans-101"/>
       <path d="M 18.3125 70.21875 
L 18.3125 54.6875 
L 36.8125 54.6875 
L 36.8125 47.703125 
L 18.3125 47.703125 
L 18.3125 18.015625 
Q 18.3125 11.328125 20.140625 9.421875 
Q 21.96875 7.515625 27.59375 7.515625 
L 36.8125 7.515625 
L 36.8125 0 
L 27.59375 0 
Q 17.1875 0 13.234375 3.875 
Q 9.28125 7.765625 9.28125 18.015625 
L 9.28125 47.703125 
L 2.6875 47.703125 
L 2.6875 54.6875 
L 9.28125 54.6875 
L 9.28125 70.21875 
z
" id="DejaVuSans-116"/>
       <path d="M 44.28125 53.078125 
L 44.28125 44.578125 
Q 40.484375 46.53125 36.375 47.5 
Q 32.28125 48.484375 27.875 48.484375 
Q 21.1875 48.484375 17.84375 46.4375 
Q 14.5 44.390625 14.5 40.28125 
Q 14.5 37.15625 16.890625 35.375 
Q 19.28125 33.59375 26.515625 31.984375 
L 29.59375 31.296875 
Q 39.15625 29.25 43.1875 25.515625 
Q 47.21875 21.78125 47.21875 15.09375 
Q 47.21875 7.46875 41.1875 3.015625 
Q 35.15625 -1.421875 24.609375 -1.421875 
Q 20.21875 -1.421875 15.453125 -0.5625 
Q 10.6875 0.296875 5.421875 2 
L 5.421875 11.28125 
Q 10.40625 8.6875 15.234375 7.390625 
Q 20.0625 6.109375 24.8125 6.109375 
Q 31.15625 6.109375 34.5625 8.28125 
Q 37.984375 10.453125 37.984375 14.40625 
Q 37.984375 18.0625 35.515625 20.015625 
Q 33.0625 21.96875 24.703125 23.78125 
L 21.578125 24.515625 
Q 13.234375 26.265625 9.515625 29.90625 
Q 5.8125 33.546875 5.8125 39.890625 
Q 5.8125 47.609375 11.28125 51.796875 
Q 16.75 56 26.8125 56 
Q 31.78125 56 36.171875 55.265625 
Q 40.578125 54.546875 44.28125 53.078125 
z
" id="DejaVuSans-115"/>
       <path d="M 25.390625 72.90625 
L 33.6875 72.90625 
L 8.296875 -9.28125 
L 0 -9.28125 
z
" id="DejaVuSans-47"/>
       <path d="M 8.015625 75.875 
L 15.828125 75.875 
Q 23.140625 64.359375 26.78125 53.3125 
Q 30.421875 42.28125 30.421875 31.390625 
Q 30.421875 20.453125 26.78125 9.375 
Q 23.140625 -1.703125 15.828125 -13.1875 
L 8.015625 -13.1875 
Q 14.5 -2 17.703125 9.0625 
Q 20.90625 20.125 20.90625 31.390625 
Q 20.90625 42.671875 17.703125 53.65625 
Q 14.5 64.65625 8.015625 75.875 
z
" id="DejaVuSans-41"/>
      </defs>
      <use xlink:href="#DejaVuSans-108"/>
      <use x="27.783203" xlink:href="#DejaVuSans-111"/>
      <use x="88.964844" xlink:href="#DejaVuSans-103"/>
      <use x="152.441406" xlink:href="#DejaVuSans-40"/>
      <use x="191.455078" xlink:href="#DejaVuSans-65"/>
      <use x="259.863281" xlink:href="#DejaVuSans-110"/>
      <use x="323.242188" xlink:href="#DejaVuSans-122"/>
      <use x="375.732422" xlink:href="#DejaVuSans-97"/>
      <use x="437.011719" xlink:href="#DejaVuSans-104"/>
      <use x="500.390625" xlink:href="#DejaVuSans-108"/>
      <use x="528.173828" xlink:href="#DejaVuSans-32"/>
      <use x="559.960938" xlink:href="#DejaVuSans-84"/>
      <use x="604.544922" xlink:href="#DejaVuSans-119"/>
      <use x="686.332031" xlink:href="#DejaVuSans-101"/>
      <use x="747.855469" xlink:href="#DejaVuSans-101"/>
      <use x="809.378906" xlink:href="#DejaVuSans-116"/>
      <use x="848.587891" xlink:href="#DejaVuSans-115"/>
      <use x="900.6875" xlink:href="#DejaVuSans-32"/>
      <use x="932.474609" xlink:href="#DejaVuSans-47"/>
      <use x="966.166016" xlink:href="#DejaVuSans-32"/>
      <use x="997.953125" xlink:href="#DejaVuSans-84"/>
      <use x="1042.537109" xlink:href="#DejaVuSans-97"/>
      <use x="1103.816406" xlink:href="#DejaVuSans-103"/>
      <use x="1167.292969" xlink:href="#DejaVuSans-41"/>
     </g>
    </g>
   </g>
   <g id="line2d_49">
    <path clip-path="url(#pcc2a7d1974)" d="M 136.73881 187.947093 
L 136.946742 190.931079 
L 137.362607 183.747231 
L 137.570539 184.523698 
L 137.778471 179.601905 
L 137.986403 178.381545 
L 138.194336 171.799159 
L 138.818132 173.14806 
L 139.233997 175.604846 
L 139.649861 176.132046 
L 139.857794 176.132046 
L 141.105387 178.381545 
L 142.145048 197.073233 
L 142.352981 198.546265 
L 143.808506 198.546265 
L 144.016439 200.128506 
L 145.264032 201.837457 
L 145.887829 205.730112 
L 146.095761 205.730112 
L 147.967151 184.523698 
L 148.175084 174.097127 
L 148.383016 173.61732 
L 148.79888 174.097127 
L 149.006812 173.14806 
L 149.214745 173.61732 
L 149.422677 173.61732 
L 149.630609 182.998014 
L 150.878203 201.837457 
L 151.294067 205.730112 
L 159.819289 205.730112 
L 162.106544 203.695193 
L 164.601731 203.695193 
L 165.017595 182.998014 
L 165.43346 181.574121 
L 167.720715 169.724665 
L 167.928647 169.724665 
L 179.572853 169.332902 
L 183.523565 165.440247 
L 183.93943 162.710942 
L 184.147362 169.332902 
L 184.563226 168.198981 
L 184.771159 166.433472 
L 185.187023 180.23928 
L 185.394955 178.983007 
L 185.81082 179.601905 
L 186.018752 180.89627 
L 186.434617 181.574121 
L 186.642549 185.329473 
L 187.474278 180.89627 
L 195.791568 177.227183 
L 197.455026 181.574121 
L 197.662958 182.998014 
L 198.702619 185.329473 
L 199.118484 173.61732 
L 199.326416 174.097127 
L 199.534348 172.239391 
L 199.950213 172.239391 
L 200.158145 173.14806 
L 200.366077 172.239391 
L 200.574009 174.097127 
L 201.613671 179.601905 
L 201.821603 181.574121 
L 202.029535 189.889385 
L 203.277129 187.038424 
L 203.692993 174.587964 
L 204.108857 178.983007 
L 204.31679 178.983007 
L 204.524722 180.23928 
L 206.811977 180.23928 
L 211.594418 182.2742 
L 211.802351 181.574121 
L 212.010283 185.329473 
L 212.842012 185.329473 
L 213.257876 182.998014 
L 213.465809 179.601905 
L 214.921334 178.381545 
L 215.753063 177.227183 
L 216.168928 182.2742 
L 216.37686 180.23928 
L 216.584792 182.998014 
L 217.624453 180.23928 
L 218.040318 180.89627 
L 218.456182 182.2742 
L 218.872047 188.89616 
L 219.287911 189.889385 
L 219.495844 179.601905 
L 220.327573 170.53044 
L 220.535505 170.945025 
L 221.159302 170.945025 
L 221.367234 170.123751 
L 221.575166 170.123751 
L 225.941743 179.601905 
L 226.149675 186.166855 
L 226.357608 185.329473 
L 226.56554 185.329473 
L 226.773472 182.2742 
L 227.189337 168.198981 
L 231.347982 173.14806 
L 231.555914 174.587964 
L 233.01144 170.945025 
L 233.427304 176.672593 
L 233.635236 182.998014 
L 234.051101 182.998014 
L 235.922491 182.2742 
L 237.793881 187.947093 
L 238.001813 187.038424 
L 238.417678 183.747231 
L 239.457339 192.026216 
L 240.081136 168.570303 
L 240.289068 168.948198 
L 240.704933 161.601576 
L 240.912865 153.034973 
L 241.120797 151.976054 
L 241.328729 152.148934 
L 241.536662 156.145992 
L 242.368391 160.038647 
L 242.576323 157.889858 
L 242.784255 163.288017 
L 242.992187 180.23928 
L 243.408052 185.329473 
L 243.823916 182.2742 
L 244.031849 177.227183 
L 244.239781 181.574121 
L 244.863578 183.747231 
L 245.07151 182.998014 
L 245.279442 177.227183 
L 245.487374 176.132046 
L 246.319103 177.227183 
L 248.81429 182.998014 
L 249.438087 183.747231 
L 256.923648 182.998014 
L 257.755377 183.747231 
L 258.171241 194.400938 
L 258.587106 201.837457 
L 259.210902 188.89616 
L 261.082293 188.89616 
L 261.290225 187.947093 
L 262.745751 188.89616 
L 263.161615 175.090352 
L 263.785412 180.89627 
L 264.409209 180.89627 
L 264.617141 177.227183 
L 265.033005 177.796563 
L 265.44887 176.672593 
L 265.656802 184.523698 
L 265.864734 184.523698 
L 266.072667 182.998014 
L 266.280599 182.998014 
L 267.112328 187.947093 
L 267.32026 176.672593 
L 267.528192 176.672593 
L 268.983718 176.132046 
L 269.19165 180.23928 
L 269.815447 180.89627 
L 271.894769 181.574121 
L 272.102702 177.227183 
L 272.726498 184.523698 
L 273.350295 186.166855 
L 273.558227 178.983007 
L 273.76616 179.601905 
L 273.974092 179.601905 
L 274.389956 187.038424 
L 274.597889 183.747231 
L 276.053414 183.747231 
L 276.261347 193.180578 
L 278.132737 193.180578 
L 278.548601 195.695304 
L 284.578636 201.837457 
L 284.786569 210.494337 
L 286.242094 210.494337 
L 290.192807 205.730112 
L 290.400739 186.166855 
L 290.608672 186.166855 
L 292.480062 178.983007 
L 293.103858 178.983007 
L 293.519723 169.724665 
L 293.935587 169.332902 
L 294.559384 170.53044 
L 294.767316 177.796563 
L 295.183181 176.132046 
L 295.391113 180.23928 
L 295.599045 178.983007 
L 296.01491 195.695304 
L 296.222842 187.038424 
L 296.430774 183.747231 
L 297.054571 183.747231 
L 297.470436 181.574121 
L 297.8863 161.87356 
L 298.302165 160.291319 
L 298.510097 161.333013 
L 299.133894 162.42815 
L 299.549758 154.149165 
L 299.75769 162.149054 
L 299.965623 153.034973 
L 300.173555 151.46566 
L 300.381487 151.634439 
L 300.797352 150.803576 
L 301.005284 153.77127 
L 302.460809 159.056842 
L 302.668742 174.097127 
L 302.876674 178.381545 
L 303.084606 180.23928 
L 303.292538 168.948198 
L 303.500471 170.53044 
L 303.708403 151.46566 
L 303.916335 144.743068 
L 304.3322 144.743068 
L 304.540132 144.257809 
L 304.748064 147.911908 
L 305.163929 147.911908 
L 305.579793 186.166855 
L 305.787725 184.523698 
L 306.20359 186.166855 
L 306.411522 186.166855 
L 306.619454 183.747231 
L 306.827387 176.132046 
L 307.035319 174.097127 
L 307.451183 176.132046 
L 307.659116 173.14806 
L 307.867048 164.802872 
L 308.07498 163.582511 
L 308.282912 161.333013 
L 308.490845 165.766215 
L 309.114641 167.122258 
L 309.322574 167.122258 
L 309.530506 168.948198 
L 309.94637 168.198981 
L 310.154303 172.688892 
L 310.362235 174.587964 
L 310.570167 173.14806 
L 310.986032 171.367821 
L 311.193964 171.799159 
L 311.401896 186.166855 
L 311.609828 190.931079 
L 312.025693 182.998014 
L 312.233625 182.998014 
L 313.897083 184.523698 
L 314.105015 183.747231 
L 314.312947 176.132046 
L 314.52088 177.796563 
L 315.560541 173.61732 
L 315.768473 178.381545 
L 316.39227 177.227183 
L 316.808134 178.381545 
L 318.471592 180.89627 
L 318.679525 193.180578 
L 319.927118 181.574121 
L 320.13505 186.166855 
L 320.342983 185.329473 
L 321.382644 180.23928 
L 321.590576 176.672593 
L 321.798508 177.227183 
L 322.214373 177.227183 
L 322.422305 186.166855 
L 322.630237 187.947093 
L 323.254034 188.89616 
L 323.669899 197.073233 
L 325.333356 205.730112 
L 325.541289 182.998014 
L 325.749221 182.998014 
L 325.957153 180.89627 
L 326.788882 180.89627 
L 326.996814 182.2742 
L 328.868205 182.998014 
L 330.947527 203.695193 
L 331.155459 200.128506 
L 331.571324 178.983007 
L 331.779256 176.132046 
L 331.987188 175.090352 
L 333.02685 171.367821 
L 333.858579 170.123751 
L 337.185494 174.097127 
L 337.601359 172.688892 
L 337.809291 167.122258 
L 338.225156 164.183973 
L 338.433088 166.097237 
L 338.64102 166.433472 
L 342.383801 167.475166 
L 343.007597 168.198981 
L 344.047259 174.587964 
L 346.334513 187.038424 
L 346.542445 117.613763 
L 346.750378 107.386124 
L 346.95831 105.372544 
L 347.790039 103.837492 
L 348.413836 148.488984 
L 349.037632 151.804563 
L 349.245565 159.056842 
L 349.453497 158.118208 
L 349.661429 166.433472 
L 349.869361 166.433472 
L 350.077294 169.332902 
L 350.285226 175.090352 
L 350.493158 175.090352 
L 351.532819 175.604846 
L 351.740752 176.672593 
L 352.156616 155.937693 
L 352.364548 155.324718 
L 352.572481 151.804563 
L 352.780413 125.42664 
L 352.988345 121.909663 
L 353.196277 121.328096 
L 353.612142 123.033632 
L 353.820074 122.856816 
L 354.028006 123.527567 
L 354.443871 157.663925 
L 354.651803 144.49906 
L 354.859735 123.39172 
L 355.067668 119.111406 
L 355.2756 119.000877 
L 355.483532 118.528421 
L 355.691464 118.349456 
L 355.899397 115.237229 
L 356.107329 117.995963 
L 356.523193 131.936051 
L 356.731126 130.503469 
L 356.939058 130.44058 
L 357.14699 130.503469 
L 357.354922 137.699916 
L 357.562854 139.350131 
L 358.186651 172.688892 
L 359.01838 182.2742 
L 359.226312 187.947093 
L 359.642177 188.89616 
L 360.058041 192.026216 
L 360.265974 192.026216 
L 360.473906 194.400938 
L 360.88977 158.118208 
L 361.097703 154.34065 
L 361.721499 150.641214 
L 361.929432 144.138198 
L 362.137364 141.663268 
L 362.345296 150.803576 
L 362.761161 149.232979 
L 363.177025 144.138198 
L 363.384957 150.480077 
L 363.59289 152.323224 
L 363.800822 152.498949 
L 364.008754 156.568788 
L 364.216686 158.118208 
L 364.424619 162.149054 
L 364.632551 168.570303 
L 365.048415 165.766215 
L 365.46428 169.724665 
L 366.088077 166.433472 
L 366.296009 151.634439 
L 366.503941 152.498949 
L 366.711873 149.692147 
L 366.919806 148.932263 
L 367.127738 148.783478 
L 367.33567 147.629116 
L 367.543602 148.635723 
L 367.751535 162.710942 
L 367.959467 162.42815 
L 368.167399 170.53044 
L 368.791196 172.239391 
L 368.999128 173.61732 
L 369.414992 173.61732 
L 369.622925 170.53044 
L 369.830857 170.53044 
L 370.246721 165.119181 
L 370.454654 165.119181 
L 370.662586 163.881125 
L 370.870518 153.77127 
L 371.286383 146.802542 
L 371.494315 146.667839 
L 371.910179 142.641324 
L 372.118112 142.530412 
L 372.741908 155.731406 
L 373.365705 146.268752 
L 373.573637 147.770044 
L 373.78157 147.911908 
L 373.989502 145.619751 
L 374.197434 146.00678 
L 374.405366 147.074527 
L 374.613299 147.21183 
L 374.821231 157.219107 
L 375.445028 168.948198 
L 375.860892 179.601905 
L 376.276757 165.119181 
L 376.692621 156.568788 
L 376.900553 154.149165 
L 377.52435 153.959381 
L 377.732282 148.635723 
L 377.940215 152.323224 
L 378.148147 148.343246 
L 378.564011 154.34065 
L 378.979876 157.889858 
L 379.187808 158.349026 
L 379.39574 169.332902 
L 379.603672 170.945025 
L 379.811605 201.837457 
L 380.435401 170.53044 
L 380.851266 166.775087 
L 381.059198 166.433472 
L 381.26713 162.710942 
L 381.682995 161.87356 
L 381.890927 161.87356 
L 382.098859 172.688892 
L 382.306792 169.724665 
L 382.722656 161.87356 
L 382.930588 165.440247 
L 383.346453 166.433472 
L 383.554385 165.766215 
L 383.762317 157.440358 
L 383.97025 160.291319 
L 384.386114 147.489113 
L 384.801979 146.400954 
L 385.009911 143.090825 
L 385.217843 146.938102 
L 385.425775 147.074527 
L 386.049572 166.775087 
L 386.257504 159.298093 
L 386.465437 164.49118 
L 386.673369 165.766215 
L 387.920962 160.291319 
L 388.128895 162.149054 
L 388.336827 162.149054 
L 388.544759 154.728852 
L 388.752691 159.298093 
L 389.168556 161.87356 
L 389.376488 148.343246 
L 389.58442 149.847424 
L 390.000285 149.847424 
L 390.208217 155.324718 
L 390.832014 155.124243 
L 391.039946 152.323224 
L 391.45581 171.799159 
L 391.663743 175.090352 
L 391.871675 175.604846 
L 392.287539 177.227183 
L 392.495472 159.542102 
L 392.703404 96.420107 
L 392.911336 84.638586 
L 393.119268 82.916636 
L 393.119268 82.916636 
" style="fill:none;stroke:#ffc996;stroke-linecap:square;stroke-width:2;"/>
   </g>
   <g id="line2d_50">
    <path clip-path="url(#pcc2a7d1974)" d="M 221.575166 129.700027 
L 221.783098 126.236234 
L 221.991031 125.777066 
L 222.198963 125.979922 
L 222.614827 138.878799 
L 222.82276 142.864892 
L 223.238624 139.638008 
L 223.654489 148.932263 
L 223.862421 148.635723 
L 224.070353 146.00678 
L 224.278285 145.619751 
L 224.486218 144.49906 
L 224.69415 148.488984 
L 224.902082 146.802542 
L 225.110014 147.074527 
L 225.317947 147.629116 
L 225.525879 150.641214 
L 225.941743 153.216681 
L 226.149675 151.976054 
L 226.56554 146.802542 
L 226.773472 140.626633 
L 226.981404 127.077742 
L 227.189337 122.464252 
L 227.397269 121.616899 
L 227.605201 122.121265 
L 227.813133 122.078777 
L 228.021066 121.043147 
L 228.228998 121.124174 
L 228.644862 135.76146 
L 228.852795 137.3499 
L 229.060727 137.966246 
L 229.476591 147.489113 
L 229.892456 158.349026 
L 230.100388 159.542102 
L 230.724185 157.663925 
L 230.932117 150.803576 
L 231.347982 144.866126 
L 231.555914 144.743068 
L 231.763846 143.434272 
L 232.179711 137.966246 
L 232.387643 139.44566 
L 232.803507 127.62104 
L 233.01144 125.42664 
L 233.219372 125.42664 
L 233.427304 125.726651 
L 233.635236 127.024164 
L 233.843169 126.864235 
L 234.051101 130.884737 
L 234.466965 145.619751 
L 234.88283 145.239614 
L 235.298694 142.092438 
L 235.922491 148.488984 
L 236.130423 148.343246 
L 236.338356 150.480077 
L 236.546288 156.568788 
L 236.962152 161.067786 
L 237.170084 157.889858 
L 237.378017 151.298204 
L 237.793881 146.533979 
L 238.001813 148.198497 
L 238.417678 141.451875 
L 239.249407 154.728852 
L 239.457339 152.148934 
L 239.665271 152.854799 
L 240.081136 140.325209 
L 240.704933 138.3266 
L 240.912865 131.142753 
L 241.120797 129.518833 
L 241.328729 124.267052 
L 241.744594 127.731379 
L 241.952526 127.511269 
L 242.160458 123.986735 
L 242.368391 127.456594 
L 242.576323 126.917412 
L 242.784255 134.133229 
L 242.992187 136.499171 
L 243.20012 137.436868 
L 243.408052 130.629803 
L 243.615984 132.275494 
L 243.823916 129.821682 
L 244.031849 129.339165 
L 244.447713 126.547926 
L 244.655645 126.184725 
L 245.07151 135.600929 
L 245.695307 147.21183 
L 246.111171 155.324718 
L 246.319103 156.356343 
L 246.527036 161.067786 
L 246.734968 168.948198 
L 247.150832 155.937693 
L 247.358765 156.783368 
L 247.566697 156.356343 
L 247.774629 157.000126 
L 247.982561 155.937693 
L 248.190493 155.527094 
L 248.398426 165.766215 
L 249.022222 145.239614 
L 249.230155 144.378094 
L 249.438087 144.378094 
L 249.646019 141.451875 
L 249.853951 141.242555 
L 250.477748 166.097237 
L 250.68568 166.097237 
L 250.893613 168.198981 
L 251.101545 174.587964 
L 251.309477 174.587964 
L 251.517409 172.688892 
L 251.725342 172.688892 
L 251.933274 173.14806 
L 252.557071 174.097127 
L 252.765003 174.097127 
L 253.596732 184.523698 
L 254.220529 193.180578 
L 254.428461 181.574121 
L 254.636393 181.574121 
L 254.844325 184.523698 
L 255.26019 179.601905 
L 255.468122 180.23928 
L 255.883987 170.123751 
L 256.091919 171.799159 
L 256.299851 167.834007 
L 256.507783 166.433472 
L 256.715716 163.582511 
L 256.923648 157.219107 
L 257.13158 154.925632 
L 257.339512 157.663925 
L 257.547445 158.818287 
L 258.379174 161.067786 
L 258.587106 160.291319 
L 258.795038 163.582511 
L 259.00297 171.799159 
L 259.210902 169.724665 
L 259.418835 165.766215 
L 259.626767 165.440247 
L 260.250564 160.291319 
L 260.458496 150.480077 
L 260.666428 150.161407 
L 261.082293 153.216681 
L 261.290225 153.399948 
L 261.706089 154.728852 
L 262.121954 176.672593 
L 262.329886 177.227183 
L 262.745751 162.42815 
L 262.953683 154.34065 
L 263.161615 151.976054 
L 263.369547 152.323224 
L 263.785412 151.298204 
L 264.201276 146.268752 
L 264.409209 148.635723 
L 264.617141 147.21183 
L 264.825073 146.667839 
L 265.033005 146.533979 
L 265.240938 145.876989 
L 265.44887 143.549993 
L 266.072667 133.184162 
L 266.488531 129.944035 
L 266.696463 130.44058 
L 266.904396 129.518833 
L 267.112328 130.75689 
L 267.32026 133.616957 
L 267.528192 134.662295 
L 267.736125 137.3499 
L 268.151989 139.44566 
L 268.359921 138.055766 
L 268.775786 142.864892 
L 268.983718 140.626633 
L 269.19165 140.728061 
L 269.815447 144.257809 
L 270.023379 142.864892 
L 270.231311 139.350131 
L 270.647176 147.911908 
L 270.855108 147.911908 
L 271.06304 148.054722 
L 271.270973 148.783478 
L 271.478905 151.976054 
L 271.686837 160.291319 
L 271.894769 160.547016 
L 272.102702 157.440358 
L 272.310634 158.582367 
L 272.518566 156.568788 
L 272.726498 149.232979 
L 273.142363 153.034973 
L 273.76616 149.847424 
L 273.974092 149.847424 
L 274.182024 154.533869 
L 274.389956 154.149165 
L 274.597889 155.937693 
L 274.805821 160.805813 
L 275.013753 170.945025 
L 275.221685 170.945025 
L 275.63755 169.332902 
L 275.845482 170.53044 
L 276.261347 159.542102 
L 276.469279 156.568788 
L 276.677211 157.440358 
L 277.301008 145.365576 
L 277.50894 144.743068 
L 277.716872 147.074527 
L 277.924805 147.770044 
L 278.132737 146.137364 
L 278.340669 147.770044 
L 278.548601 150.320148 
L 278.964466 157.440358 
L 279.172398 156.356343 
L 279.38033 154.149165 
L 279.588263 153.399948 
L 280.004127 158.582367 
L 280.419992 145.365576 
L 280.627924 143.319175 
L 281.043788 144.743068 
L 281.25172 143.783334 
L 281.459653 143.900968 
L 281.667585 150.480077 
L 282.083449 168.570303 
L 282.499314 179.601905 
L 282.707246 184.523698 
L 282.915178 194.400938 
L 283.123111 190.931079 
L 283.331043 190.931079 
L 283.538975 189.889385 
L 283.746907 186.166855 
L 283.95484 187.947093 
L 284.162772 190.931079 
L 284.370704 176.672593 
L 284.786569 173.61732 
L 284.994501 162.149054 
L 285.202433 157.000126 
L 285.618298 153.399948 
L 286.034162 141.55731 
L 286.242094 126.184725 
L 286.450027 122.989291 
L 286.657959 123.34663 
L 287.073823 122.81284 
L 287.489688 125.033071 
L 287.905552 147.629116 
L 288.113485 146.533979 
L 288.529349 148.932263 
L 288.737281 151.804563 
L 289.153146 161.601576 
L 289.56901 157.889858 
L 289.776943 162.42815 
L 289.984875 163.881125 
L 290.192807 162.710942 
L 290.400739 163.288017 
L 290.816604 157.663925 
L 291.024536 159.056842 
L 291.232468 158.582367 
L 291.4404 159.542102 
L 291.648333 156.568788 
L 291.856265 149.38494 
L 292.064197 136.415933 
L 292.272129 135.681044 
L 292.480062 132.690079 
L 292.687994 132.275494 
L 292.895926 131.469719 
L 293.103858 131.936051 
L 293.311791 133.327455 
L 293.519723 141.876775 
L 293.727655 142.864892 
L 293.935587 149.082091 
L 294.14352 151.46566 
L 294.559384 151.46566 
L 294.767316 149.232979 
L 294.975249 151.634439 
L 295.183181 158.582367 
L 295.599045 161.601576 
L 295.806978 161.067786 
L 296.01491 159.788931 
L 296.430774 166.775087 
L 296.638707 162.42815 
L 296.846639 152.148934 
L 297.470436 146.938102 
L 297.678368 147.911908 
L 298.094232 141.035267 
L 298.302165 141.984334 
L 298.510097 147.629116 
L 298.718029 149.082091 
L 299.133894 149.537991 
L 299.341826 153.584802 
L 299.549758 154.925632 
L 299.75769 152.148934 
L 299.965623 147.770044 
L 300.173555 146.938102 
L 300.381487 150.161407 
L 300.589419 150.967182 
L 300.797352 153.959381 
L 301.005284 152.854799 
L 301.213216 157.000126 
L 301.421148 157.440358 
L 301.629081 159.056842 
L 301.837013 153.399948 
L 302.252877 149.082091 
L 302.668742 140.027982 
L 302.876674 141.55731 
L 303.084606 140.225673 
L 303.292538 141.451875 
L 303.500471 141.451875 
L 303.708403 142.530412 
L 304.3322 155.937693 
L 304.540132 158.349026 
L 304.955996 164.802872 
L 305.163929 165.766215 
L 305.371861 169.724665 
L 305.787725 161.333013 
L 306.20359 158.818287 
L 306.411522 159.056842 
L 306.827387 155.527094 
L 307.035319 158.582367 
L 307.243251 163.881125 
L 307.451183 163.582511 
L 307.659116 162.99753 
L 308.07498 160.291319 
L 308.282912 161.601576 
L 308.490845 147.629116 
L 308.698777 146.533979 
L 308.906709 147.629116 
L 309.322574 146.802542 
L 309.738438 151.634439 
L 309.94637 172.688892 
L 310.154303 174.097127 
L 310.570167 171.367821 
L 310.986032 180.23928 
L 311.193964 180.23928 
L 311.401896 171.367821 
L 311.609828 168.198981 
L 311.817761 168.570303 
L 312.441557 162.149054 
L 312.64949 161.601576 
L 312.857422 166.775087 
L 313.065354 167.834007 
L 313.273286 168.198981 
L 313.689151 174.587964 
L 313.897083 176.132046 
L 314.105015 176.672593 
L 314.312947 170.123751 
L 314.52088 172.239391 
L 315.144676 170.123751 
L 315.352609 160.805813 
L 315.768473 157.889858 
L 315.976405 156.356343 
L 316.184338 159.056842 
L 316.39227 156.356343 
L 316.600202 140.932373 
L 316.808134 139.350131 
L 317.016067 140.728061 
L 317.223999 139.350131 
L 317.431931 140.225673 
L 317.639863 139.832104 
L 317.847796 139.160348 
L 318.055728 149.38494 
L 318.26366 153.399948 
L 318.471592 151.634439 
L 318.679525 155.324718 
L 318.887457 154.34065 
L 319.303321 153.959381 
L 319.719186 160.805813 
L 319.927118 155.527094 
L 320.13505 156.356343 
L 320.342983 150.003838 
L 320.550915 147.911908 
L 320.758847 148.488984 
L 321.174712 142.641324 
L 321.382644 144.989898 
L 321.590576 144.866126 
L 321.798508 148.635723 
L 322.214373 149.692147 
L 322.630237 142.310302 
L 323.046102 147.911908 
L 323.461966 149.537991 
L 323.669899 149.537991 
L 324.293695 161.067786 
L 324.70956 164.49118 
L 324.917492 163.288017 
L 325.333356 158.818287 
L 325.541289 152.676133 
L 325.749221 152.676133 
L 326.165085 150.803576 
L 326.58095 151.634439 
L 326.996814 157.000126 
L 327.204747 169.724665 
L 327.620611 175.604846 
L 328.036476 176.672593 
L 328.244408 174.587964 
L 328.45234 161.333013 
L 328.660272 161.067786 
L 328.868205 161.067786 
L 329.076137 161.87356 
L 329.492001 162.710942 
L 329.699934 162.710942 
L 329.907866 162.99753 
L 330.32373 186.166855 
L 330.531663 189.889385 
L 330.947527 187.038424 
L 331.155459 183.747231 
L 331.363392 170.945025 
L 331.571324 165.766215 
L 331.987188 164.49118 
L 332.403053 160.038647 
L 332.610985 160.291319 
L 332.818917 159.788931 
L 333.234782 174.097127 
L 333.650646 175.604846 
L 333.858579 174.097127 
L 334.690308 182.2742 
L 335.106172 186.166855 
L 335.314104 184.523698 
L 335.522036 164.183973 
L 335.937901 158.818287 
L 336.353765 157.663925 
L 336.561698 157.889858 
L 336.977562 156.356343 
L 337.185494 162.42815 
L 337.393427 164.183973 
L 337.809291 171.367821 
L 338.017223 171.367821 
L 338.225156 170.123751 
L 338.433088 165.119181 
L 338.64102 166.433472 
L 339.056885 167.834007 
L 339.472749 170.123751 
L 339.680681 167.834007 
L 339.888614 164.183973 
L 340.304478 167.475166 
L 340.51241 168.198981 
L 340.720343 167.834007 
L 341.136207 166.433472 
L 341.344139 167.475166 
L 341.760004 177.227183 
L 341.967936 168.570303 
L 342.175868 167.475166 
L 342.383801 165.766215 
L 342.591733 161.601576 
L 342.799665 161.601576 
L 343.007597 161.333013 
L 343.423462 157.440358 
L 343.631394 155.527094 
L 343.839326 156.145992 
L 344.047259 160.038647 
L 344.255191 161.333013 
L 344.463123 161.601576 
L 344.671055 165.766215 
L 345.08692 182.998014 
L 345.294852 181.574121 
L 345.502784 177.796563 
L 346.334513 173.61732 
L 346.542445 146.533979 
L 346.750378 137.436868 
L 346.95831 134.738958 
L 347.166242 134.970611 
L 347.374174 134.970611 
L 347.582107 135.126455 
L 347.790039 135.600929 
L 347.997971 146.667839 
L 348.413836 159.788931 
L 348.621768 175.604846 
L 349.037632 177.227183 
L 349.245565 177.227183 
L 349.661429 176.672593 
L 349.869361 164.49118 
L 350.077294 161.333013 
L 350.285226 164.802872 
L 350.493158 165.440247 
L 350.70109 166.775087 
L 350.909023 166.433472 
L 351.116955 167.122258 
L 351.324887 161.333013 
L 351.532819 161.87356 
L 351.948684 140.225673 
L 352.156616 136.333018 
L 352.364548 136.250424 
L 352.572481 135.441597 
L 352.780413 137.177021 
L 352.988345 134.133229 
L 353.196277 133.91044 
L 353.40421 139.541617 
L 353.612142 141.035267 
L 353.820074 141.035267 
L 354.028006 141.346959 
L 354.235939 143.783334 
L 354.443871 149.537991 
L 354.651803 147.911908 
L 354.859735 139.541617 
L 355.067668 138.972237 
L 355.2756 138.785768 
L 355.483532 139.160348 
L 355.899397 136.666626 
L 356.315261 143.434272 
L 356.523193 144.866126 
L 356.731126 144.019253 
L 356.939058 143.783334 
L 357.14699 144.620716 
L 357.354922 147.489113 
L 357.562854 152.323224 
L 357.770787 163.582511 
L 358.602516 168.198981 
L 358.810448 170.945025 
L 359.01838 169.724665 
L 359.226312 171.799159 
L 359.642177 171.367821 
L 359.850109 172.688892 
L 360.058041 170.123751 
L 360.265974 171.367821 
L 360.681838 159.298093 
L 360.88977 154.728852 
L 361.097703 153.77127 
L 361.305635 150.641214 
L 361.513567 149.537991 
L 361.721499 143.319175 
L 361.929432 142.641324 
L 362.137364 142.530412 
L 362.553228 138.055766 
L 362.761161 139.160348 
L 362.969093 137.00553 
L 363.177025 139.350131 
L 363.384957 137.966246 
L 363.59289 137.3499 
L 364.008754 144.378094 
L 364.216686 144.257809 
L 364.424619 149.082091 
L 364.840483 148.343246 
L 365.048415 145.239614 
L 365.256348 144.019253 
L 365.46428 143.666345 
L 365.672212 141.876775 
L 365.880144 136.168149 
L 366.088077 133.83669 
L 366.296009 133.471715 
L 366.711873 142.092438 
L 366.919806 143.204695 
L 367.127738 144.989898 
L 367.543602 155.324718 
L 367.751535 160.805813 
L 368.167399 156.783368 
L 368.375331 159.298093 
L 368.583263 159.298093 
L 368.791196 153.584802 
L 369.20706 157.219107 
L 369.414992 156.568788 
L 369.830857 144.49906 
L 370.038789 144.138198 
L 370.246721 146.938102 
L 370.454654 145.239614 
L 370.662586 144.620716 
L 370.870518 142.641324 
L 371.494315 152.323224 
L 371.702247 150.480077 
L 371.910179 152.676133 
L 372.118112 145.239614 
L 372.326044 144.257809 
L 372.533976 144.620716 
L 372.741908 146.268752 
L 372.949841 146.137364 
L 373.365705 148.343246 
L 373.573637 146.667839 
L 373.989502 154.149165 
L 374.197434 153.959381 
L 374.405366 154.533869 
L 374.613299 151.46566 
L 374.821231 142.420074 
L 375.029163 142.530412 
L 375.237095 143.090825 
L 375.65296 146.802542 
L 375.860892 146.400954 
L 376.068824 146.533979 
L 376.276757 156.568788 
L 376.484689 151.298204 
L 376.692621 153.034973 
L 376.900553 151.976054 
L 377.108486 152.854799 
L 377.316418 148.932263 
L 377.52435 150.480077 
L 377.732282 149.38494 
L 377.940215 158.349026 
L 378.148147 151.976054 
L 378.564011 153.959381 
L 379.187808 154.925632 
L 379.39574 152.854799 
L 379.603672 153.77127 
L 379.811605 153.399948 
L 380.019537 163.881125 
L 380.227469 164.183973 
L 380.435401 155.324718 
L 380.851266 158.818287 
L 381.059198 159.298093 
L 381.26713 156.783368 
L 381.475063 157.219107 
L 381.682995 155.324718 
L 382.098859 159.788931 
L 382.306792 160.291319 
L 383.346453 166.097237 
L 383.554385 165.766215 
L 383.762317 168.570303 
L 383.97025 178.983007 
L 384.178182 180.23928 
L 384.386114 175.090352 
L 384.594046 175.090352 
L 385.009911 172.239391 
L 385.217843 171.367821 
L 385.633708 165.766215 
L 385.84164 171.799159 
L 386.673369 158.349026 
L 386.881301 158.349026 
L 387.089233 158.818287 
L 387.297166 158.118208 
L 387.71303 160.291319 
L 387.920962 155.527094 
L 388.128895 160.805813 
L 388.336827 162.149054 
L 388.544759 161.601576 
L 388.752691 149.847424 
L 388.960624 149.082091 
L 389.168556 149.082091 
L 389.58442 147.350021 
L 389.792353 147.074527 
L 390.000285 142.201092 
L 390.208217 148.635723 
L 390.416149 150.803576 
L 390.624081 151.132051 
L 391.039946 155.731406 
L 391.247878 156.568788 
L 391.45581 167.834007 
L 391.663743 167.834007 
L 391.871675 162.710942 
L 392.079607 160.805813 
L 392.287539 165.440247 
L 392.495472 164.802872 
L 392.703404 151.634439 
L 393.119268 142.641324 
L 393.119268 142.641324 
" style="fill:none;stroke:#ff8474;stroke-linecap:square;stroke-width:2;"/>
   </g>
   <g id="line2d_51">
    <path clip-path="url(#pcc2a7d1974)" d="M 290.400739 213.345298 
L 338.433088 213.345298 
L 340.096546 210.494337 
L 346.334513 210.494337 
L 346.542445 101.095185 
L 346.750378 89.717475 
L 346.95831 86.327947 
L 347.166242 85.778254 
L 347.374174 85.577633 
L 347.790039 84.875077 
L 348.205903 115.547561 
L 348.413836 131.868805 
L 348.621768 135.681044 
L 348.8297 135.681044 
L 349.245565 142.310302 
L 349.453497 150.003838 
L 350.077294 158.582367 
L 350.493158 168.198981 
L 350.70109 170.945025 
L 350.909023 175.604846 
L 351.324887 168.570303 
L 351.532819 168.570303 
L 352.364548 145.365576 
L 352.572481 142.530412 
L 352.780413 117.340035 
L 352.988345 110.234038 
L 353.196277 107.578954 
L 353.40421 107.514484 
L 353.612142 105.764307 
L 353.820074 105.764307 
L 354.028006 106.123148 
L 354.443871 128.520141 
L 354.859735 106.365769 
L 355.067668 105.430852 
L 355.483532 105.045106 
L 355.691464 103.729388 
L 355.899397 101.528468 
L 356.523193 121.825606 
L 356.731126 120.841916 
L 356.939058 120.602915 
L 357.14699 122.989291 
L 357.354922 130.067093 
L 357.562854 132.48178 
L 358.394583 169.332902 
L 358.810448 180.23928 
L 359.01838 180.23928 
L 359.226312 166.775087 
L 359.850109 166.775087 
L 360.058041 157.219107 
L 360.473906 155.124243 
L 360.681838 151.46566 
L 360.88977 140.126599 
L 361.097703 137.524191 
L 361.305635 137.00553 
L 361.513567 138.878799 
L 361.721499 137.3499 
L 361.929432 127.131454 
L 362.137364 124.984381 
L 362.345296 127.347663 
L 362.553228 126.917412 
L 362.969093 125.726651 
L 363.177025 123.986735 
L 363.59289 136.920298 
L 363.800822 134.970611 
L 364.216686 139.541617 
L 364.632551 141.035267 
L 364.840483 139.929818 
L 365.048415 136.499171 
L 365.256348 135.600929 
L 365.46428 135.84218 
L 365.672212 135.76146 
L 366.088077 137.699916 
L 366.296009 134.662295 
L 366.711873 140.626633 
L 366.919806 134.509791 
L 367.127738 134.433945 
L 367.33567 133.327455 
L 367.751535 135.84218 
L 367.959467 135.76146 
L 368.167399 139.541617 
L 368.375331 147.770044 
L 368.583263 147.489113 
L 368.791196 147.770044 
L 368.999128 148.932263 
L 369.20706 157.000126 
L 369.414992 153.584802 
L 369.622925 139.638008 
L 369.830857 137.00553 
L 370.454654 136.086189 
L 370.662586 135.126455 
L 370.870518 131.535718 
L 371.07845 130.693252 
L 371.286383 131.601921 
L 371.494315 131.868805 
L 371.702247 130.377877 
L 371.910179 130.44058 
L 372.118112 128.348651 
L 372.326044 131.801771 
L 372.533976 140.932373 
L 372.949841 142.310302 
L 373.157773 147.074527 
L 373.365705 142.201092 
L 373.573637 140.829972 
L 373.78157 138.055766 
L 373.989502 129.043037 
L 374.197434 128.462825 
L 374.405366 128.520141 
L 374.821231 126.287868 
L 375.029163 127.402059 
L 375.237095 129.458776 
L 375.445028 139.44566 
L 375.65296 141.13866 
L 376.068824 135.84218 
L 376.276757 136.333018 
L 376.484689 141.451875 
L 376.692621 141.035267 
L 376.900553 141.13866 
L 377.108486 137.177021 
L 377.316418 136.582734 
L 377.52435 137.699916 
L 377.732282 135.84218 
L 378.148147 136.168149 
L 378.564011 138.3266 
L 378.771944 142.420074 
L 378.979876 142.752815 
L 379.39574 146.137364 
L 379.603672 146.268752 
L 379.811605 142.977559 
L 380.227469 141.035267 
L 380.435401 134.662295 
L 380.643334 136.168149 
L 380.851266 136.250424 
L 381.059198 136.582734 
L 381.26713 139.350131 
L 381.475063 138.3266 
L 381.682995 137.8771 
L 381.890927 143.900968 
L 382.098859 134.058707 
L 382.306792 132.690079 
L 382.514724 132.275494 
L 382.722656 132.550988 
L 382.930588 133.544213 
L 383.346453 136.333018 
L 383.554385 141.876775 
L 383.762317 142.977559 
L 383.97025 143.204695 
L 384.178182 142.752815 
L 384.386114 117.856188 
L 384.594046 117.002737 
L 384.801979 114.749892 
L 385.009911 114.961735 
L 385.217843 114.659742 
L 385.425775 113.807373 
L 385.633708 115.022649 
L 385.84164 134.662295 
L 386.257504 137.524191 
L 386.465437 139.350131 
L 386.673369 143.319175 
L 386.881301 150.161407 
L 387.089233 148.635723 
L 387.505098 144.019253 
L 387.71303 151.976054 
L 387.920962 144.257809 
L 388.128895 143.434272 
L 388.544759 131.801771 
L 388.752691 126.652842 
L 388.960624 126.547926 
L 389.168556 126.287868 
L 389.58442 122.594306 
L 389.792353 122.856816 
L 390.000285 121.451391 
L 390.208217 125.8276 
L 390.416149 126.391511 
L 390.624081 125.676356 
L 390.832014 126.082078 
L 391.039946 129.160995 
L 391.247878 129.398886 
L 391.45581 132.900431 
L 392.079607 122.637834 
L 392.287539 125.777066 
L 392.495472 123.256733 
L 392.703404 105.179326 
L 392.911336 101.270648 
L 393.119268 101.528468 
L 393.119268 101.528468 
" style="fill:none;stroke:#9f5f80;stroke-linecap:square;stroke-width:2;"/>
   </g>
   <g id="line2d_52">
    <path clip-path="url(#pcc2a7d1974)" d="M 351.324887 210.494337 
L 355.899397 210.494337 
L 361.097703 210.494337 
L 364.632551 210.494337 
L 369.830857 210.494337 
L 370.870518 210.494337 
L 373.365705 213.345298 
L 373.78157 213.345298 
L 374.613299 213.345298 
L 375.445028 213.345298 
L 382.098859 213.345298 
L 383.554385 213.345298 
L 385.425775 213.345298 
L 385.84164 213.345298 
L 388.128895 210.494337 
L 388.544759 210.494337 
L 388.752691 210.494337 
L 389.376488 207.979611 
L 389.58442 207.979611 
L 390.208217 207.979611 
L 390.416149 207.979611 
L 390.832014 205.730112 
L 391.039946 205.730112 
L 391.45581 205.730112 
L 392.287539 205.730112 
L 392.495472 190.931079 
L 392.703404 60.607427 
L 392.911336 44.359859 
L 393.119268 41.452013 
" style="fill:none;stroke:#583d72;stroke-linecap:square;stroke-width:2;"/>
   </g>
   <g id="patch_3">
    <path d="M 55.645234 221.939962 
L 55.645234 16.7 
" style="fill:none;stroke:#000000;stroke-linecap:square;stroke-linejoin:miter;stroke-width:0.8;"/>
   </g>
   <g id="patch_4">
    <path d="M 55.645234 221.939962 
L 397.069981 221.939962 
" style="fill:none;stroke:#000000;stroke-linecap:square;stroke-linejoin:miter;stroke-width:0.8;"/>
   </g>
   <g id="text_15">
    <!-- #WissZeitVG -->
    <g transform="translate(55.645234 178.983007)scale(0.12 -0.12)">
     <defs>
      <path d="M 51.125 44 
L 36.921875 44 
L 32.8125 27.6875 
L 47.125 27.6875 
z
M 43.796875 71.78125 
L 38.71875 51.515625 
L 52.984375 51.515625 
L 58.109375 71.78125 
L 65.921875 71.78125 
L 60.890625 51.515625 
L 76.125 51.515625 
L 76.125 44 
L 58.984375 44 
L 54.984375 27.6875 
L 70.515625 27.6875 
L 70.515625 20.21875 
L 53.078125 20.21875 
L 48 0 
L 40.1875 0 
L 45.21875 20.21875 
L 30.90625 20.21875 
L 25.875 0 
L 18.015625 0 
L 23.09375 20.21875 
L 7.71875 20.21875 
L 7.71875 27.6875 
L 24.90625 27.6875 
L 29 44 
L 13.28125 44 
L 13.28125 51.515625 
L 30.90625 51.515625 
L 35.890625 71.78125 
z
" id="DejaVuSans-35"/>
      <path d="M 3.328125 72.90625 
L 13.28125 72.90625 
L 28.609375 11.28125 
L 43.890625 72.90625 
L 54.984375 72.90625 
L 70.3125 11.28125 
L 85.59375 72.90625 
L 95.609375 72.90625 
L 77.296875 0 
L 64.890625 0 
L 49.515625 63.28125 
L 33.984375 0 
L 21.578125 0 
z
" id="DejaVuSans-87"/>
      <path d="M 9.421875 54.6875 
L 18.40625 54.6875 
L 18.40625 0 
L 9.421875 0 
z
M 9.421875 75.984375 
L 18.40625 75.984375 
L 18.40625 64.59375 
L 9.421875 64.59375 
z
" id="DejaVuSans-105"/>
      <path d="M 5.609375 72.90625 
L 62.890625 72.90625 
L 62.890625 65.375 
L 16.796875 8.296875 
L 64.015625 8.296875 
L 64.015625 0 
L 4.5 0 
L 4.5 7.515625 
L 50.59375 64.59375 
L 5.609375 64.59375 
z
" id="DejaVuSans-90"/>
      <path d="M 28.609375 0 
L 0.78125 72.90625 
L 11.078125 72.90625 
L 34.1875 11.53125 
L 57.328125 72.90625 
L 67.578125 72.90625 
L 39.796875 0 
z
" id="DejaVuSans-86"/>
      <path d="M 59.515625 10.40625 
L 59.515625 29.984375 
L 43.40625 29.984375 
L 43.40625 38.09375 
L 69.28125 38.09375 
L 69.28125 6.78125 
Q 63.578125 2.734375 56.6875 0.65625 
Q 49.8125 -1.421875 42 -1.421875 
Q 24.90625 -1.421875 15.25 8.5625 
Q 5.609375 18.5625 5.609375 36.375 
Q 5.609375 54.25 15.25 64.234375 
Q 24.90625 74.21875 42 74.21875 
Q 49.125 74.21875 55.546875 72.453125 
Q 61.96875 70.703125 67.390625 67.28125 
L 67.390625 56.78125 
Q 61.921875 61.421875 55.765625 63.765625 
Q 49.609375 66.109375 42.828125 66.109375 
Q 29.4375 66.109375 22.71875 58.640625 
Q 16.015625 51.171875 16.015625 36.375 
Q 16.015625 21.625 22.71875 14.15625 
Q 29.4375 6.6875 42.828125 6.6875 
Q 48.046875 6.6875 52.140625 7.59375 
Q 56.25 8.5 59.515625 10.40625 
z
" id="DejaVuSans-71"/>
     </defs>
     <use xlink:href="#DejaVuSans-35"/>
     <use x="83.789062" xlink:href="#DejaVuSans-87"/>
     <use x="180.416016" xlink:href="#DejaVuSans-105"/>
     <use x="208.199219" xlink:href="#DejaVuSans-115"/>
     <use x="260.298828" xlink:href="#DejaVuSans-115"/>
     <use x="312.398438" xlink:href="#DejaVuSans-90"/>
     <use x="380.904297" xlink:href="#DejaVuSans-101"/>
     <use x="442.427734" xlink:href="#DejaVuSans-105"/>
     <use x="470.210938" xlink:href="#DejaVuSans-116"/>
     <use x="509.419922" xlink:href="#DejaVuSans-86"/>
     <use x="577.828125" xlink:href="#DejaVuSans-71"/>
    </g>
   </g>
   <g id="text_16">
    <!-- #FristIstFrust -->
    <g transform="translate(137.986403 129.821682)scale(0.12 -0.12)">
     <defs>
      <path d="M 9.8125 72.90625 
L 51.703125 72.90625 
L 51.703125 64.59375 
L 19.671875 64.59375 
L 19.671875 43.109375 
L 48.578125 43.109375 
L 48.578125 34.8125 
L 19.671875 34.8125 
L 19.671875 0 
L 9.8125 0 
z
" id="DejaVuSans-70"/>
      <path d="M 41.109375 46.296875 
Q 39.59375 47.171875 37.8125 47.578125 
Q 36.03125 48 33.890625 48 
Q 26.265625 48 22.1875 43.046875 
Q 18.109375 38.09375 18.109375 28.8125 
L 18.109375 0 
L 9.078125 0 
L 9.078125 54.6875 
L 18.109375 54.6875 
L 18.109375 46.1875 
Q 20.953125 51.171875 25.484375 53.578125 
Q 30.03125 56 36.53125 56 
Q 37.453125 56 38.578125 55.875 
Q 39.703125 55.765625 41.0625 55.515625 
z
" id="DejaVuSans-114"/>
      <path d="M 9.8125 72.90625 
L 19.671875 72.90625 
L 19.671875 0 
L 9.8125 0 
z
" id="DejaVuSans-73"/>
      <path d="M 8.5 21.578125 
L 8.5 54.6875 
L 17.484375 54.6875 
L 17.484375 21.921875 
Q 17.484375 14.15625 20.5 10.265625 
Q 23.53125 6.390625 29.59375 6.390625 
Q 36.859375 6.390625 41.078125 11.03125 
Q 45.3125 15.671875 45.3125 23.6875 
L 45.3125 54.6875 
L 54.296875 54.6875 
L 54.296875 0 
L 45.3125 0 
L 45.3125 8.40625 
Q 42.046875 3.421875 37.71875 1 
Q 33.40625 -1.421875 27.6875 -1.421875 
Q 18.265625 -1.421875 13.375 4.4375 
Q 8.5 10.296875 8.5 21.578125 
z
M 31.109375 56 
z
" id="DejaVuSans-117"/>
     </defs>
     <use xlink:href="#DejaVuSans-35"/>
     <use x="83.789062" xlink:href="#DejaVuSans-70"/>
     <use x="134.058594" xlink:href="#DejaVuSans-114"/>
     <use x="175.171875" xlink:href="#DejaVuSans-105"/>
     <use x="202.955078" xlink:href="#DejaVuSans-115"/>
     <use x="255.054688" xlink:href="#DejaVuSans-116"/>
     <use x="294.263672" xlink:href="#DejaVuSans-73"/>
     <use x="323.755859" xlink:href="#DejaVuSans-115"/>
     <use x="375.855469" xlink:href="#DejaVuSans-116"/>
     <use x="415.064453" xlink:href="#DejaVuSans-70"/>
     <use x="465.333984" xlink:href="#DejaVuSans-114"/>
     <use x="506.447266" xlink:href="#DejaVuSans-117"/>
     <use x="569.826172" xlink:href="#DejaVuSans-115"/>
     <use x="621.925781" xlink:href="#DejaVuSans-116"/>
    </g>
   </g>
   <g id="text_17">
    <!-- #95vsWissZeitVG -->
    <g transform="translate(232.387643 99.181922)scale(0.12 -0.12)">
     <defs>
      <path d="M 10.796875 72.90625 
L 49.515625 72.90625 
L 49.515625 64.59375 
L 19.828125 64.59375 
L 19.828125 46.734375 
Q 21.96875 47.46875 24.109375 47.828125 
Q 26.265625 48.1875 28.421875 48.1875 
Q 40.625 48.1875 47.75 41.5 
Q 54.890625 34.8125 54.890625 23.390625 
Q 54.890625 11.625 47.5625 5.09375 
Q 40.234375 -1.421875 26.90625 -1.421875 
Q 22.3125 -1.421875 17.546875 -0.640625 
Q 12.796875 0.140625 7.71875 1.703125 
L 7.71875 11.625 
Q 12.109375 9.234375 16.796875 8.0625 
Q 21.484375 6.890625 26.703125 6.890625 
Q 35.15625 6.890625 40.078125 11.328125 
Q 45.015625 15.765625 45.015625 23.390625 
Q 45.015625 31 40.078125 35.4375 
Q 35.15625 39.890625 26.703125 39.890625 
Q 22.75 39.890625 18.8125 39.015625 
Q 14.890625 38.140625 10.796875 36.28125 
z
" id="DejaVuSans-53"/>
      <path d="M 2.984375 54.6875 
L 12.5 54.6875 
L 29.59375 8.796875 
L 46.6875 54.6875 
L 56.203125 54.6875 
L 35.6875 0 
L 23.484375 0 
z
" id="DejaVuSans-118"/>
     </defs>
     <use xlink:href="#DejaVuSans-35"/>
     <use x="83.789062" xlink:href="#DejaVuSans-57"/>
     <use x="147.412109" xlink:href="#DejaVuSans-53"/>
     <use x="211.035156" xlink:href="#DejaVuSans-118"/>
     <use x="270.214844" xlink:href="#DejaVuSans-115"/>
     <use x="322.314453" xlink:href="#DejaVuSans-87"/>
     <use x="418.941406" xlink:href="#DejaVuSans-105"/>
     <use x="446.724609" xlink:href="#DejaVuSans-115"/>
     <use x="498.824219" xlink:href="#DejaVuSans-115"/>
     <use x="550.923828" xlink:href="#DejaVuSans-90"/>
     <use x="619.429688" xlink:href="#DejaVuSans-101"/>
     <use x="680.953125" xlink:href="#DejaVuSans-105"/>
     <use x="708.736328" xlink:href="#DejaVuSans-116"/>
     <use x="747.945312" xlink:href="#DejaVuSans-86"/>
     <use x="816.353516" xlink:href="#DejaVuSans-71"/>
    </g>
   </g>
   <g id="text_18">
    <!-- #IchBinHannah -->
    <g transform="translate(292.687994 51.062291)scale(0.12 -0.12)">
     <defs>
      <path d="M 48.78125 52.59375 
L 48.78125 44.1875 
Q 44.96875 46.296875 41.140625 47.34375 
Q 37.3125 48.390625 33.40625 48.390625 
Q 24.65625 48.390625 19.8125 42.84375 
Q 14.984375 37.3125 14.984375 27.296875 
Q 14.984375 17.28125 19.8125 11.734375 
Q 24.65625 6.203125 33.40625 6.203125 
Q 37.3125 6.203125 41.140625 7.25 
Q 44.96875 8.296875 48.78125 10.40625 
L 48.78125 2.09375 
Q 45.015625 0.34375 40.984375 -0.53125 
Q 36.96875 -1.421875 32.421875 -1.421875 
Q 20.0625 -1.421875 12.78125 6.34375 
Q 5.515625 14.109375 5.515625 27.296875 
Q 5.515625 40.671875 12.859375 48.328125 
Q 20.21875 56 33.015625 56 
Q 37.15625 56 41.109375 55.140625 
Q 45.0625 54.296875 48.78125 52.59375 
z
" id="DejaVuSans-99"/>
      <path d="M 19.671875 34.8125 
L 19.671875 8.109375 
L 35.5 8.109375 
Q 43.453125 8.109375 47.28125 11.40625 
Q 51.125 14.703125 51.125 21.484375 
Q 51.125 28.328125 47.28125 31.5625 
Q 43.453125 34.8125 35.5 34.8125 
z
M 19.671875 64.796875 
L 19.671875 42.828125 
L 34.28125 42.828125 
Q 41.5 42.828125 45.03125 45.53125 
Q 48.578125 48.25 48.578125 53.8125 
Q 48.578125 59.328125 45.03125 62.0625 
Q 41.5 64.796875 34.28125 64.796875 
z
M 9.8125 72.90625 
L 35.015625 72.90625 
Q 46.296875 72.90625 52.390625 68.21875 
Q 58.5 63.53125 58.5 54.890625 
Q 58.5 48.1875 55.375 44.234375 
Q 52.25 40.28125 46.1875 39.3125 
Q 53.46875 37.75 57.5 32.78125 
Q 61.53125 27.828125 61.53125 20.40625 
Q 61.53125 10.640625 54.890625 5.3125 
Q 48.25 0 35.984375 0 
L 9.8125 0 
z
" id="DejaVuSans-66"/>
      <path d="M 9.8125 72.90625 
L 19.671875 72.90625 
L 19.671875 43.015625 
L 55.515625 43.015625 
L 55.515625 72.90625 
L 65.375 72.90625 
L 65.375 0 
L 55.515625 0 
L 55.515625 34.71875 
L 19.671875 34.71875 
L 19.671875 0 
L 9.8125 0 
z
" id="DejaVuSans-72"/>
     </defs>
     <use xlink:href="#DejaVuSans-35"/>
     <use x="83.789062" xlink:href="#DejaVuSans-73"/>
     <use x="113.28125" xlink:href="#DejaVuSans-99"/>
     <use x="168.261719" xlink:href="#DejaVuSans-104"/>
     <use x="231.640625" xlink:href="#DejaVuSans-66"/>
     <use x="300.244141" xlink:href="#DejaVuSans-105"/>
     <use x="328.027344" xlink:href="#DejaVuSans-110"/>
     <use x="391.40625" xlink:href="#DejaVuSans-72"/>
     <use x="466.601562" xlink:href="#DejaVuSans-97"/>
     <use x="527.880859" xlink:href="#DejaVuSans-110"/>
     <use x="591.259766" xlink:href="#DejaVuSans-110"/>
     <use x="654.638672" xlink:href="#DejaVuSans-97"/>
     <use x="715.917969" xlink:href="#DejaVuSans-104"/>
    </g>
   </g>
   <g id="text_19">
    <!-- Tweets gesammelt -->
    <g style="fill:#808080;" transform="translate(67.913237 39.874415)scale(0.12 -0.12)">
     <defs>
      <path d="M 52 44.1875 
Q 55.375 50.25 60.0625 53.125 
Q 64.75 56 71.09375 56 
Q 79.640625 56 84.28125 50.015625 
Q 88.921875 44.046875 88.921875 33.015625 
L 88.921875 0 
L 79.890625 0 
L 79.890625 32.71875 
Q 79.890625 40.578125 77.09375 44.375 
Q 74.3125 48.1875 68.609375 48.1875 
Q 61.625 48.1875 57.5625 43.546875 
Q 53.515625 38.921875 53.515625 30.90625 
L 53.515625 0 
L 44.484375 0 
L 44.484375 32.71875 
Q 44.484375 40.625 41.703125 44.40625 
Q 38.921875 48.1875 33.109375 48.1875 
Q 26.21875 48.1875 22.15625 43.53125 
Q 18.109375 38.875 18.109375 30.90625 
L 18.109375 0 
L 9.078125 0 
L 9.078125 54.6875 
L 18.109375 54.6875 
L 18.109375 46.1875 
Q 21.1875 51.21875 25.484375 53.609375 
Q 29.78125 56 35.6875 56 
Q 41.65625 56 45.828125 52.96875 
Q 50 49.953125 52 44.1875 
z
" id="DejaVuSans-109"/>
     </defs>
     <use xlink:href="#DejaVuSans-84"/>
     <use x="44.583984" xlink:href="#DejaVuSans-119"/>
     <use x="126.371094" xlink:href="#DejaVuSans-101"/>
     <use x="187.894531" xlink:href="#DejaVuSans-101"/>
     <use x="249.417969" xlink:href="#DejaVuSans-116"/>
     <use x="288.626953" xlink:href="#DejaVuSans-115"/>
     <use x="340.726562" xlink:href="#DejaVuSans-32"/>
     <use x="372.513672" xlink:href="#DejaVuSans-103"/>
     <use x="435.990234" xlink:href="#DejaVuSans-101"/>
     <use x="497.513672" xlink:href="#DejaVuSans-115"/>
     <use x="549.613281" xlink:href="#DejaVuSans-97"/>
     <use x="610.892578" xlink:href="#DejaVuSans-109"/>
     <use x="708.304688" xlink:href="#DejaVuSans-109"/>
     <use x="805.716797" xlink:href="#DejaVuSans-101"/>
     <use x="867.240234" xlink:href="#DejaVuSans-108"/>
     <use x="895.023438" xlink:href="#DejaVuSans-116"/>
    </g>
    <!-- ab 2018-01-01. -->
    <g style="fill:#808080;" transform="translate(67.913237 53.31179)scale(0.12 -0.12)">
     <defs>
      <path d="M 48.6875 27.296875 
Q 48.6875 37.203125 44.609375 42.84375 
Q 40.53125 48.484375 33.40625 48.484375 
Q 26.265625 48.484375 22.1875 42.84375 
Q 18.109375 37.203125 18.109375 27.296875 
Q 18.109375 17.390625 22.1875 11.75 
Q 26.265625 6.109375 33.40625 6.109375 
Q 40.53125 6.109375 44.609375 11.75 
Q 48.6875 17.390625 48.6875 27.296875 
z
M 18.109375 46.390625 
Q 20.953125 51.265625 25.265625 53.625 
Q 29.59375 56 35.59375 56 
Q 45.5625 56 51.78125 48.09375 
Q 58.015625 40.1875 58.015625 27.296875 
Q 58.015625 14.40625 51.78125 6.484375 
Q 45.5625 -1.421875 35.59375 -1.421875 
Q 29.59375 -1.421875 25.265625 0.953125 
Q 20.953125 3.328125 18.109375 8.203125 
L 18.109375 0 
L 9.078125 0 
L 9.078125 75.984375 
L 18.109375 75.984375 
z
" id="DejaVuSans-98"/>
      <path d="M 10.6875 12.40625 
L 21 12.40625 
L 21 0 
L 10.6875 0 
z
" id="DejaVuSans-46"/>
     </defs>
     <use xlink:href="#DejaVuSans-97"/>
     <use x="61.279297" xlink:href="#DejaVuSans-98"/>
     <use x="124.755859" xlink:href="#DejaVuSans-32"/>
     <use x="156.542969" xlink:href="#DejaVuSans-50"/>
     <use x="220.166016" xlink:href="#DejaVuSans-48"/>
     <use x="283.789062" xlink:href="#DejaVuSans-49"/>
     <use x="347.412109" xlink:href="#DejaVuSans-56"/>
     <use x="411.035156" xlink:href="#DejaVuSans-45"/>
     <use x="447.119141" xlink:href="#DejaVuSans-48"/>
     <use x="510.742188" xlink:href="#DejaVuSans-49"/>
     <use x="574.365234" xlink:href="#DejaVuSans-45"/>
     <use x="610.449219" xlink:href="#DejaVuSans-48"/>
     <use x="674.072266" xlink:href="#DejaVuSans-49"/>
     <use x="737.695312" xlink:href="#DejaVuSans-46"/>
    </g>
   </g>
   <g id="text_20">
    <!-- Anzahl gemittelt -->
    <g style="fill:#808080;" transform="translate(67.913237 87.881378)scale(0.12 -0.12)">
     <use xlink:href="#DejaVuSans-65"/>
     <use x="68.408203" xlink:href="#DejaVuSans-110"/>
     <use x="131.787109" xlink:href="#DejaVuSans-122"/>
     <use x="184.277344" xlink:href="#DejaVuSans-97"/>
     <use x="245.556641" xlink:href="#DejaVuSans-104"/>
     <use x="308.935547" xlink:href="#DejaVuSans-108"/>
     <use x="336.71875" xlink:href="#DejaVuSans-32"/>
     <use x="368.505859" xlink:href="#DejaVuSans-103"/>
     <use x="431.982422" xlink:href="#DejaVuSans-101"/>
     <use x="493.505859" xlink:href="#DejaVuSans-109"/>
     <use x="590.917969" xlink:href="#DejaVuSans-105"/>
     <use x="618.701172" xlink:href="#DejaVuSans-116"/>
     <use x="657.910156" xlink:href="#DejaVuSans-116"/>
     <use x="697.119141" xlink:href="#DejaVuSans-101"/>
     <use x="758.642578" xlink:href="#DejaVuSans-108"/>
     <use x="786.425781" xlink:href="#DejaVuSans-116"/>
    </g>
    <!-- ber 7 Tage. -->
    <g style="fill:#808080;" transform="translate(67.913237 101.318753)scale(0.12 -0.12)">
     <defs>
      <path d="M 8.5 21.578125 
L 8.5 54.6875 
L 17.484375 54.6875 
L 17.484375 21.921875 
Q 17.484375 14.15625 20.5 10.265625 
Q 23.53125 6.390625 29.59375 6.390625 
Q 36.859375 6.390625 41.078125 11.03125 
Q 45.3125 15.671875 45.3125 23.6875 
L 45.3125 54.6875 
L 54.296875 54.6875 
L 54.296875 0 
L 45.3125 0 
L 45.3125 8.40625 
Q 42.046875 3.421875 37.71875 1 
Q 33.40625 -1.421875 27.6875 -1.421875 
Q 18.265625 -1.421875 13.375 4.4375 
Q 8.5 10.296875 8.5 21.578125 
z
M 31.109375 56 
z
M 35.59375 75.78125 
L 45.515625 75.78125 
L 45.515625 65.921875 
L 35.59375 65.921875 
z
M 16.5 75.78125 
L 26.421875 75.78125 
L 26.421875 65.921875 
L 16.5 65.921875 
z
" id="DejaVuSans-252"/>
     </defs>
     <use xlink:href="#DejaVuSans-252"/>
     <use x="63.378906" xlink:href="#DejaVuSans-98"/>
     <use x="126.855469" xlink:href="#DejaVuSans-101"/>
     <use x="188.378906" xlink:href="#DejaVuSans-114"/>
     <use x="229.492188" xlink:href="#DejaVuSans-32"/>
     <use x="261.279297" xlink:href="#DejaVuSans-55"/>
     <use x="324.902344" xlink:href="#DejaVuSans-32"/>
     <use x="356.689453" xlink:href="#DejaVuSans-84"/>
     <use x="401.273438" xlink:href="#DejaVuSans-97"/>
     <use x="462.552734" xlink:href="#DejaVuSans-103"/>
     <use x="526.029297" xlink:href="#DejaVuSans-101"/>
     <use x="587.552734" xlink:href="#DejaVuSans-46"/>
    </g>
   </g>
  </g>
 </g>
 <defs>
  <clipPath id="pcc2a7d1974">
   <rect height="205.239962" width="341.424747" x="55.645234" y="16.7"/>
  </clipPath>
 </defs>
</svg>
